<svg width="15" height="20" viewBox="0 0 15 20" fill="none" xmlns="http://www.w3.org/2000/svg">
    <path d="M4.23509 19.1667C0.558986 17.0497 -0.408855 15.046 0.144487 12.3092C0.55299 10.2884 1.89061 8.64432 2.01886 6.62739C2.59025 7.68987 2.82901 8.45601 2.89285 9.56629C4.71016 7.29121 5.91107 4.14172 5.98218 0.833374C5.98218 0.833374 10.7156 3.67519 11.0262 7.96779C11.4337 7.08301 11.6388 5.67777 11.2313 4.76704C12.4537 5.67782 19.6088 13.7632 10.2622 19.1667C12.0194 15.6706 10.7155 10.9532 7.66442 8.77449C7.86819 9.71131 7.51094 13.2054 6.16112 14.7407C6.53513 12.1753 5.80527 11.0906 5.80527 11.0906C5.80527 11.0906 5.55476 12.5275 4.58283 13.979C3.69528 15.3046 3.0803 16.7114 4.23509 19.1667Z" fill="#36662C"/>
</svg>


