<svg width="40" height="40" viewBox="0 0 40 40" fill="none" xmlns="http://www.w3.org/2000/svg">
<rect width="39.68" height="39.68" rx="19.84" fill="#7A86F8"/>
<path fill-rule="evenodd" clip-rule="evenodd" d="M26.2394 20.2053C24.7204 20.8204 23.0807 21.1997 21.3657 21.298C21.0699 21.315 20.7719 21.3236 20.4719 21.3236C20.1719 21.3236 19.8738 21.315 19.5781 21.298C17.8627 21.1997 16.2226 20.8202 14.7032 20.2049C11.5147 18.9136 8.85787 16.5839 7.1521 13.6351C9.81084 9.03894 14.7802 5.94666 20.4719 5.94666C26.1635 5.94666 31.1329 9.03894 33.7916 13.6351C32.0857 16.5842 29.4284 18.9142 26.2394 20.2053Z" fill="white"/>
<path d="M14.7031 21.4018C14.3357 21.2531 13.9755 21.0905 13.6229 20.9149C12.4771 21.722 11.5084 22.7273 10.7791 23.8743C12.0188 25.8238 13.9498 27.3641 16.2672 28.2178C17.3715 28.6246 18.5635 28.8755 19.8103 28.9405H21.1095C22.3559 28.8755 24.5468 30.1104 21.3655 33.2266C23.6832 32.373 28.9008 25.824 30.1407 23.8743C29.4134 22.7306 28.4482 21.7278 27.3066 20.9218C26.9581 21.095 26.6021 21.2553 26.2393 21.4023C24.7202 22.0173 23.0805 22.3967 21.3655 22.495C21.0697 22.5119 20.7717 22.5205 20.4717 22.5205C20.1717 22.5205 19.8737 22.5119 19.5779 22.495C17.8625 22.3966 16.2224 22.0171 14.7031 21.4018Z" fill="white"/>
<rect x="14.0491" y="11.6683" width="12.8737" height="4.59775" rx="2.29888" fill="#162550"/>
<ellipse cx="24.0363" cy="13.9417" rx="0.842922" ry="0.842921" fill="#04FED1"/>
<ellipse cx="20.4599" cy="25.2827" rx="0.842922" ry="0.842921" fill="#162550"/>
<ellipse cx="17.0888" cy="13.9417" rx="0.842922" ry="0.842921" fill="#04FED1"/>
<ellipse cx="17.0888" cy="25.2827" rx="0.842922" ry="0.842921" fill="#162550"/>
<ellipse cx="23.8319" cy="25.2827" rx="0.842922" ry="0.842921" fill="#162550"/>
</svg>
