<svg width="28" height="28" viewBox="0 0 28 28" fill="none" xmlns="http://www.w3.org/2000/svg">
    <path fill-rule="evenodd" clip-rule="evenodd" d="M4.08421 16.085V15.8295C4.1217 15.0737 4.36395 14.3413 4.786 13.7079C5.4885 12.9471 5.96941 12.0147 6.17825 11.0087C6.17825 10.2311 6.17825 9.44246 6.24617 8.6649C6.59706 4.92153 10.2984 2.33337 13.9545 2.33337H14.045C17.7011 2.33337 21.4025 4.92153 21.7647 8.6649C21.8326 9.44246 21.7647 10.2311 21.8213 11.0087C22.0329 12.0171 22.5133 12.9523 23.2135 13.719C23.6387 14.3468 23.8814 15.0765 23.9153 15.8295V16.0739C23.9406 17.0894 23.5908 18.0797 22.9305 18.862C22.058 19.7768 20.8741 20.3459 19.6027 20.4615C15.8747 20.8614 12.1135 20.8614 8.38548 20.4615C7.11559 20.3409 5.9333 19.7726 5.05766 18.862C4.40759 18.0791 4.06253 17.0947 4.08421 16.085Z" stroke="#5C5D67" stroke-width="1.5" stroke-linecap="round" stroke-linejoin="round"/>
    <path d="M11.1475 24.3271C11.7299 25.0583 12.5853 25.5314 13.5243 25.6419C14.4633 25.7524 15.4084 25.4911 16.1505 24.9159C16.3788 24.7457 16.5841 24.5479 16.7617 24.3271" stroke="#5C5D67" stroke-width="1.5" stroke-linecap="round" stroke-linejoin="round"/>
</svg>
