<svg width="26" height="26" viewBox="0 0 26 26" fill="none" xmlns="http://www.w3.org/2000/svg">
    <path fill-rule="evenodd" clip-rule="evenodd" d="M7.59985 10.0271C8.0831 10.0271 8.47485 10.4189 8.47485 10.9021V18.9056C8.47485 19.3888 8.0831 19.7806 7.59985 19.7806C7.1166 19.7806 6.72485 19.3888 6.72485 18.9056V10.9021C6.72485 10.4189 7.1166 10.0271 7.59985 10.0271Z" fill="#5C5D67"/>
    <path fill-rule="evenodd" clip-rule="evenodd" d="M13.0444 6.19739C13.5277 6.19739 13.9194 6.58914 13.9194 7.07239V18.9056C13.9194 19.3888 13.5277 19.7806 13.0444 19.7806C12.5612 19.7806 12.1694 19.3888 12.1694 18.9056V7.07239C12.1694 6.58914 12.5612 6.19739 13.0444 6.19739Z" fill="#5C5D67"/>
    <path fill-rule="evenodd" clip-rule="evenodd" d="M18.3999 14.2563C18.8832 14.2563 19.2749 14.6481 19.2749 15.1313V18.9055C19.2749 19.3888 18.8832 19.7805 18.3999 19.7805C17.9167 19.7805 17.5249 19.3888 17.5249 18.9055V15.1313C17.5249 14.6481 17.9167 14.2563 18.3999 14.2563Z" fill="#5C5D67"/>
    <path fill-rule="evenodd" clip-rule="evenodd" d="M2.36405 2.56277C3.62013 1.21535 5.41103 0.458374 7.53325 0.458374H18.4666C20.5938 0.458374 22.3852 1.215 23.6403 2.56318C24.8889 3.9043 25.5416 5.75952 25.5416 7.84939V18.1507C25.5416 20.2406 24.8889 22.0958 23.6403 23.4369C22.3852 24.7851 20.5938 25.5417 18.4666 25.5417H7.53325C5.40603 25.5417 3.61467 24.7851 2.3595 23.4369C1.11091 22.0958 0.458252 20.2406 0.458252 18.1507V7.84939C0.458252 5.75845 1.11433 3.90337 2.36405 2.56277ZM3.64412 3.75606C2.74662 4.71882 2.20825 6.12175 2.20825 7.84939V18.1507C2.20825 19.8794 2.74448 21.2822 3.64033 22.2444C4.52961 23.1996 5.83825 23.7917 7.53325 23.7917H18.4666C20.1616 23.7917 21.4702 23.1996 22.3595 22.2444C23.2554 21.2822 23.7916 19.8794 23.7916 18.1507V7.84939C23.7916 6.12068 23.2554 4.71789 22.3595 3.75564C21.4702 2.80047 20.1616 2.20837 18.4666 2.20837H7.53325C5.84436 2.20837 4.53526 2.80011 3.64412 3.75606Z" fill="#5C5D67"/>
</svg>

