<svg width="16" height="18" viewBox="0 0 16 18" fill="none" xmlns="http://www.w3.org/2000/svg">
    <path d="M3.59479 12.6555C2.77967 12.6555 2.11669 12.3718 1.61954 11.8087C1.12239 11.2455 0.79613 10.4098 0.60614 9.19394C0.326382 7.40205 0.603977 5.89174 1.38773 4.94146C1.84919 4.38178 2.45485 4.05819 3.1391 4.00611C3.72494 3.96098 4.60062 4.18978 5.44639 5.53378C5.97598 6.37539 6.37867 7.49337 6.55136 8.60093C6.7601 9.93798 6.60472 10.9223 6.0762 11.6094C5.65657 12.1552 5.01125 12.4934 4.15791 12.6163C3.97146 12.6426 3.78325 12.6558 3.59479 12.6555V12.6555ZM5.00692 17.3333C4.53068 17.3333 4.04796 17.1864 3.61318 16.9042C2.98579 16.4947 2.55152 15.8634 2.40474 15.1473C2.30199 14.6383 2.36364 14.2339 2.59293 13.9099C2.96534 13.3839 3.63373 13.2655 4.34105 13.1398C4.41568 13.1266 4.49139 13.1135 4.56818 13.0992C4.73113 13.0694 4.89769 13.0298 5.0592 12.9912C5.66414 12.8475 6.28999 12.6986 6.8066 13.052C7.15234 13.2881 7.34737 13.6895 7.40578 14.2783C7.47211 14.9578 7.3207 15.6358 6.97929 16.1879C6.61193 16.7819 6.06106 17.1746 5.42908 17.2941C5.29 17.3202 5.14863 17.3333 5.00692 17.3333V17.3333ZM12.4036 9.3224C12.2153 9.32179 12.0273 9.30786 11.8412 9.28074C10.9882 9.15922 10.3429 8.8207 9.92324 8.27387C9.39473 7.58676 9.23826 6.6028 9.44808 5.2654C9.62077 4.1568 10.0224 3.03986 10.5494 2.20138C11.3909 0.862237 12.2677 0.629962 12.8567 0.670931C13.5388 0.718844 14.1434 1.03792 14.6056 1.59448C15.3947 2.54476 15.6745 4.05958 15.3937 5.85945C15.2037 7.07464 14.8817 7.90618 14.3803 8.4742C13.8788 9.04221 13.2187 9.3224 12.4036 9.3224ZM10.9914 14.0002C10.8501 14.0002 10.7091 13.987 10.5704 13.961C9.9373 13.8415 9.38644 13.4488 9.02015 12.8548C8.67875 12.3027 8.52733 11.6247 8.59367 10.9452C8.65135 10.355 8.84603 9.955 9.19284 9.71855C9.70945 9.36545 10.3353 9.51406 10.9402 9.65814C11.1018 9.69633 11.2683 9.73591 11.4313 9.76612L11.658 9.80674C12.3657 9.93208 13.0341 10.0498 13.4065 10.5765C13.6358 10.9004 13.6974 11.3056 13.5947 11.8139C13.448 12.5301 13.0138 13.1616 12.3863 13.5711C11.949 13.8537 11.4662 14.0002 10.9914 14.0002Z" fill="#FF3939"/>
</svg>
