<?xml version="1.0" encoding="UTF-8"?>
<svg version="1.1" xmlns="http://www.w3.org/2000/svg" width="225" height="225">
<path d="M0 0 C0.99 0.66 1.98 1.32 3 2 C2.44387545 5.88136584 0.72326862 7.62756918 -2.03515625 10.328125 C-3.24848633 11.52695313 -3.24848633 11.52695313 -4.48632812 12.75 C-5.33646484 13.575 -6.18660156 14.4 -7.0625 15.25 C-8.34350586 16.51070312 -8.34350586 16.51070312 -9.65039062 17.796875 C-11.76035412 19.87147597 -13.87699708 21.93875832 -16 24 C-16.96421875 23.43410156 -17.9284375 22.86820313 -18.921875 22.28515625 C-20.19776699 21.54401311 -21.47381699 20.80314193 -22.75 20.0625 C-23.38421875 19.68931641 -24.0184375 19.31613281 -24.671875 18.93164062 C-33.80657144 13.65064425 -45.22965327 13.52185869 -55.453125 15.75390625 C-60.33775155 17.45551796 -64.13049302 19.50496144 -68 23 C-68.66 23 -69.32 23 -70 23 C-70 23.66 -70 24.32 -70 25 C-71.051875 25.928125 -71.051875 25.928125 -72.125 26.875 C-79.5905719 34.14914698 -82.60673491 44.86113451 -83 55 C-82.55991793 65.79576321 -78.19725275 76.55796987 -70.7421875 84.4765625 C-62.91496128 91.32099798 -53.27138798 94.95617219 -42.875 95.3125 C-32.29956622 94.45964244 -21.74321693 91.74321693 -14 84 C-10.27361458 79.0314861 -8.7598613 75.15951456 -7 69 C-19.21 69 -31.42 69 -44 69 C-44 60.09 -44 51.18 -44 42 C-22.22 42 -0.44 42 22 42 C26.86193107 51.72386213 23.5561994 70.67906865 20.3203125 80.71484375 C16.17995005 91.01675151 10.90057962 99.19906733 3 107 C2.45988281 107.56203125 1.91976562 108.1240625 1.36328125 108.703125 C-10.97352814 120.51165792 -29.36703143 124.3554168 -45.86328125 124.1484375 C-65.07515143 123.239283 -81.74589835 114.78338357 -95 101 C-107.7661536 85.86721542 -113.99964127 68.32141564 -112.78515625 48.4921875 C-110.5307753 29.29774398 -101.81032225 12.44602382 -87 0 C-60.46134691 -19.90398982 -26.39338347 -19.88268167 0 0 Z " fill="#34A154" transform="translate(157,58)"/>
<path d="M0 0 C0.99 0.66 1.98 1.32 3 2 C2.44387545 5.88136584 0.72326862 7.62756918 -2.03515625 10.328125 C-3.24848633 11.52695313 -3.24848633 11.52695313 -4.48632812 12.75 C-5.33646484 13.575 -6.18660156 14.4 -7.0625 15.25 C-8.34350586 16.51070312 -8.34350586 16.51070312 -9.65039062 17.796875 C-11.76035412 19.87147597 -13.87699708 21.93875832 -16 24 C-16.96421875 23.43410156 -17.9284375 22.86820313 -18.921875 22.28515625 C-20.19776699 21.54401311 -21.47381699 20.80314193 -22.75 20.0625 C-23.38421875 19.68931641 -24.0184375 19.31613281 -24.671875 18.93164062 C-33.80657144 13.65064425 -45.22965327 13.52185869 -55.453125 15.75390625 C-60.33775155 17.45551796 -64.13049302 19.50496144 -68 23 C-68.66 23 -69.32 23 -70 23 C-70 23.66 -70 24.32 -70 25 C-71.051875 25.928125 -71.051875 25.928125 -72.125 26.875 C-79.59107495 34.14963713 -82.58106878 44.86186438 -83 55 C-82.73863882 57.29532043 -82.44730215 59.58744085 -82.125 61.875 C-81.60007778 67.35387566 -81.60007778 67.35387566 -83.25 70.01953125 C-85.38261117 71.9166666 -87.61877725 73.42413956 -90 75 C-91.11603322 75.87009319 -92.22360822 76.75110335 -93.32421875 77.640625 C-102.4923081 85 -102.4923081 85 -106 85 C-113.98183939 64.95400642 -115.13030361 46.04266211 -106.6484375 25.76953125 C-97.77126237 7.04201473 -83.3019159 -4.92817736 -64 -12 C-41.71728889 -19.42757037 -18.38612165 -13.85064572 0 0 Z " fill="#E24335" transform="translate(157,58)"/>
<path d="M0 0 C21.78 0 43.56 0 66 0 C70.86245464 9.72490928 67.55340153 28.67214472 64.32421875 38.7109375 C60.75394089 47.57870729 56.04895189 58.28682239 48 64 C43.88217748 63.89508732 41.50104443 62.17095371 38.375 59.625 C37.61960938 59.01914063 36.86421875 58.41328125 36.0859375 57.7890625 C34 56 34 56 32.3515625 54.3359375 C31.01824139 52.87965948 31.01824139 52.87965948 29 52 C29 51.34 29 50.68 29 50 C27.68 49.67 26.36 49.34 25 49 C25 48.01 25 47.02 25 46 C25.721875 45.443125 26.44375 44.88625 27.1875 44.3125 C33.02227637 39.51501721 34.93686282 34.22098012 37 27 C24.79 27 12.58 27 0 27 C0 18.09 0 9.18 0 0 Z " fill="#427FEB" transform="translate(113,100)"/>
<path d="M0 0 C3.44397518 0.61314479 5.48935488 1.90270996 8.22265625 4.0546875 C9.40118164 4.97701172 9.40118164 4.97701172 10.60351562 5.91796875 C11.41498047 6.56378906 12.22644531 7.20960937 13.0625 7.875 C13.87783203 8.51308594 14.69316406 9.15117188 15.53320312 9.80859375 C23.13652882 15.79379179 23.13652882 15.79379179 25 18 C24.8203125 20.6796875 24.8203125 20.6796875 24.125 23.875 C23.16195828 28.89177547 23.10475687 32.8334086 23.875 37.875 C24.39992222 43.35387566 24.39992222 43.35387566 22.75 46.01953125 C20.61738883 47.9166666 18.38122275 49.42413956 16 51 C14.88396678 51.87009319 13.77639178 52.75110335 12.67578125 53.640625 C3.5076919 61 3.5076919 61 0 61 C-8.31612726 40.11445901 -8.73054337 21.02377484 0 0 Z " fill="#F3B607" transform="translate(51,82)"/>
<path d="M0 0 C3.44397518 0.61314479 5.48935488 1.90270996 8.22265625 4.0546875 C9.40118164 4.97701172 9.40118164 4.97701172 10.60351562 5.91796875 C11.41498047 6.56378906 12.22644531 7.20960937 13.0625 7.875 C13.87783203 8.51308594 14.69316406 9.15117188 15.53320312 9.80859375 C23.07748406 15.74731284 23.07748406 15.74731284 25 18 C24.85546875 20.48046875 24.85546875 20.48046875 24.1875 23.1875 C23.97480469 24.08855469 23.76210937 24.98960938 23.54296875 25.91796875 C23.36378906 26.60503906 23.18460938 27.29210937 23 28 C22.67 28 22.34 28 22 28 C21.93941406 27.31292969 21.87882812 26.62585938 21.81640625 25.91796875 C21.69072266 24.56638672 21.69072266 24.56638672 21.5625 23.1875 C21.48128906 22.29417969 21.40007812 21.40085937 21.31640625 20.48046875 C21.06510233 17.87256441 21.06510233 17.87256441 20 15 C18.68747118 14.29325371 17.34721283 13.63815344 16 13 C14.20033281 11.74146281 12.43992145 10.43931744 10.68359375 9.12109375 C8.88113235 7.81448821 8.88113235 7.81448821 6 7 C6 7.66 6 8.32 6 9 C5.01 9.33 4.02 9.66 3 10 C2.67 9.67 2.34 9.34 2 9 C1.01 9.33 0.02 9.66 -1 10 C-0.67 10.99 -0.34 11.98 0 13 C-0.66 13 -1.32 13 -2 13 C-2 13.66 -2 14.32 -2 15 C-2.66 15 -3.32 15 -4 15 C-3.97679687 15.6290625 -3.95359375 16.258125 -3.9296875 16.90625 C-3.80815919 22.67016398 -4.36226294 27.47263742 -6 33 C-6.33 33 -6.66 33 -7 33 C-6.6441966 21.29406811 -4.5101042 10.8606545 0 0 Z " fill="#EDB11E" transform="translate(51,82)"/>
<path d="M0 0 C0.66 0.33 1.32 0.66 2 1 C2 2.32 2 3.64 2 5 C1.34 5 0.68 5 0 5 C0.99 6.32 1.98 7.64 3 9 C2.34 9 1.68 9 1 9 C0.67 10.32 0.34 11.64 0 13 C-0.66 13 -1.32 13 -2 13 C-2 12.34 -2 11.68 -2 11 C-3.32 11 -4.64 11 -6 11 C-6.66 9.35 -7.32 7.7 -8 6 C-5.36 4.02 -2.72 2.04 0 0 Z " fill="#33A14F" transform="translate(60,137)"/>
<path d="M0 0 C11.55 0 23.1 0 35 0 C37 7 37 7 36 10 C35.34 10 34.68 10 34 10 C33.34 11.32 32.68 12.64 32 14 C32 11 32 11 35 2 C23.45 1.67 11.9 1.34 0 1 C0 0.67 0 0.34 0 0 Z " fill="#477CD8" transform="translate(115,125)"/>
<path d="M0 0 C5.82992615 3.80564624 11.46642852 7.7743636 17 12 C16.34 15.63 15.68 19.26 15 23 C14.67 23 14.34 23 14 23 C13.93941406 22.31292969 13.87882812 21.62585938 13.81640625 20.91796875 C13.73261719 20.01691406 13.64882812 19.11585937 13.5625 18.1875 C13.48128906 17.29417969 13.40007812 16.40085937 13.31640625 15.48046875 C13.06510233 12.87256441 13.06510233 12.87256441 12 10 C10.16286025 8.94556501 10.16286025 8.94556501 8 8 C6.56042092 7.03327536 5.14341184 6.03215692 3.75 5 C3.04359375 4.484375 2.3371875 3.96875 1.609375 3.4375 C0.81273437 2.7259375 0.81273437 2.7259375 0 2 C0 1.34 0 0.68 0 0 Z " fill="#F4A62B" transform="translate(59,87)"/>
<path d="M0 0 C0 2.66420516 -0.09162237 4.52260646 -1 7 C-1.99 7.33 -2.98 7.66 -4 8 C-3.67 8.66 -3.34 9.32 -3 10 C-6.3 10.66 -9.6 11.32 -13 12 C-8.87675353 7.74790208 -4.48717034 3.86364295 0 0 Z " fill="#45A046" transform="translate(75,125)"/>
<path d="M0 0 C0 0.99 0 1.98 0 3 C0.99 3 1.98 3 3 3 C3 3.66 3 4.32 3 5 C1.9171875 4.67257813 0.834375 4.34515625 -0.28125 4.0078125 C-5.68163119 2.6577172 -10.96526847 2.78057545 -16.5 2.875 C-17.51320313 2.88402344 -18.52640625 2.89304687 -19.5703125 2.90234375 C-22.04712801 2.92570993 -24.52343379 2.95846832 -27 3 C-27 2.34 -27 1.68 -27 1 C-22.87502594 0.83268714 -18.75001667 0.66625884 -14.625 0.5 C-13.449375 0.45230469 -12.27375 0.40460938 -11.0625 0.35546875 C-9.94101563 0.31035156 -8.81953125 0.26523438 -7.6640625 0.21875 C-6.62717285 0.17685547 -5.5902832 0.13496094 -4.52197266 0.09179688 C-3.01533561 0.03695704 -1.50763477 0 0 0 Z " fill="#C7453D" transform="translate(128,70)"/>
<path d="M0 0 C-0.33 0.66 -0.66 1.32 -1 2 C-0.38125 2.12375 0.2375 2.2475 0.875 2.375 C3 3 3 3 5 5 C3.68 5.99 2.36 6.98 1 8 C-0.5027237 7.02501855 -2.00211963 6.04490611 -3.5 5.0625 C-4.3353125 4.51722656 -5.170625 3.97195312 -6.03125 3.41015625 C-6.6809375 2.94480469 -7.330625 2.47945313 -8 2 C-8 1.67 -8 1.34 -8 1 C-2.25 -1.125 -2.25 -1.125 0 0 Z " fill="#D0463D" transform="translate(139,74)"/>
<path d="M0 0 C1.6396875 0.2475 1.6396875 0.2475 3.3125 0.5 C6.73416405 0.93603506 10.05175333 1.03847416 13.5 1 C18.10815132 0.94858409 22.44608068 1.31261595 27 2 C27 2.66 27 3.32 27 4 C6.95939086 4.63959391 6.95939086 4.63959391 0 0 Z " fill="#358E52" transform="translate(93,178)"/>
<path d="M0 0 C0.66 0 1.32 0 2 0 C0.55049545 3.7910119 -1.15172566 7.3874638 -3 11 C-4.32 10.34 -5.64 9.68 -7 9 C-6.01 8.01 -5.02 7.02 -4 6 C-6.475 5.01 -6.475 5.01 -9 4 C-8.34 3.67 -7.68 3.34 -7 3 C-7 2.34 -7 1.68 -7 1 C-6.34 1 -5.68 1 -5 1 C-4.67 1.66 -4.34 2.32 -4 3 C-3.01 3.33 -2.02 3.66 -1 4 C-0.67 2.68 -0.34 1.36 0 0 Z " fill="#D0492E" transform="translate(79,88)"/>
<path d="M0 0 C0.33 0 0.66 0 1 0 C1.02909769 4.06248489 1.04683174 8.12494286 1.0625 12.1875 C1.07087891 13.33798828 1.07925781 14.48847656 1.08789062 15.67382812 C1.09111328 16.78564453 1.09433594 17.89746094 1.09765625 19.04296875 C1.10289307 20.06414795 1.10812988 21.08532715 1.11352539 22.13745117 C1.00519467 24.86901616 0.61706868 27.34169374 0 30 C-0.33 30 -0.66 30 -1 30 C-2.125 22.25 -2.125 22.25 -1 20 C-0.84876169 18.4804236 -0.75118307 16.95527498 -0.68359375 15.4296875 C-0.64169922 14.53378906 -0.59980469 13.63789062 -0.55664062 12.71484375 C-0.49766602 11.30912109 -0.49766602 11.30912109 -0.4375 9.875 C-0.39431641 8.93011719 -0.35113281 7.98523438 -0.30664062 7.01171875 C-0.20040928 4.67462908 -0.09836824 2.3374317 0 0 Z " fill="#4E7CD2" transform="translate(179,102)"/>
<path d="M0 0 C4.34170523 2.3836813 8.2064129 4.78119883 12 8 C10.71034824 9.37562854 9.37310707 10.70766393 8 12 C7.34 12 6.68 12 6 12 C6 11.34 6 10.68 6 10 C6.66 10 7.32 10 8 10 C6.61198929 6.64564078 5.11371 4.88709697 2 3 C1.01 3 0.02 3 -1 3 C-0.67 2.01 -0.34 1.02 0 0 Z " fill="#359167" transform="translate(148,157)"/>
<path d="M0 0 C2.64 0.33 5.28 0.66 8 1 C4.88983545 4.28788824 1.98381075 6.83735988 -2 9 C-2 7.68 -2 6.36 -2 5 C-1.01 5 -0.02 5 1 5 C1.33 4.01 1.66 3.02 2 2 C1.34 2 0.68 2 0 2 C0 1.34 0 0.68 0 0 Z " fill="#DEBB20" transform="translate(60,130)"/>
<path d="M0 0 C0.66 0.33 1.32 0.66 2 1 C1.75 2.875 1.75 2.875 1 5 C-0.8125 6.125 -0.8125 6.125 -3 7 C-3.7425 7.37125 -4.485 7.7425 -5.25 8.125 C-5.8275 8.41375 -6.405 8.7025 -7 9 C-7.33 8.01 -7.66 7.02 -8 6 C-5.36 4.02 -2.72 2.04 0 0 Z " fill="#4A9C48" transform="translate(60,137)"/>
<path d="M0 0 C0.99 0 1.98 0 3 0 C1.55754029 3.36573933 -0.083468 5.75010389 -3 8 C-5.6875 7.875 -5.6875 7.875 -8 7 C-8.33 6.34 -8.66 5.68 -9 5 C-7.329375 4.87625 -7.329375 4.87625 -5.625 4.75 C-1.94246056 4.42126213 -1.94246056 4.42126213 -0.5625 1.9375 C-0.376875 1.298125 -0.19125 0.65875 0 0 Z " fill="#4680CE" transform="translate(164,156)"/>
<path d="M0 0 C1.16161779 2.86578759 0.9946154 4.01630163 0.00390625 7.015625 C-0.70958984 8.61664063 -0.70958984 8.61664063 -1.4375 10.25 C-1.91058594 11.32765625 -2.38367188 12.4053125 -2.87109375 13.515625 C-3.24363281 14.33546875 -3.61617187 15.1553125 -4 16 C-4.33 16 -4.66 16 -5 16 C-5 14.02 -5 12.04 -5 10 C-4.34 9.67 -3.68 9.34 -3 9 C-2.09274566 6.88672575 -2.09274566 6.88672575 -1.375 4.4375 C-1.11460937 3.61121094 -0.85421875 2.78492188 -0.5859375 1.93359375 C-0.39257812 1.29550781 -0.19921875 0.65742188 0 0 Z " fill="#4C79CC" transform="translate(177,132)"/>
<path d="M0 0 C2.38564077 0.57584432 4.66682784 1.22227595 7 2 C7 2.66 7 3.32 7 4 C9.475 4.99 9.475 4.99 12 6 C11.01 6.495 11.01 6.495 10 7 C7.875 6.0625 7.875 6.0625 6 5 C6 4.34 6 3.68 6 3 C4.02 3.33 2.04 3.66 0 4 C0 2.68 0 1.36 0 0 Z " fill="#369873" transform="translate(135,148)"/>
<path d="M0 0 C0.33 0.99 0.66 1.98 1 3 C-0.25 5.1875 -0.25 5.1875 -2 7 C-2.99 7 -3.98 7 -5 7 C-4.67 8.32 -4.34 9.64 -4 11 C-5.32 10.34 -6.64 9.68 -8 9 C-6.8553125 7.88625 -6.8553125 7.88625 -5.6875 6.75 C-3.5606298 4.5736677 -1.7440044 2.47832204 0 0 Z " fill="#4B80CC" transform="translate(145,139)"/>
<path d="M0 0 C3.55312288 1.73021636 6.79730794 3.67076941 10 6 C10 6.66 10 7.32 10 8 C6.40094092 7.44449305 5.00090201 6.25112752 2.75 3.4375 C2.22921875 2.79683594 1.7084375 2.15617188 1.171875 1.49609375 C0.78515625 1.00238281 0.3984375 0.50867188 0 0 Z " fill="#359350" transform="translate(62,158)"/>
<path d="M0 0 C0 2.62113708 -0.31292445 4.50935112 -1 7 C-3.31 7.33 -5.62 7.66 -8 8 C-5.33333333 5.33333333 -2.66666667 2.66666667 0 0 Z " fill="#509D41" transform="translate(75,125)"/>
<path d="M0 0 C2.97 1.98 2.97 1.98 6 4 C5.6875 5.875 5.6875 5.875 5 8 C4.01 8.66 3.02 9.32 2 10 C2.04125 9.0925 2.0825 8.185 2.125 7.25 C2.00468444 4.1217954 1.6085292 2.61385994 0 0 Z " fill="#C64139" transform="translate(154,56)"/>
<path d="M0 0 C0.99 0 1.98 0 3 0 C4.33333333 3.33333333 5.66666667 6.66666667 7 10 C3.60582235 6.87378374 1.3937282 4.43458973 0 0 Z " fill="#3E8D56" transform="translate(55,148)"/>
<path d="M0 0 C0.33 0 0.66 0 1 0 C1.3125 2.1875 1.3125 2.1875 1 5 C-1.5 7.8125 -1.5 7.8125 -4 10 C-4.66 9.67 -5.32 9.34 -6 9 C-5.67 8.01 -5.34 7.02 -5 6 C-4.34 5.690625 -3.68 5.38125 -3 5.0625 C-0.79394438 4.17972859 -0.79394438 4.17972859 -0.25 1.875 C-0.1675 1.25625 -0.085 0.6375 0 0 Z " fill="#D0BC33" transform="translate(74,121)"/>
<path d="M0 0 C0.66 0 1.32 0 2 0 C2.33 0.99 2.66 1.98 3 3 C0.03 5.475 0.03 5.475 -3 8 C-3 6.68 -3 5.36 -3 4 C-2.01 4 -1.02 4 0 4 C0 2.68 0 1.36 0 0 Z " fill="#CE4839" transform="translate(150,67)"/>
<path d="M0 0 C0.66 0.33 1.32 0.66 2 1 C1.34 2.32 0.68 3.64 0 5 C-2.31 4.67 -4.62 4.34 -7 4 C-4.61426621 2.10786631 -2.92824652 0.97608217 0 0 Z " fill="#CC463B" transform="translate(90,47)"/>
<path d="M0 0 C2.72426311 2.35277269 3.8141763 4.62496331 5 8 C3.125 7.875 3.125 7.875 1 7 C-0.25 3.9375 -0.25 3.9375 -1 1 C-0.67 0.67 -0.34 0.34 0 0 Z " fill="#3D9350" transform="translate(75,127)"/>
<path d="M0 0 C-0.66 1.65 -1.32 3.3 -2 5 C-4.475 4.01 -4.475 4.01 -7 3 C-2.5 0 -2.5 0 0 0 Z " fill="#38965B" transform="translate(135,149)"/>
<path d="M0 0 C0.33 0 0.66 0 1 0 C1 3.63 1 7.26 1 11 C0.67 10.34 0.34 9.68 0 9 C-0.66 9 -1.32 9 -2 9 C-1.34 6.03 -0.68 3.06 0 0 Z " fill="#E6AF20" transform="translate(73,113)"/>
</svg>
