<svg width="166" height="234" viewBox="0 0 166 234" fill="none" xmlns="http://www.w3.org/2000/svg">
    <path opacity="0.5" d="M65.7202 165.651C67.5326 165.286 69.3888 165.185 71.2303 165.353C71.4008 165.352 71.5639 165.284 71.6845 165.164C71.8051 165.044 71.8734 164.881 71.8747 164.712C71.8712 164.543 71.8022 164.381 71.6821 164.262C71.562 164.142 71.4001 164.074 71.2303 164.07C69.273 163.901 67.3014 164.017 65.3776 164.414C65.213 164.459 65.0732 164.568 64.9889 164.716C64.9046 164.863 64.8828 165.039 64.9282 165.203C64.9736 165.366 65.0825 165.506 65.231 165.59C65.3795 165.674 65.5555 165.696 65.7202 165.651H65.7202Z" fill="#CCCCCC"/>
    <path d="M21.6211 154.42L21.6288 154.442C21.7303 154.726 21.9411 154.959 22.2152 155.09C22.4893 155.22 22.8041 155.237 23.0905 155.136L21.6211 154.42ZM21.6211 154.42L21.6072 154.402M21.6211 154.42L21.6072 154.402M21.6072 154.402C18.0806 149.732 16.0459 144.516 15.9792 138.57L15.9789 138.545M21.6072 154.402L15.9789 138.545M15.9789 138.545L15.9706 138.521M15.9789 138.545L15.9706 138.521M15.9706 138.521C15.8698 138.237 15.8865 137.924 16.0171 137.651M15.9706 138.521L16.0171 137.651M16.0171 137.651C16.1478 137.379 16.3817 137.169 16.6679 137.068L16.0171 137.651ZM29.6206 132.86C29.3465 132.729 29.0317 132.713 28.7453 132.813L29.6206 132.86ZM29.6206 132.86C29.8946 132.99 30.1054 133.223 30.2069 133.507M29.6206 132.86L30.2069 133.507M30.2069 133.507L30.207 133.507M30.2069 133.507L30.207 133.507M30.207 133.507L35.8652 149.428C35.9661 149.713 35.9493 150.026 35.8187 150.298C35.6881 150.571 35.4541 150.781 35.1679 150.882L30.207 133.507ZM35.1678 150.882L23.0907 155.136L35.1678 150.882ZM16.6681 137.067L28.7451 132.813L16.6681 137.067Z" fill="#FFE8BE" stroke="#000F3E" stroke-width="0.3"/>
    <path d="M29.8712 142.292L21.7858 145.165C21.6571 145.211 21.5155 145.204 21.3921 145.146C21.2686 145.087 21.1734 144.983 21.1275 144.855C21.0816 144.726 21.0887 144.585 21.1472 144.463C21.2057 144.34 21.3108 144.245 21.4395 144.199L29.5248 141.326C29.6534 141.281 29.7947 141.288 29.9179 141.346C30.0411 141.405 30.136 141.509 30.1818 141.637C30.2277 141.765 30.2207 141.906 30.1625 142.028C30.1042 142.151 29.9995 142.246 29.8711 142.292H29.8712Z" fill="#FFD699"/>
    <path d="M22.6138 141.884L20.835 142.516C20.7713 142.539 20.7038 142.55 20.6361 142.547C20.5685 142.543 20.5022 142.527 20.4409 142.499C20.3796 142.47 20.3246 142.43 20.279 142.38C20.2334 142.33 20.1981 142.272 20.1751 142.208C20.1522 142.145 20.142 142.078 20.1452 142.01C20.1483 141.943 20.1648 141.877 20.1937 141.816C20.2225 141.755 20.2631 141.7 20.3132 141.655C20.3633 141.609 20.4219 141.574 20.4856 141.552L20.4887 141.551L22.2675 140.918C22.396 140.873 22.5373 140.881 22.6604 140.939C22.7836 140.997 22.8784 141.102 22.9243 141.23C22.9701 141.357 22.9631 141.498 22.9049 141.621C22.8468 141.744 22.7421 141.838 22.6138 141.884Z" fill="#FFD699"/>
    <path d="M31.3928 146.539L23.3075 149.412C23.179 149.457 23.0376 149.45 22.9145 149.391C22.7914 149.333 22.6965 149.229 22.6507 149.101C22.6049 148.973 22.6118 148.832 22.67 148.71C22.7282 148.587 22.8329 148.492 22.9612 148.446L31.0465 145.573C31.175 145.527 31.3165 145.533 31.44 145.591C31.5635 145.649 31.6589 145.754 31.7052 145.881C31.7515 146.009 31.7449 146.15 31.6869 146.273C31.629 146.396 31.5243 146.491 31.3959 146.538L31.3928 146.539Z" fill="#FFD699"/>
    <path d="M30.6315 144.416L22.5462 147.289C22.4176 147.335 22.2759 147.328 22.1524 147.27C22.0289 147.212 21.9336 147.107 21.8875 146.979C21.8414 146.851 21.8483 146.71 21.9067 146.587C21.965 146.464 22.07 146.369 22.1987 146.323L22.1998 146.323L30.2852 143.45C30.4137 143.404 30.5551 143.412 30.6783 143.47C30.8014 143.528 30.8964 143.633 30.9422 143.761C30.9881 143.888 30.9811 144.029 30.9229 144.152C30.8646 144.275 30.7598 144.37 30.6315 144.416H30.6315Z" fill="#FFD699"/>
    <path d="M24.333 134.952C24.333 136.05 23.4392 136.941 22.3352 136.941C21.2312 136.941 20.3374 136.05 20.3374 134.952C20.3374 133.855 21.2312 132.964 22.3352 132.964C23.4392 132.964 24.333 133.855 24.333 134.952Z" fill="#FEF4F0" stroke="#000F3E" stroke-width="0.3"/>
    <path d="M100.942 42.5985C100.976 45.7289 101.977 52.2462 101.26 55.3124L101.144 55.0558C100.547 55.5264 99.9138 55.9483 99.2493 56.3174C98.77 55.1567 98.0532 54.1081 97.1445 53.2383C97.2642 54.6773 97.0933 56.1255 96.6419 57.4977C93.9572 58.4599 89.245 55.4279 86.3241 55.3637C81.6248 55.2568 77.0457 54.0936 72.5569 52.862C70.9633 52.4258 69.2107 51.857 68.489 50.5399C67.7674 49.2228 69.0589 47.801 68.9744 46.3148C68.3725 35.7282 73.4376 33.9536 78.2571 31.1249C79.3177 30.5023 79.8378 29.162 81.0363 28.6402C82.6987 27.9175 84.6789 28.2639 86.4873 28.6274C86.0382 28.4801 85.6347 28.2202 85.3157 27.8726C84.9967 27.5251 84.773 27.1017 84.666 26.6431C84.5906 26.1937 84.6413 25.7322 84.8126 25.3096C84.9839 24.8871 85.2691 24.5198 85.6368 24.2483C86.6333 23.4829 88.1196 23.3888 89.3911 23.7138C90.6194 24.0962 91.7813 24.6645 92.8361 25.3987C93.5523 25.7898 94.1924 26.3054 94.7261 26.9211C94.9776 27.2125 95.1337 27.5734 95.1736 27.9554C95.2135 28.3375 95.1354 28.7227 94.9495 29.0593C94.7202 29.3479 94.4285 29.5812 94.096 29.7419C93.7636 29.9026 93.399 29.9865 93.0294 29.9873C92.4599 30.0038 91.8908 29.9449 91.3369 29.812C93.8757 30.4354 96.1636 31.8137 97.8962 33.7634C100.048 36.2566 100.903 39.4682 100.942 42.5985Z" fill="#000F3E"/>
    <path d="M25.9922 72.7022L25.9922 72.7022L25.9915 72.7007C25.9772 72.6712 25.9632 72.6415 25.9497 72.6116L25.9496 72.6115C25.7552 72.182 25.6476 71.7186 25.633 71.2477C25.6185 70.7769 25.6972 70.3078 25.8647 69.8672C26.0323 69.4266 26.2854 69.0232 26.6096 68.6799C26.9336 68.3368 27.3224 68.0605 27.7537 67.8668C28.5166 67.5334 29.3689 67.4607 30.1777 67.66C30.9867 67.8594 31.7066 68.3199 32.2249 68.9693L32.2426 68.9914L32.2671 69.0056L48.4153 78.3377L42.6024 82.287L31.6272 74.2592L31.5422 74.1971L31.4549 74.2558C31.2895 74.3671 31.1151 74.4646 30.9335 74.5473C30.0308 74.9408 29.0095 74.9683 28.0867 74.6238C27.1636 74.2792 26.4122 73.5897 25.9922 72.7022Z" fill="#FBB9B9" stroke="#000F3E" stroke-width="0.3"/>
    <path d="M139.872 65.5731L139.874 65.5729C139.907 65.5685 139.939 65.5645 139.972 65.561C140.443 65.5106 140.919 65.5529 141.373 65.6857C141.828 65.8185 142.251 66.039 142.62 66.3346C142.988 66.6303 143.295 66.9953 143.521 67.4088C143.748 67.8221 143.891 68.2757 143.942 68.7438C144.023 69.5689 143.827 70.3976 143.385 71.1005C142.943 71.8037 142.28 72.3416 141.499 72.6301L141.472 72.6399L141.451 72.6587L127.517 85.0356L125.556 78.3069L136.633 70.4204L136.719 70.3589L136.69 70.2569C136.635 70.0658 136.596 69.8706 136.574 69.6731C136.479 68.6972 136.77 67.7227 137.386 66.9571C138.002 66.1911 138.894 65.6945 139.872 65.5731Z" fill="#FBB9B9" stroke="#000F3E" stroke-width="0.3"/>
    <path d="M58.8662 214.356L58.7493 228.169L55.4369 228.141L53.8797 214.314L58.8662 214.356Z" fill="#FBB9B9" stroke="#000F3E" stroke-width="0.3"/>
    <path d="M53.4557 221.161L54.9037 221.263L54.904 221.263L59.8864 221.624L59.8868 221.624L60.9785 221.7L61.8443 233.848L58.6209 233.818L58.0438 230.453L57.9631 229.983L57.7602 230.415L56.172 233.798L46.9629 233.717C46.4502 233.712 45.9589 233.493 45.5971 233.106C45.2351 232.719 45.0328 232.196 45.0367 231.65L44.8867 231.649L45.0367 231.65C45.0394 231.317 45.1188 230.991 45.2679 230.698C45.4169 230.405 45.6308 230.156 45.8907 229.97L53.4557 221.161ZM53.4557 221.161L53.4288 224.521L53.4282 224.598L53.3659 224.642L45.8908 229.97L53.4557 221.161Z" fill="white" stroke="#000F3E" stroke-width="0.3"/>
    <path d="M98.0688 201.15L106.081 212.428L103.377 214.332L93.9978 204.017L98.0688 201.15Z" fill="#FBB9B9" stroke="#000F3E" stroke-width="0.3"/>
    <path d="M97.5336 209.365L98.76 208.609L98.7602 208.609L102.991 206.014L102.991 206.014L103.915 205.444L111.995 214.725L109.383 216.565L106.874 214.19L106.52 213.856L106.62 214.326L107.397 217.969L99.9349 223.237C99.52 223.529 98.9923 223.637 98.466 223.535C97.9393 223.433 97.4575 223.129 97.1285 222.686L97.0061 222.773L97.1285 222.686C96.9282 222.417 96.7935 222.107 96.7356 221.785C96.6778 221.462 96.6986 221.138 96.7951 220.838L97.5336 209.365Z" fill="white" stroke="#000F3E" stroke-width="0.3"/>
    <path d="M61.5968 113.785L72.0397 89.6422H96.0929L89.1552 114.838L61.5968 113.785Z" fill="#F4C7C7"/>
    <path d="M95.6415 208.4L70.622 178.672L71.3608 145.512L71.0647 145.474L64.0627 175.705L64.0588 175.722V175.739V206.925C64.0588 207.879 63.9001 208.499 63.5104 209.125C63.1174 209.756 62.4885 210.397 61.5219 211.381L61.4911 211.413C60.9915 211.921 60.7751 212.346 60.7751 212.733C60.7751 213.121 60.9939 213.425 61.2451 213.687C61.3512 213.798 61.4686 213.907 61.5838 214.014C61.6056 214.034 61.6274 214.054 61.6489 214.074C61.7863 214.202 61.9189 214.329 62.0356 214.463C62.2681 214.731 62.4271 215.016 62.4271 215.372C62.4271 216.142 62.0133 217.099 61.5824 217.88C61.3691 218.266 61.1556 218.603 60.9954 218.844C60.9154 218.964 60.8487 219.059 60.8023 219.125C60.7918 219.14 60.7824 219.153 60.774 219.164H52.1188L51.3803 133.538L61.6912 112.124L89.9031 112.857C90.6361 114.088 91.1046 115.958 91.3537 118.309C91.6069 120.7 91.6315 123.572 91.4865 126.742C91.1965 133.08 90.229 140.591 89.0671 147.792C87.9054 154.992 86.5499 161.878 85.4847 166.964C84.9522 169.507 84.4923 171.6 84.1655 173.057C84.0021 173.786 83.872 174.355 83.7828 174.743C83.7382 174.936 83.7038 175.085 83.6805 175.184L83.6542 175.297L83.6475 175.326L83.6458 175.333L83.6454 175.335C83.6453 175.335 83.6452 175.335 83.7912 175.37L83.6452 175.335L83.6279 175.408L83.6765 175.466L83.7048 175.442C83.6765 175.466 83.6765 175.466 83.6766 175.466L83.6771 175.467L83.679 175.469L83.6864 175.478L83.7158 175.513L83.8306 175.649L84.2672 176.168C84.6439 176.615 85.183 177.255 85.833 178.026C87.133 179.568 88.8766 181.634 90.6508 183.731C92.425 185.828 94.2299 187.955 95.6525 189.619C97.0717 191.28 98.1175 192.487 98.3678 192.736C98.4915 192.859 98.5795 192.947 98.6429 193.018C98.7066 193.09 98.7356 193.134 98.7497 193.169C98.775 193.23 98.7676 193.286 98.7098 193.524C98.5991 193.979 98.3824 194.877 98.4419 197.147C98.4714 198.275 98.5602 198.965 98.7131 199.383C98.7906 199.595 98.8885 199.748 99.0141 199.852C99.1416 199.958 99.2839 200.001 99.4281 200.016C99.5734 200.032 99.7195 200.023 99.87 200.014C100.31 199.988 100.788 199.96 101.39 200.527C101.807 200.92 102.001 201.247 102.071 201.509C102.141 201.766 102.094 201.972 102.004 202.136C101.912 202.304 101.771 202.433 101.647 202.521C101.586 202.565 101.531 202.597 101.492 202.619C101.472 202.63 101.456 202.637 101.446 202.642L101.435 202.648L101.433 202.649L101.433 202.649L101.433 202.649L101.432 202.649L101.407 202.66L101.387 202.68L95.6415 208.4Z" fill="#7A87F8" stroke="#000F3E" stroke-width="0.3"/>
    <mask id="path-17-inside-1_199_153" fill="white">
        <path fill-rule="evenodd" clip-rule="evenodd" d="M90.6399 114.334C90.6399 114.334 57.1954 115.698 59.1534 110.5C59.8771 108.579 61.696 106.031 63.5033 103.499C66.5854 99.181 69.6336 94.9109 67.1569 93.8789C66.4798 93.5967 65.842 93.3535 65.2627 93.1326L65.2626 93.1325C64.2177 92.7341 63.3628 92.4081 62.8099 92.0567C59.2016 91.1635 43.6327 87.3305 41.0394 87.0437C38.7827 86.794 39.0307 85.0099 39.2667 83.3124C39.3378 82.8008 39.4078 82.297 39.4078 81.8456C39.4078 80.5955 38.871 80.8151 37.8833 81.2193C37.3309 81.4453 36.6375 81.729 35.8181 81.8456C33.5338 82.1704 32.8593 76.9941 32.8593 76.9941L38.4288 71.4494C38.4288 71.4494 43.6501 73.3986 45.6081 73.3986C46.8276 73.3986 46.7812 73.5247 46.5727 74.0907C46.4464 74.4335 46.2608 74.9376 46.2608 75.6728C46.2608 76.901 46.9085 76.7105 47.9591 76.4014C48.576 76.22 49.3317 75.9977 50.1767 75.9977C52.4611 75.9977 57.988 79.3589 57.988 79.3589C57.988 79.3589 64.209 69.8249 65.188 65.9264C66.167 62.0278 73.3694 62.0278 73.3694 62.0278L74.2131 62.6775H76.7407L81.5027 54.5554H88.2297L91.6189 62.0277H98.7751L98.7751 62.0279L98.7775 62.0278C98.7775 62.0278 105.98 62.0278 106.959 65.9264C107.938 69.8249 113.83 79.3589 113.83 79.3589C113.83 79.3589 119.686 75.9977 121.97 75.9977C122.815 75.9977 123.571 76.22 124.188 76.4014C125.238 76.7105 125.886 76.901 125.886 75.6728C125.886 74.9376 125.7 74.4335 125.574 74.0907C125.366 73.5247 125.319 73.3986 126.539 73.3986C128.497 73.3986 133.718 71.4494 133.718 71.4494L139.288 76.9941C139.288 76.9941 138.613 82.1705 136.329 81.8456C135.509 81.729 134.816 81.4453 134.264 81.2193C133.276 80.8152 132.739 80.5955 132.739 81.8456C132.739 82.2971 132.809 82.8008 132.88 83.3125C133.116 85.0099 133.364 86.794 131.107 87.0437C128.17 87.3686 108.591 92.2418 108.591 92.2418L99.165 78.5096C99.1549 85.0567 98.9037 95.6382 97.3978 96.24C96.9637 96.4135 96.5386 96.5526 96.1514 96.6793C94.586 97.1916 93.6389 97.5015 95.2086 99.0642L95.4192 99.2736C97.2452 101.088 98.2496 102.086 97.3978 103.792C96.5139 105.562 90.6399 114.334 90.6399 114.334Z"/>
    </mask>
    <path fill-rule="evenodd" clip-rule="evenodd" d="M90.6399 114.334C90.6399 114.334 57.1954 115.698 59.1534 110.5C59.8771 108.579 61.696 106.031 63.5033 103.499C66.5854 99.181 69.6336 94.9109 67.1569 93.8789C66.4798 93.5967 65.842 93.3535 65.2627 93.1326L65.2626 93.1325C64.2177 92.7341 63.3628 92.4081 62.8099 92.0567C59.2016 91.1635 43.6327 87.3305 41.0394 87.0437C38.7827 86.794 39.0307 85.0099 39.2667 83.3124C39.3378 82.8008 39.4078 82.297 39.4078 81.8456C39.4078 80.5955 38.871 80.8151 37.8833 81.2193C37.3309 81.4453 36.6375 81.729 35.8181 81.8456C33.5338 82.1704 32.8593 76.9941 32.8593 76.9941L38.4288 71.4494C38.4288 71.4494 43.6501 73.3986 45.6081 73.3986C46.8276 73.3986 46.7812 73.5247 46.5727 74.0907C46.4464 74.4335 46.2608 74.9376 46.2608 75.6728C46.2608 76.901 46.9085 76.7105 47.9591 76.4014C48.576 76.22 49.3317 75.9977 50.1767 75.9977C52.4611 75.9977 57.988 79.3589 57.988 79.3589C57.988 79.3589 64.209 69.8249 65.188 65.9264C66.167 62.0278 73.3694 62.0278 73.3694 62.0278L74.2131 62.6775H76.7407L81.5027 54.5554H88.2297L91.6189 62.0277H98.7751L98.7751 62.0279L98.7775 62.0278C98.7775 62.0278 105.98 62.0278 106.959 65.9264C107.938 69.8249 113.83 79.3589 113.83 79.3589C113.83 79.3589 119.686 75.9977 121.97 75.9977C122.815 75.9977 123.571 76.22 124.188 76.4014C125.238 76.7105 125.886 76.901 125.886 75.6728C125.886 74.9376 125.7 74.4335 125.574 74.0907C125.366 73.5247 125.319 73.3986 126.539 73.3986C128.497 73.3986 133.718 71.4494 133.718 71.4494L139.288 76.9941C139.288 76.9941 138.613 82.1705 136.329 81.8456C135.509 81.729 134.816 81.4453 134.264 81.2193C133.276 80.8152 132.739 80.5955 132.739 81.8456C132.739 82.2971 132.809 82.8008 132.88 83.3125C133.116 85.0099 133.364 86.794 131.107 87.0437C128.17 87.3686 108.591 92.2418 108.591 92.2418L99.165 78.5096C99.1549 85.0567 98.9037 95.6382 97.3978 96.24C96.9637 96.4135 96.5386 96.5526 96.1514 96.6793C94.586 97.1916 93.6389 97.5015 95.2086 99.0642L95.4192 99.2736C97.2452 101.088 98.2496 102.086 97.3978 103.792C96.5139 105.562 90.6399 114.334 90.6399 114.334Z" fill="#FFD699"/>
    <path d="M59.1534 110.5L59.4341 110.606L59.1534 110.5ZM90.6399 114.334L90.6522 114.633L90.8044 114.627L90.8892 114.501L90.6399 114.334ZM63.5033 103.499L63.7474 103.673L63.5033 103.499ZM67.1569 93.8789L67.0415 94.1558H67.0415L67.1569 93.8789ZM65.2627 93.1326L65.1444 93.4086L65.1558 93.4129L65.2627 93.1326ZM65.2626 93.1325L65.3809 92.8566L65.3695 92.8522L65.2626 93.1325ZM62.8099 92.0567L62.9709 91.8035L62.9295 91.7772L62.882 91.7654L62.8099 92.0567ZM41.0394 87.0437L41.0065 87.3418L41.0394 87.0437ZM39.2667 83.3124L38.9695 83.2711L39.2667 83.3124ZM37.8833 81.2193L37.997 81.4969L37.8833 81.2193ZM35.8181 81.8456L35.7759 81.5485H35.7759L35.8181 81.8456ZM32.8593 76.9941L32.6477 76.7815L32.5427 76.886L32.5618 77.0328L32.8593 76.9941ZM38.4288 71.4494L38.5337 71.1683L38.3535 71.101L38.2171 71.2368L38.4288 71.4494ZM46.5727 74.0907L46.8542 74.1944L46.5727 74.0907ZM47.9591 76.4014L48.0438 76.6892H48.0438L47.9591 76.4014ZM57.988 79.3589L57.8321 79.6152L58.0804 79.7662L58.2393 79.5228L57.988 79.3589ZM65.188 65.9264L65.4789 65.9994L65.188 65.9264ZM73.3694 62.0278L73.5524 61.7901L73.4715 61.7278H73.3694V62.0278ZM74.2131 62.6775L74.0301 62.9152L74.111 62.9775H74.2131V62.6775ZM76.7407 62.6775V62.9775H76.9126L76.9995 62.8292L76.7407 62.6775ZM81.5027 54.5554V54.2554H81.3308L81.2439 54.4037L81.5027 54.5554ZM88.2297 54.5554L88.5029 54.4315L88.4231 54.2554H88.2297V54.5554ZM91.6189 62.0277L91.3457 62.1516L91.4256 62.3277H91.6189V62.0277ZM98.7751 62.0277L99.0747 62.0127L99.0604 61.7277H98.7751V62.0277ZM98.7751 62.0279L98.4755 62.0429L98.4903 62.3379L98.7855 62.3277L98.7751 62.0279ZM98.7775 62.0278V61.7276L98.7671 61.728L98.7775 62.0278ZM106.959 65.9264L107.25 65.8533L106.959 65.9264ZM113.83 79.3589L113.575 79.5166L113.728 79.7636L113.98 79.619L113.83 79.3589ZM124.188 76.4014L124.272 76.1136L124.188 76.4014ZM125.574 74.0907L125.293 74.1944L125.574 74.0907ZM133.718 71.4494L133.93 71.2368L133.793 71.101L133.613 71.1683L133.718 71.4494ZM139.288 76.9941L139.585 77.0329L139.604 76.886L139.499 76.7815L139.288 76.9941ZM136.329 81.8456L136.286 82.1426L136.329 81.8456ZM134.264 81.2193L134.377 80.9416H134.377L134.264 81.2193ZM132.88 83.3125L133.177 83.2712V83.2712L132.88 83.3125ZM131.107 87.0437L131.074 86.7455L131.107 87.0437ZM108.591 92.2418L108.343 92.4116L108.461 92.5832L108.663 92.5329L108.591 92.2418ZM99.165 78.5096L99.4124 78.3398L98.8665 77.5446L98.865 78.5091L99.165 78.5096ZM97.3978 96.24L97.2865 95.9614L97.3978 96.24ZM96.1514 96.6793L96.0581 96.3942L96.1514 96.6793ZM95.2086 99.0642L94.9969 99.2768L94.9971 99.2769L95.2086 99.0642ZM95.4192 99.2736L95.2077 99.4863L95.2077 99.4864L95.4192 99.2736ZM97.3978 103.792L97.6662 103.926L97.3978 103.792ZM58.8726 110.394C58.7227 110.792 58.7389 111.179 58.9158 111.534C59.0869 111.877 59.3953 112.165 59.7837 112.411C60.558 112.901 61.7476 113.282 63.1852 113.586C66.0716 114.194 70.0899 114.511 74.151 114.666C78.2165 114.82 82.3416 114.812 85.4493 114.766C87.0035 114.742 88.3037 114.709 89.2156 114.682C89.6716 114.668 90.0305 114.656 90.2755 114.647C90.398 114.643 90.4921 114.64 90.5555 114.637C90.5873 114.636 90.6114 114.635 90.6276 114.634C90.6357 114.634 90.6418 114.634 90.6459 114.634C90.648 114.634 90.6495 114.633 90.6506 114.633C90.6511 114.633 90.6515 114.633 90.6517 114.633C90.652 114.633 90.6522 114.633 90.6399 114.334C90.6277 114.034 90.6276 114.034 90.6274 114.034C90.6271 114.034 90.6268 114.034 90.6263 114.034C90.6253 114.034 90.6238 114.034 90.6218 114.034C90.6178 114.034 90.6118 114.034 90.6038 114.035C90.5879 114.035 90.5641 114.036 90.5326 114.038C90.4696 114.04 90.3761 114.043 90.2541 114.048C90.0102 114.057 89.6525 114.069 89.1978 114.082C88.2883 114.109 86.991 114.142 85.4403 114.166C82.3383 114.212 78.2247 114.22 74.1738 114.066C70.1185 113.912 66.1428 113.596 63.309 112.998C61.8865 112.698 60.7845 112.334 60.1046 111.904C59.7659 111.689 59.5565 111.474 59.4528 111.266C59.3549 111.07 59.3393 110.858 59.4341 110.606L58.8726 110.394ZM63.2591 103.325C61.4625 105.841 59.6136 108.427 58.8726 110.394L59.4341 110.606C60.1406 108.73 61.9295 106.22 63.7474 103.673L63.2591 103.325ZM67.0415 94.1558C67.3056 94.2658 67.4775 94.4105 67.587 94.5766C67.6971 94.7436 67.7582 94.9539 67.7644 95.2172C67.777 95.7564 67.5583 96.4685 67.1444 97.3263C66.3204 99.0342 64.8061 101.157 63.2591 103.325L63.7474 103.673C65.2826 101.522 66.8334 99.3517 67.6848 97.5871C68.1087 96.7086 68.3803 95.8898 68.3642 95.2032C68.356 94.8535 68.2731 94.5272 68.0879 94.2463C67.902 93.9644 67.6274 93.7499 67.2723 93.6019L67.0415 94.1558ZM65.1558 93.4129C65.7355 93.6339 66.3692 93.8756 67.0415 94.1558L67.2723 93.6019C66.5904 93.3178 65.9485 93.073 65.3696 92.8523L65.1558 93.4129ZM65.1444 93.4083L65.1445 93.4083L65.3809 92.8568L65.3808 92.8568L65.1444 93.4083ZM62.649 92.3098C63.2338 92.6816 64.1237 93.0193 65.1557 93.4129L65.3695 92.8522C64.3116 92.4488 63.4918 92.1346 62.9709 91.8035L62.649 92.3098ZM41.0065 87.3418C42.2796 87.4827 46.7953 88.5061 51.4749 89.6147C56.1408 90.7201 60.934 91.9014 62.7378 92.3479L62.882 91.7654C61.0775 91.3188 56.2821 90.137 51.6132 89.0309C46.9579 87.928 42.3926 86.8915 41.0724 86.7455L41.0065 87.3418ZM38.9695 83.2711C38.8544 84.0995 38.7185 85.039 38.9291 85.8009C39.0381 86.1952 39.2419 86.5541 39.5915 86.8297C39.938 87.1028 40.4041 87.2752 41.0065 87.3418L41.0724 86.7455C40.5465 86.6873 40.1972 86.5431 39.9629 86.3584C39.7316 86.1762 39.589 85.9362 39.5075 85.641C39.3369 85.0241 39.443 84.2228 39.5638 83.3538L38.9695 83.2711ZM39.1078 81.8456C39.1078 82.2722 39.0414 82.7541 38.9695 83.2711L39.5638 83.3538C39.6342 82.8475 39.7078 82.3218 39.7078 81.8456H39.1078ZM37.997 81.4969C38.248 81.3942 38.4527 81.3107 38.626 81.2577C38.8053 81.2028 38.9051 81.196 38.9579 81.2064C38.98 81.2108 39.0033 81.215 39.0341 81.2847C39.0742 81.3757 39.1078 81.5458 39.1078 81.8456H39.7078C39.7078 81.5203 39.6742 81.2491 39.5829 81.0423C39.4822 80.8142 39.3095 80.6642 39.074 80.6178C38.8691 80.5773 38.6495 80.623 38.4504 80.684C38.2453 80.7467 38.0125 80.8423 37.7697 80.9416L37.997 81.4969ZM35.8604 82.1426C36.7211 82.0202 37.4461 81.7223 37.997 81.4969L37.7697 80.9416C37.2158 81.1682 36.554 81.4379 35.7759 81.5485L35.8604 82.1426ZM32.8593 76.9941C32.5618 77.0328 32.5618 77.0329 32.5619 77.033C32.5619 77.0331 32.5619 77.0332 32.5619 77.0333C32.5619 77.0336 32.562 77.0339 32.562 77.0343C32.5621 77.0351 32.5623 77.0362 32.5625 77.0376C32.5628 77.0405 32.5634 77.0445 32.5641 77.0498C32.5656 77.0603 32.5677 77.0756 32.5706 77.0953C32.5763 77.1347 32.5849 77.1918 32.5966 77.264C32.6201 77.4084 32.6561 77.6135 32.7066 77.8583C32.8072 78.3468 32.9663 78.9988 33.2001 79.6438C33.4321 80.2843 33.7459 80.9414 34.1663 81.4221C34.5917 81.9084 35.1553 82.2428 35.8604 82.1426L35.7759 81.5485C35.3388 81.6107 34.9615 81.4199 34.618 81.0271C34.2694 80.6286 33.9863 80.0525 33.7642 79.4394C33.5437 78.831 33.3915 78.2093 33.2942 77.7373C33.2457 77.5019 33.2112 77.3051 33.1889 77.1677C33.1777 77.099 33.1696 77.0453 33.1643 77.009C33.1617 76.9908 33.1598 76.9771 33.1585 76.968C33.1579 76.9635 33.1574 76.9601 33.1572 76.958C33.157 76.9569 33.1569 76.9562 33.1569 76.9557C33.1568 76.9555 33.1568 76.9554 33.1568 76.9553C33.1568 76.9553 33.1568 76.9553 33.1568 76.9552C33.1568 76.9553 33.1568 76.9553 32.8593 76.9941ZM38.2171 71.2368L32.6477 76.7815L33.071 77.2067L38.6405 71.662L38.2171 71.2368ZM45.6081 73.0986C45.1562 73.0986 44.4918 72.9843 43.73 72.8023C42.9746 72.6218 42.1457 72.3804 41.3742 72.1378C40.6032 71.8954 39.8926 71.6529 39.3747 71.4709C39.1158 71.3799 38.9052 71.3042 38.7595 71.2512C38.6866 71.2247 38.63 71.2039 38.5917 71.1898C38.5725 71.1827 38.558 71.1773 38.5482 71.1737C38.5433 71.1719 38.5397 71.1705 38.5372 71.1696C38.536 71.1692 38.5351 71.1688 38.5345 71.1686C38.5342 71.1685 38.534 71.1684 38.5339 71.1684C38.5338 71.1683 38.5338 71.1683 38.5338 71.1683C38.5337 71.1683 38.5337 71.1683 38.4288 71.4494C38.3239 71.7304 38.3239 71.7304 38.324 71.7304C38.324 71.7305 38.3241 71.7305 38.3242 71.7305C38.3244 71.7306 38.3246 71.7307 38.325 71.7308C38.3256 71.7311 38.3266 71.7314 38.3279 71.7319C38.3305 71.7329 38.3344 71.7343 38.3395 71.7362C38.3496 71.74 38.3646 71.7455 38.3841 71.7527C38.4232 71.7671 38.4807 71.7882 38.5545 71.8151C38.7019 71.8687 38.9146 71.9452 39.1758 72.037C39.698 72.2205 40.4151 72.4653 41.1942 72.7102C41.9728 72.9549 42.8163 73.2009 43.5906 73.3859C44.3585 73.5693 45.081 73.6986 45.6081 73.6986V73.0986ZM46.8542 74.1944C46.9021 74.0644 46.9573 73.9183 46.9777 73.7911C47.0003 73.6494 46.991 73.4559 46.8255 73.3084C46.6942 73.1915 46.5098 73.1509 46.3401 73.1295C46.1563 73.1064 45.9145 73.0986 45.6081 73.0986V73.6986C45.9114 73.6986 46.1212 73.7067 46.2651 73.7248C46.4233 73.7448 46.4428 73.7711 46.4263 73.7564C46.3756 73.7112 46.3918 73.6553 46.3852 73.6964C46.3763 73.7521 46.3476 73.834 46.2912 73.987L46.8542 74.1944ZM46.5608 75.6728C46.5608 74.9926 46.7308 74.5295 46.8542 74.1944L46.2912 73.987C46.1621 74.3375 45.9608 74.8826 45.9608 75.6728H46.5608ZM47.8745 76.1136C47.608 76.192 47.3842 76.2576 47.1911 76.2966C46.9943 76.3364 46.866 76.3402 46.783 76.3212C46.7203 76.3068 46.6808 76.2804 46.6452 76.2111C46.6001 76.1234 46.5608 75.9611 46.5608 75.6728H45.9608C45.9608 75.9986 46.0024 76.2731 46.1116 76.4855C46.2302 76.7162 46.4183 76.8531 46.6489 76.906C46.8592 76.9542 47.0898 76.9292 47.31 76.8847C47.5338 76.8395 47.7849 76.7654 48.0438 76.6892L47.8745 76.1136ZM50.1767 75.6977C49.2828 75.6977 48.4882 75.9331 47.8745 76.1136L48.0438 76.6892C48.6637 76.5069 49.3806 76.2977 50.1767 76.2977V75.6977ZM57.988 79.3589C58.1439 79.1025 58.1438 79.1025 58.1438 79.1025C58.1437 79.1024 58.1436 79.1024 58.1435 79.1023C58.1433 79.1022 58.1431 79.102 58.1427 79.1018C58.142 79.1014 58.1409 79.1007 58.1395 79.0999C58.1367 79.0982 58.1326 79.0957 58.1272 79.0924C58.1164 79.0859 58.1005 79.0763 58.0797 79.0638C58.0381 79.0389 57.9771 79.0024 57.8986 78.9561C57.7418 78.8635 57.5156 78.7314 57.2371 78.5729C56.6803 78.2561 55.9134 77.8334 55.074 77.4104C54.2354 76.9877 53.3198 76.5624 52.4664 76.242C51.622 75.925 50.8053 75.6977 50.1767 75.6977V76.2977C50.6904 76.2977 51.4212 76.4905 52.2555 76.8037C53.0809 77.1136 53.9753 77.5285 54.804 77.9462C55.6318 78.3634 56.3895 78.781 56.9404 79.0944C57.2157 79.2511 57.4391 79.3815 57.5935 79.4727C57.6707 79.5183 57.7306 79.5541 57.7711 79.5784C57.7913 79.5905 57.8067 79.5998 57.817 79.606C57.8221 79.6091 57.8259 79.6114 57.8285 79.613C57.8298 79.6137 57.8307 79.6143 57.8313 79.6147C57.8316 79.6149 57.8318 79.615 57.832 79.6151C57.832 79.6151 57.8321 79.6151 57.8321 79.6152C57.8321 79.6152 57.8321 79.6152 57.988 79.3589ZM64.897 65.8533C64.6607 66.7942 64.1012 68.0964 63.3816 69.5358C62.6648 70.9697 61.7989 72.5208 60.9618 73.9532C60.125 75.3852 59.3185 76.696 58.7211 77.6489C58.4225 78.1253 58.1762 78.5121 58.0047 78.7797C57.9189 78.9134 57.8518 79.0174 57.8062 79.0878C57.7835 79.1231 57.766 79.1499 57.7543 79.1679C57.7485 79.1769 57.7441 79.1837 57.7411 79.1882C57.7397 79.1905 57.7386 79.1922 57.7378 79.1933C57.7375 79.1938 57.7372 79.1943 57.737 79.1945C57.7369 79.1947 57.7369 79.1948 57.7368 79.1948C57.7368 79.1949 57.7368 79.1949 57.988 79.3589C58.2393 79.5228 58.2393 79.5227 58.2393 79.5227C58.2394 79.5226 58.2395 79.5225 58.2396 79.5223C58.2398 79.522 58.2401 79.5215 58.2405 79.5209C58.2412 79.5197 58.2424 79.518 58.2439 79.5156C58.247 79.511 58.2515 79.504 58.2574 79.4949C58.2693 79.4765 58.287 79.4494 58.31 79.4138C58.356 79.3427 58.4235 79.238 58.5098 79.1035C58.6823 78.8344 58.9297 78.4459 59.2295 77.9676C59.8291 77.0111 60.6391 75.6948 61.4799 74.2559C62.3204 72.8176 63.1934 71.2542 63.9183 69.804C64.6405 68.3594 65.2257 67.0078 65.4789 65.9994L64.897 65.8533ZM73.3694 62.0278C73.3694 61.7278 73.3693 61.7278 73.3691 61.7278C73.3691 61.7278 73.3689 61.7278 73.3687 61.7278C73.3684 61.7278 73.368 61.7278 73.3674 61.7278C73.3663 61.7278 73.3648 61.7278 73.3629 61.7278C73.359 61.7278 73.3534 61.7278 73.3461 61.7279C73.3315 61.728 73.3103 61.7283 73.2829 61.7288C73.228 61.7298 73.1481 61.7317 73.0465 61.7356C72.8434 61.7434 72.5532 61.7589 72.2024 61.7898C71.5016 61.8517 70.5539 61.9755 69.5721 62.2243C68.5926 62.4725 67.564 62.8489 66.7116 63.4238C65.8563 64.0006 65.1646 64.7875 64.897 65.8533L65.4789 65.9994C65.7008 65.1159 66.2766 64.4409 67.0471 63.9212C67.8205 63.3996 68.776 63.045 69.7195 62.8059C70.6607 62.5674 71.5748 62.4475 72.2551 62.3875C72.5947 62.3576 72.8749 62.3426 73.0695 62.3352C73.1667 62.3314 73.2426 62.3296 73.2937 62.3287C73.3192 62.3282 73.3386 62.328 73.3513 62.3279C73.3577 62.3278 73.3624 62.3278 73.3655 62.3278C73.367 62.3278 73.3681 62.3278 73.3687 62.3278C73.369 62.3278 73.3693 62.3278 73.3694 62.3278C73.3694 62.3278 73.3694 62.3278 73.3695 62.3278C73.3694 62.3278 73.3694 62.3278 73.3694 62.0278ZM74.3961 62.4398L73.5524 61.7901L73.1864 62.2655L74.0301 62.9152L74.3961 62.4398ZM76.7407 62.3775H74.2131V62.9775H76.7407V62.3775ZM81.2439 54.4037L76.4819 62.5257L76.9995 62.8292L81.7615 54.7072L81.2439 54.4037ZM88.2297 54.2554H81.5027V54.8554H88.2297V54.2554ZM91.8922 61.9038L88.5029 54.4315L87.9565 54.6793L91.3457 62.1516L91.8922 61.9038ZM98.7751 61.7277H91.6189V62.3277H98.7751V61.7277ZM99.0747 62.0128L99.0747 62.0127L98.4755 62.0427L98.4755 62.0429L99.0747 62.0128ZM98.7671 61.728L98.7647 61.728L98.7855 62.3277L98.7879 62.3276L98.7671 61.728ZM107.25 65.8533C106.982 64.7875 106.291 64.0006 105.435 63.4238C104.583 62.8489 103.554 62.4725 102.575 62.2243C101.593 61.9755 100.645 61.8517 99.9445 61.7898C99.5937 61.7589 99.3035 61.7434 99.1004 61.7356C98.9988 61.7317 98.9189 61.7298 98.864 61.7288C98.8366 61.7283 98.8154 61.728 98.8008 61.7279C98.7935 61.7278 98.7879 61.7278 98.784 61.7278C98.7821 61.7278 98.7805 61.7278 98.7794 61.7278C98.7789 61.7278 98.7785 61.7278 98.7781 61.7278C98.778 61.7278 98.7778 61.7278 98.7777 61.7278C98.7776 61.7278 98.7775 61.7278 98.7775 62.0278C98.7775 62.3278 98.7774 62.3278 98.7774 62.3278C98.7775 62.3278 98.7775 62.3278 98.7775 62.3278C98.7776 62.3278 98.7778 62.3278 98.7782 62.3278C98.7788 62.3278 98.7799 62.3278 98.7814 62.3278C98.7845 62.3278 98.7892 62.3278 98.7956 62.3279C98.8083 62.328 98.8277 62.3282 98.8532 62.3287C98.9043 62.3296 98.9801 62.3314 99.0774 62.3352C99.272 62.3426 99.5522 62.3576 99.8918 62.3875C100.572 62.4475 101.486 62.5674 102.427 62.8059C103.371 63.045 104.326 63.3996 105.1 63.9212C105.87 64.4409 106.446 65.1159 106.668 65.9994L107.25 65.8533ZM113.83 79.3589C114.086 79.2011 114.086 79.2011 114.085 79.2011C114.085 79.201 114.085 79.2009 114.085 79.2008C114.085 79.2005 114.085 79.2001 114.085 79.1995C114.084 79.1984 114.083 79.1967 114.081 79.1944C114.079 79.1899 114.074 79.1831 114.069 79.1741C114.058 79.1561 114.041 79.1293 114.02 79.094C113.976 79.0236 113.913 78.9196 113.832 78.7858C113.669 78.5182 113.436 78.1314 113.152 77.6549C112.585 76.7019 111.82 75.391 111.024 73.9588C110.228 72.5263 109.403 70.9749 108.716 69.5404C108.027 68.101 107.487 66.797 107.25 65.8533L106.668 65.9994C106.92 67.0051 107.484 68.3547 108.175 69.7994C108.869 71.249 109.7 72.8121 110.5 74.2503C111.299 75.689 112.068 77.0052 112.636 77.9616C112.921 78.4399 113.155 78.8284 113.319 79.0974C113.401 79.2319 113.465 79.3365 113.508 79.4076C113.53 79.4432 113.547 79.4704 113.558 79.4887C113.564 79.4978 113.568 79.5048 113.571 79.5094C113.572 79.5118 113.573 79.5135 113.574 79.5147C113.574 79.5153 113.575 79.5158 113.575 79.5161C113.575 79.5162 113.575 79.5164 113.575 79.5164C113.575 79.5165 113.575 79.5166 113.83 79.3589ZM121.97 75.6977C121.343 75.6977 120.506 75.9244 119.632 76.2408C118.749 76.5607 117.793 76.9855 116.914 77.4079C116.034 77.8306 115.226 78.253 114.639 78.5696C114.345 78.7279 114.106 78.86 113.94 78.9525C113.857 78.9988 113.793 79.0352 113.749 79.0601C113.727 79.0726 113.71 79.0821 113.699 79.0886C113.693 79.0919 113.689 79.0944 113.686 79.096C113.684 79.0969 113.683 79.0975 113.682 79.098C113.682 79.0982 113.682 79.0984 113.681 79.0985C113.681 79.0985 113.681 79.0986 113.681 79.0986C113.681 79.0987 113.681 79.0987 113.83 79.3589C113.98 79.619 113.98 79.619 113.98 79.619C113.98 79.619 113.98 79.619 113.98 79.6189C113.98 79.6189 113.98 79.6187 113.981 79.6185C113.981 79.6182 113.982 79.6176 113.984 79.6168C113.986 79.6153 113.99 79.6129 113.996 79.6098C114.007 79.6036 114.023 79.5943 114.045 79.5821C114.087 79.5578 114.151 79.522 114.233 79.4764C114.396 79.3851 114.632 79.2545 114.923 79.0978C115.505 78.7841 116.304 78.3663 117.174 77.9487C118.044 77.5307 118.98 77.1153 119.837 76.805C120.703 76.4912 121.455 76.2977 121.97 76.2977V75.6977ZM124.272 76.1136C123.659 75.9331 122.864 75.6977 121.97 75.6977V76.2977C122.766 76.2977 123.483 76.5069 124.103 76.6892L124.272 76.1136ZM125.586 75.6728C125.586 75.9611 125.547 76.1234 125.502 76.2111C125.466 76.2804 125.427 76.3068 125.364 76.3212C125.281 76.3402 125.153 76.3364 124.956 76.2966C124.763 76.2576 124.539 76.192 124.272 76.1136L124.103 76.6892C124.362 76.7654 124.613 76.8395 124.837 76.8847C125.057 76.9292 125.288 76.9542 125.498 76.906C125.729 76.8531 125.917 76.7162 126.035 76.4855C126.144 76.2731 126.186 75.9986 126.186 75.6728H125.586ZM125.293 74.1944C125.416 74.5295 125.586 74.9926 125.586 75.6728H126.186C126.186 74.8826 125.985 74.3375 125.856 73.987L125.293 74.1944ZM126.539 73.0986C126.232 73.0986 125.991 73.1064 125.807 73.1295C125.637 73.1509 125.453 73.1915 125.321 73.3084C125.156 73.4559 125.147 73.6495 125.169 73.7912C125.19 73.9183 125.245 74.0644 125.293 74.1944L125.856 73.987C125.799 73.834 125.771 73.7521 125.762 73.6964C125.755 73.6553 125.771 73.7112 125.721 73.7564C125.704 73.7711 125.724 73.7448 125.882 73.7248C126.026 73.7067 126.235 73.6986 126.539 73.6986V73.0986ZM133.718 71.4494C133.613 71.1683 133.613 71.1683 133.613 71.1683C133.613 71.1683 133.613 71.1683 133.613 71.1684C133.613 71.1684 133.613 71.1685 133.612 71.1686C133.612 71.1688 133.611 71.1692 133.61 71.1696C133.607 71.1705 133.604 71.1719 133.599 71.1737C133.589 71.1773 133.574 71.1827 133.555 71.1898C133.517 71.2039 133.46 71.2247 133.387 71.2512C133.242 71.3042 133.031 71.3799 132.772 71.4709C132.254 71.6529 131.544 71.8954 130.773 72.1378C130.001 72.3804 129.172 72.6218 128.417 72.8023C127.655 72.9843 126.991 73.0986 126.539 73.0986V73.6986C127.066 73.6986 127.788 73.5693 128.556 73.3859C129.331 73.2009 130.174 72.955 130.953 72.7102C131.732 72.4653 132.449 72.2205 132.971 72.037C133.232 71.9452 133.445 71.8687 133.592 71.8151C133.666 71.7882 133.724 71.7672 133.763 71.7527C133.782 71.7455 133.797 71.74 133.807 71.7362C133.812 71.7343 133.816 71.7329 133.819 71.7319C133.82 71.7314 133.821 71.7311 133.822 71.7308C133.822 71.7307 133.823 71.7306 133.823 71.7305C133.823 71.7305 133.823 71.7305 133.823 71.7304C133.823 71.7304 133.823 71.7304 133.718 71.4494ZM139.499 76.7815L133.93 71.2368L133.506 71.662L139.076 77.2067L139.499 76.7815ZM136.286 82.1426C136.992 82.2429 137.555 81.9084 137.981 81.4221C138.401 80.9414 138.715 80.2843 138.947 79.6439C139.181 78.9988 139.34 78.3468 139.44 77.8584C139.491 77.6135 139.527 77.4084 139.55 77.264C139.562 77.1918 139.571 77.1347 139.576 77.0953C139.579 77.0756 139.581 77.0603 139.583 77.0498C139.583 77.0446 139.584 77.0405 139.584 77.0376C139.585 77.0362 139.585 77.0351 139.585 77.0343C139.585 77.0339 139.585 77.0336 139.585 77.0333C139.585 77.0332 139.585 77.0331 139.585 77.033C139.585 77.0329 139.585 77.0329 139.288 76.9941C138.99 76.9553 138.99 76.9553 138.99 76.9553C138.99 76.9553 138.99 76.9553 138.99 76.9553C138.99 76.9554 138.99 76.9555 138.99 76.9558C138.99 76.9562 138.99 76.957 138.99 76.958C138.989 76.9602 138.989 76.9635 138.988 76.968C138.987 76.9771 138.985 76.9909 138.983 77.009C138.977 77.0453 138.969 77.0991 138.958 77.1677C138.936 77.3052 138.901 77.5019 138.853 77.7373C138.755 78.2093 138.603 78.831 138.383 79.4395C138.161 80.0525 137.877 80.6286 137.529 81.0271C137.185 81.4199 136.808 81.6107 136.371 81.5486L136.286 82.1426ZM134.15 81.4969C134.701 81.7223 135.426 82.0202 136.286 82.1426L136.371 81.5486C135.593 81.4379 134.931 81.1683 134.377 80.9416L134.15 81.4969ZM133.039 81.8456C133.039 81.5458 133.073 81.3757 133.113 81.2847C133.144 81.215 133.167 81.2108 133.189 81.2064C133.242 81.196 133.342 81.2029 133.521 81.2577C133.694 81.3107 133.899 81.3942 134.15 81.4969L134.377 80.9416C134.134 80.8423 133.902 80.7467 133.696 80.684C133.497 80.6231 133.278 80.5773 133.073 80.6178C132.837 80.6642 132.665 80.8142 132.564 81.0423C132.473 81.2491 132.439 81.5203 132.439 81.8456H133.039ZM133.177 83.2712C133.105 82.7542 133.039 82.2722 133.039 81.8456H132.439C132.439 82.3219 132.513 82.8475 132.583 83.3538L133.177 83.2712ZM131.14 87.3419C131.743 87.2752 132.209 87.1028 132.555 86.8297C132.905 86.5542 133.109 86.1952 133.218 85.8009C133.428 85.039 133.292 84.0995 133.177 83.2712L132.583 83.3538C132.704 84.2228 132.81 85.0241 132.639 85.641C132.558 85.9362 132.415 86.1762 132.184 86.3584C131.95 86.5431 131.6 86.6873 131.074 86.7455L131.14 87.3419ZM108.591 92.2418C108.663 92.5329 108.663 92.5329 108.663 92.5328C108.663 92.5328 108.664 92.5328 108.664 92.5327C108.664 92.5325 108.665 92.5323 108.667 92.532C108.669 92.5314 108.672 92.5305 108.677 92.5294C108.687 92.527 108.701 92.5235 108.719 92.5189C108.756 92.5097 108.811 92.496 108.883 92.4781C109.028 92.4424 109.239 92.3899 109.51 92.323C110.051 92.1891 110.827 91.9975 111.767 91.7666C113.648 91.3048 116.187 90.6856 118.817 90.0563C121.448 89.427 124.169 88.7878 126.416 88.2857C128.671 87.7817 130.426 87.4208 131.14 87.3419L131.074 86.7455C130.32 86.829 128.527 87.1991 126.285 87.7002C124.034 88.2032 121.309 88.8432 118.678 89.4728C116.046 90.1024 113.506 90.7219 111.624 91.1839C110.683 91.4149 109.907 91.6066 109.366 91.7405C109.095 91.8075 108.883 91.86 108.739 91.8958C108.667 91.9137 108.612 91.9274 108.574 91.9367C108.556 91.9413 108.542 91.9448 108.532 91.9471C108.528 91.9483 108.524 91.9492 108.522 91.9498C108.521 91.9501 108.52 91.9503 108.519 91.9504C108.519 91.9505 108.518 91.9506 108.518 91.9506C108.518 91.9506 108.518 91.9507 108.591 92.2418ZM98.9177 78.6794L108.343 92.4116L108.838 92.072L99.4124 78.3398L98.9177 78.6794ZM97.5092 96.5186C97.6721 96.4535 97.8017 96.3317 97.9053 96.1943C98.0099 96.0555 98.1011 95.8835 98.1823 95.69C98.3446 95.3034 98.4827 94.7927 98.602 94.1952C98.8412 92.9976 99.0152 91.399 99.1416 89.6256C99.3947 86.076 99.46 81.7854 99.465 78.5101L98.865 78.5091C98.86 81.7809 98.7947 86.0546 98.5431 89.583C98.4173 91.3486 98.2454 92.9174 98.0137 94.0777C97.8975 94.6591 97.7688 95.125 97.6291 95.4578C97.5593 95.6241 97.4907 95.7475 97.4262 95.833C97.3607 95.9199 97.3119 95.9513 97.2865 95.9614L97.5092 96.5186ZM96.2447 96.9645C96.6309 96.8381 97.0648 96.6962 97.5092 96.5186L97.2865 95.9614C96.8626 96.1309 96.4463 96.2672 96.0581 96.3942L96.2447 96.9645ZM95.4203 98.8516C95.0359 98.4689 94.8347 98.1901 94.7503 97.9885C94.6741 97.8064 94.7026 97.7177 94.75 97.6501C94.8183 97.5526 94.9689 97.4442 95.2441 97.3228C95.5119 97.2046 95.8488 97.094 96.2447 96.9645L96.0581 96.3942C95.6713 96.5208 95.3028 96.641 95.0018 96.7738C94.7082 96.9034 94.4266 97.0662 94.2587 97.3056C94.0699 97.5749 94.0581 97.8886 94.1968 98.2201C94.3274 98.5322 94.5965 98.8781 94.9969 99.2768L95.4203 98.8516ZM95.6307 99.0608L95.4201 98.8514L94.9971 99.2769L95.2077 99.4863L95.6307 99.0608ZM97.6662 103.926C97.8951 103.467 98.0082 103.038 98.0048 102.619C98.0014 102.198 97.8811 101.809 97.6766 101.431C97.2777 100.693 96.5306 99.955 95.6306 99.0607L95.2077 99.4864C96.1338 100.406 96.8019 101.075 97.1488 101.716C97.3171 102.027 97.4024 102.321 97.4048 102.624C97.4072 102.928 97.3265 103.263 97.1294 103.658L97.6662 103.926ZM90.6399 114.334C90.8892 114.501 90.8892 114.5 90.8893 114.5C90.8893 114.5 90.8894 114.5 90.8895 114.5C90.8897 114.5 90.8899 114.499 90.8903 114.499C90.891 114.498 90.8921 114.496 90.8935 114.494C90.8963 114.49 90.9006 114.484 90.9062 114.475C90.9173 114.459 90.9339 114.434 90.9555 114.401C90.9988 114.337 91.0624 114.241 91.1436 114.12C91.3061 113.876 91.5391 113.527 91.8215 113.101C92.3862 112.251 93.1485 111.099 93.9385 109.891C95.5116 107.485 97.2143 104.831 97.6662 103.926L97.1294 103.658C96.6974 104.523 95.0212 107.139 93.4363 109.562C92.6474 110.769 91.8859 111.92 91.3217 112.769C91.0395 113.194 90.8068 113.544 90.6445 113.787C90.5634 113.908 90.4999 114.003 90.4567 114.068C90.4351 114.1 90.4186 114.125 90.4075 114.142C90.4019 114.15 90.3977 114.156 90.3949 114.16C90.3935 114.162 90.3924 114.164 90.3917 114.165C90.3914 114.166 90.3911 114.166 90.3909 114.166C90.3908 114.166 90.3908 114.167 90.3907 114.167C90.3907 114.167 90.3907 114.167 90.6399 114.334Z" fill="#000F3E" mask="url(#path-17-inside-1_199_153)"/>
    <path d="M84.0848 52.791C89.8363 52.791 94.4989 48.1491 94.4989 42.4231C94.4989 36.6971 89.8363 32.0553 84.0848 32.0553C78.3332 32.0553 73.6707 36.6971 73.6707 42.4231C73.6707 48.1491 78.3332 52.791 84.0848 52.791Z" fill="#FBB9B9"/>
    <path d="M95.4503 40.8578C94.2261 42.3332 92.4048 42.2562 90.7854 42.021C90.2742 41.9483 89.763 41.8671 89.2519 41.773C89.1617 41.4865 89.0586 41.2 88.9426 40.922C88.4634 39.7613 87.7465 38.7127 86.8378 37.8429C86.9335 38.98 86.845 40.125 86.5758 41.2342C85.6265 41.0161 84.6815 40.7723 83.7407 40.5029C82.9084 40.3682 82.1599 39.9202 81.6498 39.2517C81.1398 38.5832 80.9072 37.7451 81.0002 36.9107C79.6471 37.937 78.1737 38.8265 76.6273 38.8436C75.7557 38.8211 74.9142 38.5212 74.2262 37.9879C73.5382 37.4546 73.0399 36.7159 72.8044 35.8801C72.3834 34.5971 72.4478 33.1175 72.6196 31.7319C72.8258 30.0855 73.2897 28.2765 74.4066 27.6137C75.3043 27.0749 76.3396 27.4597 77.2631 27.8959C79.2978 28.8681 81.2266 30.046 83.0191 31.4112L83.0406 31.8602C83.5045 29.6493 85.038 27.943 86.7089 27.7719C87.8344 27.6607 88.934 28.1782 89.995 28.6999C91.3818 29.309 92.6713 30.1173 93.8223 31.099C95.1227 32.2766 96.0259 33.8255 96.4082 35.5337C96.8077 37.3854 96.507 39.5835 95.4503 40.8578Z" fill="#000F3E"/>
    <path d="M85.1381 26.4694C85.2449 26.4783 84.9826 26.4184 85.0678 26.454C85.026 26.435 84.9858 26.4126 84.9477 26.3871C84.9411 26.383 84.8565 26.3149 84.9119 26.3623C84.7845 26.2636 84.6885 26.1302 84.6356 25.9784C84.5173 25.6094 84.4622 25.2232 84.4727 24.8361C84.4939 24.3272 84.4067 23.8197 84.2169 23.3467C84.1607 23.2187 84.0749 23.1056 83.9665 23.0167C83.8581 22.9279 83.7302 22.8657 83.5932 22.8353C83.4561 22.8049 83.3138 22.807 83.1778 22.8416C83.0417 22.8762 82.9158 22.9423 82.8102 23.0344C82.4587 23.3776 82.4309 23.9573 82.406 24.4183C82.3792 24.897 82.4301 25.3769 82.5568 25.8394C82.7748 26.5999 83.2103 27.2809 83.8102 27.7993C84.503 28.4034 85.373 28.7691 86.2911 28.842C86.4173 28.8392 86.5399 28.7999 86.644 28.729C86.7481 28.658 86.8293 28.5584 86.8775 28.4424C86.9258 28.3263 86.9392 28.1988 86.916 28.0753C86.8927 27.9518 86.8339 27.8378 86.7467 27.747L85.5937 26.6573C85.4729 26.537 85.309 26.4694 85.1381 26.4694C84.9672 26.4694 84.8033 26.537 84.6825 26.6573C84.5617 26.7776 84.4938 26.9407 84.4938 27.1108C84.4938 27.281 84.5617 27.4441 84.6825 27.5644L85.8355 28.6541L86.2911 27.5591C86.1008 27.542 85.9131 27.5038 85.7313 27.4452C85.5342 27.3907 85.3459 27.3085 85.1721 27.2012C85.0017 27.1083 84.842 26.9972 84.6959 26.8698C84.6023 26.788 84.5131 26.7015 84.4283 26.6107C84.3976 26.5776 84.3674 26.5441 84.3379 26.5099C84.34 26.5124 84.2166 26.3581 84.2696 26.4287C84.1363 26.2472 84.0204 26.0537 83.9231 25.8508C83.8889 25.7789 83.8606 25.7044 83.8386 25.6279C83.7978 25.5021 83.7644 25.374 83.7387 25.2444C83.6896 24.9719 83.6748 24.6945 83.6946 24.4184C83.7002 24.3013 83.7119 24.1846 83.7297 24.0687C83.7459 24.0076 83.758 23.9454 83.7657 23.8827C83.768 23.727 83.7443 23.9659 83.6628 24.0022L83.3376 24.0897C83.2846 24.0855 83.2333 24.0693 83.1874 24.0426C83.1416 24.0159 83.1023 23.9792 83.0726 23.9353C83.0591 23.8818 83.0629 23.8913 83.0841 23.9638C83.1085 24.049 83.1275 24.1356 83.1408 24.2231C83.1656 24.4266 83.1801 24.6312 83.184 24.8361C83.1881 25.2702 83.2388 25.7027 83.3351 26.1262C83.4254 26.5517 83.6483 26.938 83.972 27.23C84.2958 27.522 84.7039 27.7048 85.1381 27.7523C85.3086 27.751 85.4716 27.683 85.5922 27.563C85.7127 27.443 85.7811 27.2806 85.7824 27.1109C85.7791 26.9418 85.7101 26.7806 85.59 26.661C85.4699 26.5414 85.308 26.4728 85.1381 26.4694Z" fill="#000F3E"/>
    <path d="M138.46 68.0361L138.468 68.0577C138.569 68.3423 138.78 68.5753 139.054 68.7056C139.328 68.8358 139.643 68.8525 139.93 68.752L138.46 68.0361ZM138.46 68.0361L138.446 68.0177M138.46 68.0361L138.446 68.0177M138.446 68.0177C134.92 63.3478 132.885 58.1314 132.818 52.1857L132.818 52.1607M138.446 68.0177L132.818 52.1607M132.818 52.1607L132.81 52.1373M132.818 52.1607L132.81 52.1373M132.81 52.1373C132.709 51.8525 132.726 51.5396 132.856 51.2671M132.81 52.1373L132.856 51.2671M132.856 51.2671C132.987 50.9945 133.221 50.7845 133.507 50.6833M132.856 51.2671L133.507 50.6833M133.507 50.6833C133.507 50.6833 133.507 50.6833 133.507 50.6833M133.507 50.6833L133.507 50.6833M133.507 50.6833L145.584 46.4291L133.507 50.6833ZM146.46 46.4755C146.186 46.3453 145.871 46.3285 145.584 46.429L146.46 46.4755ZM146.46 46.4755C146.734 46.6057 146.944 46.8387 147.046 47.1232M146.46 46.4755L147.046 47.1232M147.046 47.1232L147.046 47.1233M147.046 47.1232L147.046 47.1233M147.046 47.1233L152.704 63.0438C152.805 63.3285 152.788 63.6415 152.658 63.914C152.527 64.1865 152.293 64.3965 152.007 64.4977L147.046 47.1233ZM152.007 64.4977L139.93 68.752L152.007 64.4977Z" fill="#FFE8BE" stroke="#000F3E" stroke-width="0.3"/>
    <path d="M146.71 55.908L138.625 58.7813C138.496 58.827 138.355 58.82 138.231 58.7617C138.108 58.7035 138.013 58.5988 137.967 58.4707C137.921 58.3426 137.928 58.2016 137.986 58.0787C138.045 57.9558 138.15 57.8611 138.279 57.8153L146.364 54.9421C146.428 54.9194 146.495 54.9095 146.563 54.9129C146.63 54.9162 146.697 54.9328 146.758 54.9616C146.819 54.9905 146.874 55.031 146.919 55.0809C146.964 55.1309 146.999 55.1892 147.022 55.2527C147.045 55.3161 147.055 55.3833 147.052 55.4506C147.048 55.5179 147.032 55.5838 147.003 55.6447C146.974 55.7055 146.933 55.7601 146.883 55.8053C146.833 55.8505 146.774 55.8854 146.71 55.908Z" fill="#FFD699"/>
    <path d="M139.452 55.5005L137.673 56.1326C137.609 56.1553 137.542 56.1653 137.474 56.162C137.407 56.1588 137.34 56.1423 137.279 56.1135C137.218 56.0847 137.163 56.0443 137.118 55.9944C137.072 55.9445 137.037 55.8862 137.014 55.8228C136.991 55.7594 136.981 55.6922 136.985 55.6249C136.988 55.5576 137.004 55.4917 137.033 55.4308C137.062 55.3699 137.103 55.3153 137.153 55.27C137.203 55.2248 137.262 55.1898 137.325 55.1671L137.327 55.1667L139.105 54.5345C139.234 54.489 139.375 54.4961 139.499 54.5544C139.622 54.6127 139.717 54.7173 139.763 54.8453C139.809 54.9733 139.802 55.1142 139.744 55.2371C139.685 55.3599 139.58 55.4547 139.452 55.5005Z" fill="#FFD699"/>
    <path d="M148.234 60.1544L140.149 63.0277C140.02 63.0736 139.878 63.0667 139.755 63.0086C139.631 62.9505 139.536 62.8459 139.49 62.7179C139.444 62.5899 139.451 62.4489 139.509 62.3259C139.568 62.2029 139.673 62.108 139.801 62.0622L139.802 62.0618L147.888 59.1885C148.016 59.1429 148.158 59.1501 148.281 59.2083C148.404 59.2666 148.5 59.3712 148.545 59.4992C148.591 59.6272 148.584 59.7681 148.526 59.891C148.467 60.0138 148.362 60.1086 148.234 60.1544Z" fill="#FFD699"/>
    <path d="M147.471 58.0313L139.385 60.9045C139.322 60.9272 139.254 60.9372 139.186 60.934C139.119 60.9307 139.053 60.9142 138.991 60.8854C138.93 60.8567 138.875 60.8162 138.83 60.7663C138.784 60.7164 138.749 60.6581 138.727 60.5947C138.704 60.5313 138.694 60.4641 138.697 60.3968C138.7 60.3296 138.717 60.2636 138.746 60.2027C138.775 60.1418 138.815 60.0872 138.865 60.0419C138.915 59.9967 138.974 59.9617 139.038 59.939L139.039 59.9386L147.124 57.0653C147.188 57.0426 147.255 57.0326 147.323 57.0359C147.391 57.0392 147.457 57.0557 147.518 57.0844C147.579 57.1132 147.634 57.1537 147.679 57.2035C147.725 57.2534 147.76 57.3117 147.783 57.3751C147.806 57.4385 147.816 57.5058 147.812 57.573C147.809 57.6403 147.793 57.7063 147.764 57.7672C147.735 57.828 147.694 57.8827 147.644 57.9279C147.594 57.9732 147.535 58.0081 147.472 58.0309L147.471 58.0313Z" fill="#FFD699"/>
    <path d="M139.171 50.8565C140.439 50.8565 141.468 49.8327 141.468 48.5683C141.468 47.3039 140.439 46.2801 139.171 46.2801C137.902 46.2801 136.873 47.3039 136.873 48.5683C136.873 49.8327 137.902 50.8565 139.171 50.8565Z" fill="white" stroke="#000F3E" stroke-width="0.3"/>
    <path d="M33.2464 13.6838L33.2319 13.7017C33.0413 13.9368 32.9523 14.2374 32.9841 14.5376C33.0159 14.8378 33.1661 15.1133 33.4018 15.3036L33.2464 13.6838ZM33.2464 13.6838L33.2549 13.6625C35.4078 8.2274 38.8089 3.77199 43.8643 0.604892L43.8853 0.59173L43.9009 0.572506C44.0921 0.337832 44.3691 0.188073 44.6712 0.156316C44.9733 0.124564 45.2756 0.213402 45.5119 0.403172C45.5119 0.403207 45.5119 0.403242 45.512 0.403277L55.4716 8.42491L33.2464 13.6838ZM43.3615 23.3254L33.4019 15.3037L55.4718 8.42502C55.7075 8.61537 55.8576 8.89088 55.8894 9.19103C55.9213 9.49121 55.8322 9.79179 55.6417 10.0269C55.6416 10.0269 55.6416 10.0269 55.6416 10.0269L44.9726 23.1561C44.7814 23.3908 44.5045 23.5406 44.2023 23.5723C43.9002 23.6041 43.5978 23.5152 43.3615 23.3254Z" fill="#FFE8BE" stroke="#000F3E" stroke-width="0.3"/>
    <path d="M47.948 14.3393L41.2588 8.98214C41.1527 8.89677 41.085 8.77301 41.0704 8.638C41.0559 8.50298 41.0958 8.36774 41.1812 8.26194C41.2667 8.15614 41.3909 8.08841 41.5265 8.07361C41.6621 8.05881 41.798 8.09816 41.9045 8.183L48.5938 13.5402C48.6998 13.6256 48.7675 13.7493 48.7821 13.8843C48.7966 14.0193 48.7567 14.1545 48.6712 14.2603C48.5858 14.3661 48.4616 14.4338 48.3261 14.4486C48.1905 14.4634 48.0546 14.4241 47.9481 14.3393L47.948 14.3393Z" fill="#FFD699"/>
    <path d="M44.5003 7.96986L43.0286 6.79127C42.9227 6.70584 42.8552 6.58211 42.8407 6.44718C42.8263 6.31225 42.8661 6.17712 42.9516 6.07139C43.037 5.96566 43.161 5.89795 43.2965 5.88309C43.432 5.86823 43.5679 5.90744 43.6744 5.99212L45.146 7.17071C45.252 7.25611 45.3196 7.37986 45.3341 7.51482C45.3486 7.64978 45.3087 7.78495 45.2233 7.89071C45.1378 7.99647 45.0137 8.06418 44.8782 8.07902C44.7427 8.09386 44.6068 8.0546 44.5003 7.96986L44.5003 7.96986Z" fill="#FFD699"/>
    <path d="M45.1062 17.8525L38.4169 12.4954C38.3108 12.41 38.2431 12.2862 38.2286 12.1512C38.214 12.0162 38.2539 11.8809 38.3394 11.7751C38.4249 11.6693 38.549 11.6016 38.6846 11.5868C38.8202 11.572 38.9562 11.6113 39.0626 11.6962L45.7519 17.0534C45.8578 17.1388 45.9254 17.2625 45.9399 17.3975C45.9543 17.5324 45.9144 17.6675 45.829 17.7732C45.7436 17.879 45.6195 17.9467 45.4841 17.9615C45.3486 17.9764 45.2127 17.9372 45.1062 17.8525H45.1062Z" fill="#FFD699"/>
    <path d="M46.5257 16.0961L39.8365 10.7389C39.7836 10.6969 39.7397 10.6449 39.707 10.5859C39.6744 10.5269 39.6538 10.4621 39.6463 10.3951C39.6312 10.26 39.6707 10.1244 39.756 10.0181C39.8413 9.91194 39.9656 9.84384 40.1013 9.82882C40.2371 9.8138 40.3733 9.85309 40.48 9.93806L40.4822 9.93979L47.1714 15.297C47.2781 15.3819 47.3465 15.5056 47.3616 15.6408C47.3767 15.776 47.3372 15.9116 47.2519 16.0178C47.1665 16.124 47.0423 16.1921 46.9065 16.2071C46.7708 16.2221 46.6346 16.1828 46.5279 16.0979L46.5257 16.0961V16.0961Z" fill="#FFD699"/>
    <path d="M50.2869 6.39312C51.5553 6.39312 52.5847 5.36927 52.5847 4.1049C52.5847 2.84052 51.5553 1.81667 50.2869 1.81667C49.0185 1.81667 47.9892 2.84052 47.9892 4.1049C47.9892 5.36927 49.0185 6.39312 50.2869 6.39312Z" fill="white" stroke="#000F3E" stroke-width="0.3"/>
    <path d="M8.61217 77.4603L8.6199 77.4819C8.77644 77.9208 9.10153 78.2802 9.52408 78.4809C9.94665 78.6817 10.432 78.7075 10.8737 78.5525L28.7375 72.2598L8.61217 77.4603ZM8.61217 77.4603L8.59832 77.4419M8.61217 77.4603L8.59832 77.4419M8.59832 77.4419C3.37398 70.5238 0.357961 62.7934 0.259097 53.9815L0.258817 53.9566M8.59832 77.4419L0.258817 53.9566M0.258817 53.9566L0.250502 53.9331M0.258817 53.9566L0.250502 53.9331M0.250502 53.9331C0.0949662 53.4939 0.120768 53.0112 0.322284 52.5909M0.250502 53.9331L0.322284 52.5909M0.322284 52.5909C0.523787 52.1706 0.884613 51.8468 1.32581 51.6908L0.322284 52.5909ZM19.1898 45.3981L1.32596 51.6908L19.1898 45.3981ZM19.1898 45.3981C19.1898 45.3981 19.1899 45.3981 19.1899 45.3981M19.1898 45.3981L19.1899 45.3981M19.1899 45.3981C19.6315 45.2431 20.1169 45.2688 20.5394 45.4696C20.9619 45.6704 21.287 46.0297 21.4435 46.4685L19.1899 45.3981ZM21.4436 46.4686L29.813 70.0174C29.9685 70.4567 29.9427 70.9393 29.7412 71.3597C29.5397 71.78 29.1789 72.1038 28.7377 72.2598L21.4436 46.4686Z" fill="#FFE8BE" stroke="#000F3E" stroke-width="0.3"/>
    <path d="M20.8832 59.4865L8.92386 63.7364C8.82955 63.7702 8.72947 63.7852 8.62933 63.7804C8.5292 63.7757 8.43099 63.7513 8.34034 63.7087C8.24968 63.6661 8.16837 63.6061 8.10105 63.5322C8.03373 63.4582 7.98173 63.3718 7.94803 63.2778C7.91433 63.1838 7.89959 63.0841 7.90466 62.9844C7.90973 62.8847 7.93451 62.787 7.97757 62.6969C8.02064 62.6068 8.08114 62.526 8.15562 62.4592C8.2301 62.3924 8.31708 62.3409 8.4116 62.3076L20.371 58.0577C20.4652 58.0242 20.5651 58.0095 20.665 58.0145C20.765 58.0195 20.8629 58.044 20.9534 58.0866C21.0438 58.1293 21.1249 58.1892 21.192 58.2631C21.2591 58.337 21.311 58.4233 21.3447 58.5171C21.3783 58.6109 21.393 58.7104 21.388 58.8099C21.3831 58.9094 21.3584 59.0069 21.3156 59.0969C21.2727 59.1869 21.2125 59.2677 21.1383 59.3345C21.0641 59.4013 20.9775 59.453 20.8832 59.4865Z" fill="#FFD699"/>
    <path d="M10.1501 58.8835L7.51905 59.8185C7.3289 59.8854 7.11986 59.8746 6.93773 59.7883C6.75561 59.7021 6.61526 59.5475 6.54746 59.3584C6.47966 59.1693 6.48993 58.9611 6.57603 58.7796C6.66213 58.598 6.81704 58.4578 7.00678 58.3898L9.63782 57.4548C9.82797 57.3878 10.037 57.3987 10.2191 57.4849C10.4013 57.5712 10.5416 57.7258 10.6094 57.9149C10.6772 58.104 10.6669 58.3121 10.5808 58.4937C10.4947 58.6753 10.3398 58.8155 10.1501 58.8835Z" fill="#FFD699"/>
    <path d="M23.1362 65.7676L11.1768 70.0175C10.9865 70.0852 10.777 70.0748 10.5944 69.9886C10.4118 69.9025 10.271 69.7476 10.2031 69.5581C10.1352 69.3687 10.1456 69.1601 10.2321 68.9783C10.3187 68.7965 10.4742 68.6564 10.6645 68.5888L22.6239 64.3388C22.7181 64.3053 22.8181 64.2907 22.918 64.2956C23.0179 64.3006 23.1159 64.3251 23.2063 64.3678C23.2967 64.4104 23.3778 64.4704 23.445 64.5442C23.5121 64.6181 23.564 64.7044 23.5976 64.7982C23.6312 64.892 23.646 64.9915 23.641 65.091C23.636 65.1905 23.6114 65.288 23.5685 65.378C23.5257 65.4681 23.4655 65.5488 23.3913 65.6156C23.3171 65.6825 23.2304 65.7341 23.1362 65.7676Z" fill="#FFD699"/>
    <path d="M22.0106 62.6271L10.0513 66.877C9.95702 66.9105 9.85709 66.9252 9.75716 66.9202C9.65723 66.9152 9.55926 66.8907 9.46884 66.8481C9.37842 66.8054 9.29733 66.7454 9.23019 66.6716C9.16306 66.5977 9.11119 66.5114 9.07755 66.4176C9.04392 66.3238 9.02916 66.2243 9.03415 66.1248C9.03913 66.0253 9.06375 65.9278 9.1066 65.8378C9.14945 65.7478 9.20969 65.667 9.28387 65.6002C9.35806 65.5334 9.44475 65.4817 9.53899 65.4482L21.4984 61.1983C21.5926 61.1648 21.6925 61.1502 21.7925 61.1551C21.8924 61.1601 21.9904 61.1846 22.0808 61.2272C22.1712 61.2699 22.2523 61.3299 22.3194 61.4037C22.3866 61.4776 22.4384 61.5639 22.4721 61.6577C22.5057 61.7515 22.5204 61.851 22.5155 61.9505C22.5105 62.05 22.4858 62.1475 22.443 62.2375C22.4002 62.3276 22.3399 62.4083 22.2657 62.4751C22.1915 62.542 22.1049 62.5936 22.0106 62.6271Z" fill="#FFD699"/>
    <path d="M9.73379 51.9426C11.5705 51.9426 13.0606 50.4601 13.0606 48.6299C13.0606 46.7997 11.5705 45.3172 9.73379 45.3172C7.89706 45.3172 6.40695 46.7997 6.40695 48.6299C6.40695 50.4601 7.89706 51.9426 9.73379 51.9426Z" fill="white" stroke="#000F3E" stroke-width="0.3"/>
    <path d="M158.532 95.9404C158.741 95.116 157.947 94.2041 156.756 93.9038C155.566 93.6034 154.431 94.0283 154.221 94.8528C154.011 95.6772 154.806 96.5891 155.996 96.8894C157.187 97.1897 158.322 96.7649 158.532 95.9404Z" fill="white"/>
    <path d="M143.995 95.847C144.205 95.0226 143.41 94.1108 142.219 93.8104C141.029 93.5101 139.894 93.935 139.684 94.7594C139.474 95.5839 140.269 96.4957 141.459 96.796C142.65 97.0964 143.785 96.6715 143.995 95.847Z" fill="#3F3D56"/>
    <path d="M161.258 107.948C161.468 107.124 160.673 106.212 159.483 105.911C158.293 105.611 157.157 106.036 156.948 106.86C156.738 107.685 157.533 108.597 158.723 108.897C159.913 109.197 161.049 108.772 161.258 107.948Z" fill="#FF6584"/>
    <path d="M164.65 112.476C164.736 111.708 164.371 111.037 163.834 110.977C163.298 110.918 162.793 111.492 162.707 112.26C162.62 113.028 162.986 113.698 163.522 113.758C164.059 113.818 164.564 113.244 164.65 112.476Z" fill="#E6E6E6"/>
    <path d="M165.844 121.545C165.93 120.777 165.565 120.106 165.028 120.046C164.492 119.987 163.987 120.561 163.901 121.329C163.815 122.097 164.18 122.768 164.716 122.827C165.253 122.887 165.758 122.313 165.844 121.545Z" fill="#3F3D56"/>
    <path d="M150.98 104.262C151.067 103.494 150.701 102.823 150.165 102.763C149.628 102.703 149.123 103.277 149.037 104.045C148.951 104.813 149.316 105.484 149.853 105.544C150.389 105.604 150.894 105.029 150.98 104.262Z" fill="#E6E6E6"/>
    <path d="M158.297 101.525C158.383 100.757 158.018 100.086 157.482 100.027C156.945 99.9668 156.44 100.541 156.354 101.309C156.268 102.077 156.633 102.748 157.169 102.807C157.706 102.867 158.211 102.293 158.297 101.525Z" fill="#FF6584"/>
    <path d="M149.284 94.1326C149.371 93.3647 149.005 92.6938 148.469 92.6341C147.932 92.5744 147.427 93.1485 147.341 93.9164C147.255 94.6844 147.62 95.3553 148.157 95.415C148.693 95.4747 149.198 94.9005 149.284 94.1326Z" fill="#3F3D56"/>
    <path d="M22.7922 90.8086C23.0021 89.9841 22.2072 89.0723 21.0167 88.772C19.8263 88.4716 18.6911 88.8965 18.4813 89.721C18.2714 90.5454 19.0663 91.4572 20.2567 91.7576C21.4472 92.0579 22.5823 91.633 22.7922 90.8086Z" fill="white"/>
    <path d="M8.25554 90.7152C8.46541 89.8907 7.6705 88.9789 6.48006 88.6786C5.28961 88.3782 4.15444 88.8031 3.94457 89.6275C3.73471 90.452 4.52962 91.3638 5.72006 91.6642C6.9105 91.9645 8.04567 91.5397 8.25554 90.7152Z" fill="#3F3D56"/>
    <path d="M25.521 102.816C25.7309 101.992 24.936 101.08 23.7456 100.78C22.5551 100.479 21.4199 100.904 21.2101 101.729C21.0002 102.553 21.7951 103.465 22.9856 103.765C24.176 104.065 25.3112 103.641 25.521 102.816Z" fill="#FF6584"/>
    <path d="M28.9107 107.344C28.9969 106.576 28.6318 105.905 28.0952 105.845C27.5586 105.786 27.0538 106.36 26.9676 107.128C26.8814 107.896 27.2465 108.567 27.7831 108.626C28.3197 108.686 28.8246 108.112 28.9107 107.344Z" fill="#E6E6E6"/>
    <path d="M30.1048 116.413C30.191 115.645 29.8259 114.975 29.2893 114.915C28.7527 114.855 28.2479 115.429 28.1617 116.197C28.0755 116.965 28.4406 117.636 28.9772 117.696C29.5138 117.755 30.0186 117.181 30.1048 116.413Z" fill="#3F3D56"/>
    <path d="M15.2429 99.1296C15.3291 98.3616 14.964 97.6907 14.4274 97.631C13.8908 97.5714 13.386 98.1455 13.2998 98.9134C13.2136 99.6813 13.5787 100.352 14.1153 100.412C14.6519 100.472 15.1568 99.8975 15.2429 99.1296Z" fill="#E6E6E6"/>
    <path d="M22.5597 96.3936C22.6459 95.6257 22.2808 94.9548 21.7442 94.8951C21.2076 94.8354 20.7028 95.4095 20.6166 96.1774C20.5304 96.9454 20.8955 97.6163 21.4321 97.676C21.9687 97.7356 22.4735 97.1615 22.5597 96.3936Z" fill="#FF6584"/>
    <path d="M13.5454 89.0009C13.6316 88.233 13.2665 87.5621 12.7299 87.5024C12.1933 87.4427 11.6885 88.0169 11.6023 88.7848C11.5161 89.5527 11.8812 90.2236 12.4178 90.2832C12.9544 90.3429 13.4592 89.7688 13.5454 89.0009Z" fill="#3F3D56"/>
    <path d="M115.693 131.755L115.7 131.777C115.802 132.061 116.013 132.294 116.287 132.424C116.561 132.555 116.876 132.571 117.162 132.471L115.693 131.755ZM115.693 131.755L115.679 131.737M115.693 131.755L115.679 131.737M115.679 131.737C112.152 127.067 110.117 121.85 110.051 115.905L110.051 115.88M115.679 131.737L110.051 115.88M110.051 115.88L110.042 115.856M110.051 115.88L110.042 115.856M110.042 115.856C109.941 115.571 109.958 115.258 110.089 114.986C110.219 114.713 110.453 114.503 110.74 114.402C110.74 114.402 110.74 114.402 110.74 114.402L122.817 110.148C123.103 110.047 123.418 110.064 123.692 110.194L123.756 110.059M110.042 115.856L123.756 110.059M123.756 110.059L123.692 110.194C123.966 110.325 124.177 110.558 124.279 110.842M123.756 110.059L124.279 110.842M124.279 110.842L129.937 126.763C130.038 127.047 130.021 127.36 129.89 127.633C129.76 127.905 129.526 128.115 129.24 128.217L124.279 110.842ZM129.239 128.217L117.162 132.471L129.239 128.217Z" fill="#FFE8BE" stroke="#000F3E" stroke-width="0.3"/>
    <path d="M123.943 119.627L115.857 122.5C115.729 122.546 115.587 122.539 115.464 122.481C115.34 122.422 115.245 122.318 115.199 122.19C115.153 122.061 115.16 121.92 115.219 121.798C115.277 121.675 115.382 121.58 115.511 121.534L123.596 118.661C123.66 118.638 123.728 118.628 123.795 118.632C123.863 118.635 123.929 118.652 123.99 118.681C124.051 118.709 124.106 118.75 124.152 118.8C124.197 118.85 124.232 118.908 124.255 118.972C124.278 119.035 124.287 119.102 124.284 119.169C124.281 119.237 124.264 119.303 124.235 119.364C124.206 119.424 124.165 119.479 124.115 119.524C124.065 119.569 124.007 119.604 123.943 119.627Z" fill="#FFD699"/>
    <path d="M116.688 119.219L114.909 119.851C114.845 119.874 114.778 119.884 114.71 119.881C114.643 119.878 114.576 119.861 114.515 119.832C114.454 119.804 114.399 119.763 114.354 119.713C114.308 119.663 114.273 119.605 114.25 119.542C114.227 119.478 114.217 119.411 114.221 119.344C114.224 119.276 114.241 119.211 114.269 119.15C114.298 119.089 114.339 119.034 114.389 118.989C114.439 118.944 114.498 118.909 114.561 118.886L114.563 118.886L116.341 118.253C116.47 118.208 116.612 118.215 116.735 118.273C116.858 118.332 116.953 118.436 116.999 118.564C117.045 118.692 117.038 118.833 116.98 118.956C116.921 119.079 116.816 119.174 116.688 119.219Z" fill="#FFD699"/>
    <path d="M125.467 123.873L117.381 126.747C117.317 126.769 117.25 126.779 117.182 126.776C117.115 126.773 117.049 126.756 116.987 126.727C116.926 126.699 116.871 126.658 116.826 126.608C116.78 126.558 116.745 126.5 116.723 126.437C116.7 126.373 116.69 126.306 116.693 126.239C116.696 126.172 116.713 126.106 116.742 126.045C116.771 125.984 116.811 125.929 116.861 125.884C116.911 125.839 116.97 125.804 117.034 125.781L117.035 125.781L125.12 122.907C125.249 122.862 125.39 122.869 125.514 122.927C125.637 122.985 125.732 123.09 125.778 123.218C125.824 123.346 125.817 123.487 125.758 123.61C125.7 123.733 125.595 123.827 125.467 123.873Z" fill="#FFD699"/>
    <path d="M124.703 121.75L116.618 124.623C116.554 124.646 116.487 124.656 116.419 124.653C116.351 124.65 116.285 124.633 116.224 124.604C116.163 124.575 116.108 124.535 116.062 124.485C116.017 124.435 115.982 124.377 115.959 124.314C115.936 124.25 115.926 124.183 115.93 124.116C115.933 124.048 115.949 123.982 115.978 123.922C116.007 123.861 116.048 123.806 116.098 123.761C116.148 123.716 116.207 123.681 116.27 123.658L116.271 123.657L124.357 120.784C124.485 120.738 124.627 120.745 124.751 120.803C124.874 120.861 124.969 120.966 125.015 121.094C125.062 121.222 125.055 121.363 124.996 121.486C124.938 121.609 124.833 121.704 124.704 121.75L124.703 121.75Z" fill="#FFD699"/>
    <path d="M118.405 112.287C118.405 113.385 117.511 114.275 116.407 114.275C115.303 114.275 114.409 113.385 114.409 112.287C114.409 111.19 115.303 110.299 116.407 110.299C117.511 110.299 118.405 111.19 118.405 112.287Z" fill="#FEF4F0" stroke="#000F3E" stroke-width="0.3"/>
</svg>
