<svg width="109" height="86" viewBox="0 0 109 86" fill="none" xmlns="http://www.w3.org/2000/svg">
    <g clip-path="url(#clip0_1_2430)">
        <path d="M66.9372 76.383L64.0282 79.0676L66.3401 75.1791C64.5187 71.8682 61.5398 69.0067 61.5398 69.0067C61.5398 69.0067 55.3596 74.9421 55.3596 79.6076C55.3596 84.2732 58.1266 85.9022 61.5398 85.9022C64.9529 85.9022 67.7199 84.2732 67.7199 79.6076C67.7199 78.5692 67.4133 77.4679 66.9372 76.383Z" fill="#F2F2F2"/>
        <path d="M63.28 79.213V79.4429C63.2664 82.1161 62.8167 84.2018 61.9342 85.6704C61.9217 85.692 61.9081 85.7125 61.8956 85.7342L61.7968 85.6738L61.7025 85.6146C62.6815 84.0287 63.0279 81.7871 63.0404 79.4554C63.0415 79.3803 63.0427 79.304 63.0415 79.2278C63.0381 78.2407 62.9779 77.2422 62.8814 76.2723C62.8746 76.1971 62.8666 76.1208 62.8587 76.0446C62.7247 74.7649 62.5316 73.5422 62.334 72.48C62.3204 72.4048 62.3056 72.3297 62.2908 72.2557C61.949 70.4592 61.6003 69.1579 61.5208 68.8699C61.5117 68.8346 61.506 68.8152 61.5049 68.8107L61.6128 68.7799L61.6139 68.7788L61.7229 68.748C61.7241 68.7526 61.7434 68.8175 61.7752 68.9382C61.8967 69.389 62.2125 70.6129 62.5225 72.2272C62.5361 72.3001 62.5509 72.3752 62.5645 72.4504C62.7258 73.3122 62.8837 74.2754 63.0086 75.2863C63.0404 75.5402 63.0688 75.7907 63.0938 76.0377C63.1029 76.114 63.1108 76.1903 63.1176 76.2654C63.2221 77.314 63.2763 78.2965 63.28 79.213Z" fill="white"/>
        <path d="M62.5225 72.2272C62.4464 72.2375 62.3692 72.2477 62.2908 72.2557C62.078 72.2776 61.8642 72.2887 61.6503 72.2887C60.7385 72.2899 59.8381 72.0861 59.0153 71.6921C58.9676 71.7525 58.9199 71.8128 58.8711 71.8743C59.7366 72.2978 60.6872 72.5174 61.6503 72.5164C61.8787 72.5163 62.1069 72.5042 62.334 72.48C62.4112 72.472 62.4884 72.4617 62.5645 72.4504C63.1927 72.3601 63.8035 72.1746 64.376 71.9005C64.3272 71.8379 64.2795 71.7764 64.2329 71.716C63.691 71.9699 63.1147 72.1422 62.5225 72.2272Z" fill="white"/>
        <path d="M63.0938 76.0377C63.0155 76.0422 62.9371 76.0445 62.8587 76.0445C62.8349 76.0457 62.8099 76.0457 62.7861 76.0457C61.7981 76.0457 60.8248 75.8062 59.9491 75.3477C59.0734 74.8892 58.3213 74.2252 57.757 73.4124C57.7115 73.4795 57.6661 73.5467 57.6218 73.615C58.2101 74.4374 58.9853 75.1076 59.8834 75.5699C60.7815 76.0322 61.7765 76.2733 62.7861 76.2734C62.8179 76.2734 62.8497 76.2734 62.8815 76.2722C62.961 76.2711 63.0393 76.2688 63.1177 76.2654C64.3303 76.2031 65.4994 75.7921 66.4852 75.0814C66.4488 75.0142 66.4125 74.947 66.375 74.8799C65.417 75.5776 64.2767 75.98 63.0938 76.0377Z" fill="white"/>
        <path d="M63.2799 79.213C63.2004 79.2198 63.121 79.2244 63.0414 79.2278C62.9563 79.2312 62.8711 79.2335 62.7859 79.2335C61.4584 79.2319 60.167 78.7994 59.1052 78.0006C58.0434 77.2018 57.2683 76.0798 56.8959 74.8025C56.8448 74.8947 56.7937 74.9858 56.7449 75.078C57.1645 76.3524 57.974 77.4618 59.0585 78.2486C60.1429 79.0354 61.4472 79.4597 62.7859 79.4612C62.8711 79.4612 62.9563 79.46 63.0403 79.4555C63.1209 79.4532 63.2004 79.4486 63.2799 79.4429C64.8858 79.317 66.3839 78.5841 67.4708 77.3925C67.447 77.3083 67.4197 77.2252 67.3925 77.1409C66.3426 78.3414 64.8674 79.0846 63.2799 79.213Z" fill="white"/>
        <path d="M14.9088 30.3471C23.1427 30.3471 29.8176 23.6561 29.8176 15.4024C29.8176 7.14863 23.1427 0.457642 14.9088 0.457642C6.6749 0.457642 0 7.14863 0 15.4024C0 23.6561 6.6749 30.3471 14.9088 30.3471Z" fill="#5F5A5A"/>
        <path d="M14.9089 27.8564C21.7705 27.8564 27.3329 22.2806 27.3329 15.4024C27.3329 8.52431 21.7705 2.94849 14.9089 2.94849C8.04728 2.94849 2.48486 8.52431 2.48486 15.4024C2.48486 22.2806 8.04728 27.8564 14.9089 27.8564Z" fill="#A7DA9D"/>
        <path d="M54.5001 30.3471C62.734 30.3471 69.4089 23.6561 69.4089 15.4024C69.4089 7.14863 62.734 0.457642 54.5001 0.457642C46.2662 0.457642 39.5913 7.14863 39.5913 15.4024C39.5913 23.6561 46.2662 30.3471 54.5001 30.3471Z" fill="#5F5A5A"/>
        <path d="M54.4999 27.8564C61.3615 27.8564 66.924 22.2806 66.924 15.4024C66.924 8.52431 61.3615 2.94849 54.4999 2.94849C47.6383 2.94849 42.0759 8.52431 42.0759 15.4024C42.0759 22.2806 47.6383 27.8564 54.4999 27.8564Z" fill="white"/>
        <path d="M94.0912 30.3471C102.325 30.3471 109 23.6561 109 15.4024C109 7.14863 102.325 0.457642 94.0912 0.457642C85.8573 0.457642 79.1824 7.14863 79.1824 15.4024C79.1824 23.6561 85.8573 30.3471 94.0912 30.3471Z" fill="#5F5A5A"/>
        <path d="M94.0912 27.8564C100.953 27.8564 106.515 22.2806 106.515 15.4024C106.515 8.52431 100.953 2.94849 94.0912 2.94849C87.2297 2.94849 81.6672 8.52431 81.6672 15.4024C81.6672 22.2806 87.2297 27.8564 94.0912 27.8564Z" fill="white"/>
        <path d="M13.8531 19.906C13.8309 19.906 13.8086 19.9055 13.7864 19.9044C13.5899 19.8949 13.3978 19.8429 13.2232 19.752C13.0486 19.6611 12.8958 19.5334 12.7751 19.3777L10.8693 16.9215C10.6474 16.6348 10.5479 16.2716 10.5928 15.9116C10.6377 15.5515 10.8232 15.224 11.1087 15.0009L11.1773 14.9474C11.4633 14.725 11.8256 14.6253 12.1848 14.6703C12.544 14.7153 12.8707 14.9013 13.0933 15.1874C13.2007 15.3259 13.3367 15.4394 13.492 15.5203C13.6472 15.6011 13.8181 15.6474 13.9928 15.656C14.1676 15.6645 14.3421 15.6351 14.5045 15.5698C14.6668 15.5044 14.8132 15.4047 14.9335 15.2773L18.8032 11.1826C18.9265 11.0521 19.0743 10.9473 19.238 10.874C19.4018 10.8008 19.5783 10.7606 19.7575 10.7557C19.9368 10.7509 20.1152 10.7815 20.2827 10.8458C20.4501 10.91 20.6033 11.0068 20.7335 11.1304L20.7966 11.1904C21.0595 11.44 21.2127 11.7841 21.2224 12.1469C21.2322 12.5098 21.0978 12.8616 20.8487 13.1251L14.844 19.4786C14.7165 19.6137 14.5628 19.7212 14.3925 19.7947C14.2221 19.8682 14.0386 19.9061 13.8531 19.906Z" fill="white"/>
        <path d="M47.9566 12.3763H38.1436V3.82152C38.1537 3.29182 38.3729 2.78775 38.7531 2.41981C39.1334 2.05186 39.6437 1.85007 40.1721 1.85866H43.434C45.9278 1.85866 47.9566 3.82174 47.9566 6.23467V12.3763Z" fill="#2F2E41"/>
        <path d="M51.5895 83.9626L49.7267 83.9625L48.8403 76.7598L51.5898 76.7599L51.5895 83.9626Z" fill="#FFB6B6"/>
        <path d="M52.0646 85.7728L46.0579 85.7725V85.6964C46.0579 85.0748 46.3042 84.4787 46.7427 84.0392C47.1811 83.5997 47.7758 83.3528 48.3959 83.3528L52.0647 83.3529L52.0646 85.7728Z" fill="#2F2E41"/>
        <path d="M34.4191 83.9626L32.5561 83.9625L31.6699 76.7598L34.4194 76.7599L34.4191 83.9626Z" fill="#FFB6B6"/>
        <path d="M34.8942 85.7728L28.8875 85.7725V85.6964C28.8875 85.0748 29.1338 84.4787 29.5723 84.0392C30.0107 83.5997 30.6054 83.3528 31.2255 83.3528L34.8943 83.3529L34.8942 85.7728Z" fill="#2F2E41"/>
        <path d="M36.6685 26.0972L35.4529 33.8654L47.0011 34.0177L45.4816 26.5542L36.6685 26.0972Z" fill="#FFB6B6"/>
        <path d="M35.788 31.9686L32.1099 41.7859L31.6541 82.4704H34.7691L42.2147 49.7826L49.0525 81.617H52.0916L49.9642 45.8223C49.9642 45.8223 50.5916 38.6379 47.3811 34.3985L46.5996 32.1354L35.788 31.9686Z" fill="#2F2E41"/>
        <path d="M51.5648 39.6217C51.2433 39.5338 50.9449 39.3764 50.6906 39.1604C50.4363 38.9445 50.2324 38.6753 50.0931 38.3718C49.9539 38.0682 49.8827 37.7378 49.8846 37.4038C49.8865 37.0697 49.9615 36.7401 50.1042 36.4382L45.1914 20.3826L48.805 19.6646L53.2983 35.4024C53.7883 35.6764 54.161 36.1211 54.3459 36.6521C54.5307 37.1832 54.5148 37.7638 54.3011 38.2838C54.0874 38.8039 53.6909 39.2274 53.1866 39.4739C52.6822 39.7205 52.1052 39.7731 51.5648 39.6217Z" fill="#FFB6B6"/>
        <path d="M45.0633 30.3872L37.1028 30.2332C36.8752 30.2283 36.6556 30.1488 36.4774 30.0069C36.2992 29.865 36.1724 29.6684 36.1163 29.4473C35.6896 27.7536 34.7506 23.3396 35.2487 18.9432C35.3469 18.0915 35.6146 17.2683 36.0359 16.5221C36.4572 15.776 37.0235 15.1221 37.7012 14.5992C38.379 14.0763 39.1546 13.695 39.982 13.4778C40.8094 13.2606 41.6718 13.212 42.5183 13.3348C43.4112 13.4629 44.267 13.7789 45.0296 14.2619C45.7921 14.7449 46.4442 15.3841 46.943 16.1375C47.4417 16.8909 47.776 17.7415 47.9237 18.6335C48.0715 19.5255 48.0295 20.4387 47.8004 21.3133C46.7983 25.1278 46.2323 27.8567 46.1181 29.4245C46.1012 29.6512 46.0107 29.8661 45.8605 30.0364C45.7103 30.2067 45.5086 30.323 45.2863 30.3676C45.2201 30.3807 45.1529 30.3874 45.0855 30.3875C45.0781 30.3875 45.0707 30.3874 45.0633 30.3872Z" fill="#36662C"/>
        <path d="M20.8824 16.2842C20.9302 16.3917 20.9695 16.5028 20.9999 16.6165L30.9642 20.0106L32.8896 18.3245L35.8079 20.9047L32.6888 24.2217C32.4368 24.4896 32.1049 24.6684 31.7429 24.7312C31.3809 24.794 31.0084 24.7374 30.6812 24.5699L20.0187 19.1104C19.6331 19.3475 19.1847 19.4613 18.733 19.4366C18.2813 19.412 17.8478 19.2501 17.4902 18.9725C17.1325 18.6949 16.8677 18.3147 16.7308 17.8825C16.594 17.4503 16.5917 16.9866 16.7242 16.553C16.8566 16.1195 17.1177 15.7366 17.4725 15.4554C17.8274 15.1742 18.2592 15.0079 18.7106 14.9788C19.162 14.9496 19.6116 15.0588 19.9996 15.292C20.3875 15.5252 20.6954 15.8713 20.8824 16.2842Z" fill="#FFB6B6"/>
        <path d="M30.9849 19.4694C30.9857 19.3318 31.016 19.196 31.0739 19.0713C31.1318 18.9466 31.2159 18.8359 31.3204 18.7467L34.9689 15.6314C35.4306 15.101 36.0833 14.7758 36.7838 14.7272C37.4844 14.6785 38.1756 14.9104 38.7058 15.3719C39.236 15.8334 39.562 16.4869 39.6123 17.189C39.6625 17.8911 39.433 18.5845 38.9739 19.1172L36.3757 23.1728C36.3015 23.2885 36.2034 23.3869 36.0879 23.4612C35.9724 23.5355 35.8422 23.5839 35.7064 23.6032C35.5705 23.6226 35.4321 23.6123 35.3005 23.5732C35.169 23.534 35.0474 23.4669 34.944 23.3765L31.3116 20.1962C31.2082 20.1057 31.1255 19.994 31.0691 19.8685C31.0127 19.7431 30.984 19.6069 30.9849 19.4694Z" fill="#36662C"/>
        <path d="M44.9713 24.4496C44.8498 24.3855 44.7436 24.296 44.6598 24.1871C44.576 24.0781 44.5167 23.9523 44.4858 23.8183L43.4071 19.1373C43.1501 18.4823 43.1628 17.7518 43.4424 17.1062C43.7219 16.4605 44.2454 15.9523 44.8982 15.6931C45.551 15.4338 46.2797 15.4446 46.9245 15.7231C47.5694 16.0016 48.0777 16.525 48.3381 17.1787L50.7331 21.3581C50.8014 21.4774 50.8433 21.61 50.8559 21.747C50.8685 21.884 50.8515 22.022 50.8061 22.1518C50.7606 22.2816 50.6878 22.4001 50.5926 22.4991C50.4974 22.5982 50.3819 22.6755 50.2542 22.7258L45.7653 24.4935C45.6376 24.5439 45.5005 24.566 45.3635 24.5584C45.2265 24.5509 45.0927 24.5137 44.9713 24.4496Z" fill="#36662C"/>
        <path d="M48.833 2.69466C49.2015 1.82971 48.5677 0.729175 47.4172 0.236541C46.2667 -0.256093 45.0352 0.0457235 44.6667 0.910673C44.2981 1.77562 44.9319 2.87617 46.0824 3.3688C47.2329 3.86143 48.4644 3.55961 48.833 2.69466Z" fill="#2F2E41"/>
        <path d="M45.264 9.12394C46.4947 6.86703 45.6673 4.03729 43.4158 2.80355C41.1643 1.56981 38.3414 2.39926 37.1106 4.65617C35.8798 6.91309 36.7073 9.74282 38.9588 10.9766C41.2102 12.2103 44.0332 11.3809 45.264 9.12394Z" fill="#FFB6B6"/>
        <path d="M43.7361 1.55604H38.4218C38.0322 1.55098 37.6551 1.69377 37.3662 1.95575C37.0772 2.21773 36.8977 2.57954 36.8637 2.96863C36.8499 3.17539 36.8787 3.38278 36.9482 3.57795C37.0177 3.77311 37.1264 3.9519 37.2676 4.10322C37.4089 4.25454 37.5796 4.37518 37.7692 4.45766C37.9589 4.54014 38.1634 4.5827 38.3701 4.5827C38.7705 4.5827 39.1545 4.74214 39.4376 5.02595C39.7208 5.30975 39.8798 5.69467 39.8798 6.09604V12.3007H48.1832V6.01381C48.1832 5.42841 48.0681 4.84874 47.8446 4.30789C47.6211 3.76705 47.2936 3.27563 46.8806 2.86169C46.4677 2.44775 45.9774 2.11939 45.4379 1.89536C44.8984 1.67134 44.3201 1.55604 43.7361 1.55604Z" fill="#2F2E41"/>
        <path d="M69.9328 85.9999H12.4134C12.3734 85.9999 12.335 85.984 12.3067 85.9556C12.2784 85.9272 12.2625 85.8887 12.2625 85.8486C12.2625 85.8085 12.2784 85.77 12.3067 85.7416C12.335 85.7132 12.3734 85.6973 12.4134 85.6973H69.9328C69.9729 85.6973 70.0113 85.7132 70.0396 85.7416C70.0679 85.77 70.0838 85.8085 70.0838 85.8486C70.0838 85.8887 70.0679 85.9272 70.0396 85.9556C70.0113 85.984 69.9729 85.9999 69.9328 85.9999Z" fill="#CACACA"/>
    </g>
    <defs>
        <clipPath id="clip0_1_2430">
            <rect width="109" height="86" fill="white"/>
        </clipPath>
    </defs>
</svg>
