<svg width="81" height="129" viewBox="0 0 81 129" fill="none" xmlns="http://www.w3.org/2000/svg">
    <path d="M16.0965 52.4658C16.2501 52.82 16.4999 53.1241 16.8176 53.3436C17.1289 53.5586 17.4932 53.6841 17.8709 53.7063C18.2485 53.7284 18.6251 53.6464 18.9593 53.4693L24.9346 50.3024L22.3693 48.0794L17.3642 49.6757C16.9963 49.7931 16.6687 50.0111 16.4185 50.3052C16.1683 50.5992 16.0055 50.9575 15.9486 51.3394C15.8917 51.7213 15.9429 52.1115 16.0965 52.4658Z" fill="#F7C9C9" stroke="#000F3E" stroke-width="0.3"/>
    <path d="M34.5523 34.423L34.5423 34.4461L34.5253 34.4647L22.1316 48.0291L25.2985 51.7011L39.9314 38.9003L47.4202 24.4755C47.6978 23.9408 47.8491 23.3496 47.8627 22.7473C47.8762 22.145 47.7516 21.5476 47.4983 21.0009C47.245 20.4543 46.8698 19.973 46.4015 19.5939C45.9332 19.2149 45.3843 18.9482 44.7969 18.8143C43.8987 18.6096 42.9572 18.7258 42.1358 19.1428C41.3144 19.5598 40.6649 20.2512 40.3 21.0971L34.5523 34.423Z" fill="#6481F7" stroke="#000F3E" stroke-width="0.3"/>
    <path d="M17.2765 103.407L17.919 102.41H19.1055V101.975H17.6819L16.9106 103.172L17.2765 103.407Z" fill="#2A2745"/>
    <path d="M54.2674 101.437L54.7021 101.425L54.658 99.8789L53.125 100.083L53.1825 100.514L54.2369 100.374L54.2674 101.437Z" fill="#2A2745"/>
    <path d="M54.6014 113.083L55.0361 113.071L54.953 110.159L54.5182 110.171L54.6014 113.083ZM54.4905 109.201L54.9253 109.189L54.8421 106.277L54.4073 106.29L54.4905 109.201ZM54.3796 105.319L54.8144 105.307L54.7312 102.395L54.2964 102.408L54.3796 105.319Z" fill="#2A2745"/>
    <path d="M55.1074 115.587L55.0633 114.041L54.6285 114.053L54.6589 115.116L53.599 115.034L53.5651 115.467L55.1074 115.587Z" fill="#2A2745"/>
    <path d="M12.7768 112.298L12.8105 111.865L11.8727 111.792L12.3823 111.001L12.0164 110.766L11.1123 112.169L12.7768 112.298Z" fill="#2A2745"/>
    <path d="M12.9251 110.158L14.5564 107.626L14.1906 107.391L12.5594 109.922L12.9251 110.158ZM15.1002 106.783L16.7314 104.251L16.3657 104.016L14.7344 106.547L15.1002 106.783Z" fill="#2A2745"/>
    <path d="M6.31281 106.869C6.31281 114.955 12.8674 121.509 20.953 121.509C29.0385 121.509 35.5932 114.955 35.5932 106.869C35.5932 98.7835 29.0385 92.2289 20.953 92.2289C12.8674 92.2289 6.31281 98.7835 6.31281 106.869Z" fill="#6288FF" stroke="#000F3E" stroke-width="0.3"/>
    <mask id="path-10-inside-1_921_68" fill="white">
        <path fill-rule="evenodd" clip-rule="evenodd" d="M15.2696 59.8892C13.796 60.6162 12.1676 60.9966 10.5154 61C8.49128 61 6.51019 60.4316 4.80994 59.3632C3.1097 58.2948 1.76254 56.7717 0.930206 54.9767C0.0978699 53.1818 -0.184273 51.1913 0.117638 49.2442C0.419548 47.2972 1.29269 45.4762 2.63224 44L3.49844 44.7443C2.66119 45.667 2.0249 46.7453 1.62803 47.9139C1.23116 49.0825 1.08192 50.3173 1.18936 51.5437C1.29678 52.77 1.65864 53.9624 2.25307 55.0489C2.8475 56.1353 3.66216 57.0933 4.64783 57.8648C5.6335 58.6364 6.76972 59.2056 7.98785 59.538C9.20598 59.8704 10.4807 59.9591 11.7351 59.7988C12.9895 59.6385 14.1974 59.2324 15.2859 58.6052C15.5731 58.4397 15.8503 58.2598 16.1167 58.0663L11.133 53.7561C10.9851 53.6285 10.8798 53.4587 10.8313 53.2695C10.7828 53.0803 10.7934 52.8808 10.8616 52.6978C10.9298 52.5148 11.0525 52.357 11.213 52.2458C11.3735 52.1345 11.5643 52.0751 11.7596 52.0754C11.9697 52.0751 12.174 52.144 12.3409 52.2715L19.0185 57.3778L26.4933 58.3528C26.6297 58.3706 26.7616 58.4022 26.8887 58.4461L28.2001 57.3969L23.2472 56.7091C22.025 56.5913 20.8699 56.0956 19.9424 55.2908L14.3957 50.4936C14.2478 50.3661 14.1425 50.1962 14.094 50.007C14.0455 49.8179 14.0561 49.6183 14.1243 49.4353C14.1925 49.2523 14.3152 49.0946 14.4757 48.9833C14.6362 48.8721 14.827 48.8126 15.0223 48.813C15.2323 48.8127 15.4367 48.8816 15.6036 49.009L22.2812 54.1154L29.756 55.0903C31.0429 55.2582 31.9341 56.6581 32.0459 57.9308V57.931L32.0458 57.931L28.7268 61.25L26.0703 74.1437L30.75 78.8862L32.1551 77.8324L32.5177 77.9775L33.3106 76.3013L34.7287 76.9721L33.977 78.5612L34.3301 78.7024V82.5144L50.9678 99.3755V87.5989H53.3604V100.599H52.175L74.2442 122.964H80.3311V128.402H3.33512V122.964H9.38478L28.8344 88.4631L22.2162 82.2195C21.701 81.9706 21.2424 81.6167 20.8705 81.1796C20.4491 80.6844 20.1509 80.0965 20.0003 79.4639C19.8497 78.8313 19.8509 78.1721 20.0039 77.5401L23.4912 60.4586L19.9845 59.9716C18.901 59.8671 17.8702 59.4657 17.0041 58.8152C16.465 59.2259 15.8843 59.5859 15.2696 59.8892ZM14.5059 122.964H65.4056L33.6001 92.959L14.5059 122.964ZM57.3847 101.54L62.8222 106.978L70.3243 74.2604C70.3924 74.2585 70.4606 74.2561 70.5287 74.2531C70.9639 74.235 71.3751 74.0488 71.6757 73.7337C71.9764 73.4185 72.143 72.999 72.1406 72.5635C72.1406 72.1149 71.9624 71.6848 71.6453 71.3676C71.3281 71.0505 70.898 70.8723 70.4494 70.8723H62.2458C62.0238 70.8723 61.8108 70.9605 61.6537 71.1176C61.4967 71.2746 61.4085 71.4876 61.4085 71.7097C61.4085 71.9898 61.474 72.266 61.5997 72.5163C61.7254 72.7665 61.908 72.9839 62.1327 73.1511C62.3574 73.3183 62.6181 73.4307 62.8939 73.4792C63.1698 73.5277 63.4531 73.5111 63.7214 73.4306L64.6606 73.1488C65.171 73.3738 65.6938 73.5655 66.2257 73.7232L57.3847 101.54Z"/>
    </mask>
    <path fill-rule="evenodd" clip-rule="evenodd" d="M15.2696 59.8892C13.796 60.6162 12.1676 60.9966 10.5154 61C8.49128 61 6.51019 60.4316 4.80994 59.3632C3.1097 58.2948 1.76254 56.7717 0.930206 54.9767C0.0978699 53.1818 -0.184273 51.1913 0.117638 49.2442C0.419548 47.2972 1.29269 45.4762 2.63224 44L3.49844 44.7443C2.66119 45.667 2.0249 46.7453 1.62803 47.9139C1.23116 49.0825 1.08192 50.3173 1.18936 51.5437C1.29678 52.77 1.65864 53.9624 2.25307 55.0489C2.8475 56.1353 3.66216 57.0933 4.64783 57.8648C5.6335 58.6364 6.76972 59.2056 7.98785 59.538C9.20598 59.8704 10.4807 59.9591 11.7351 59.7988C12.9895 59.6385 14.1974 59.2324 15.2859 58.6052C15.5731 58.4397 15.8503 58.2598 16.1167 58.0663L11.133 53.7561C10.9851 53.6285 10.8798 53.4587 10.8313 53.2695C10.7828 53.0803 10.7934 52.8808 10.8616 52.6978C10.9298 52.5148 11.0525 52.357 11.213 52.2458C11.3735 52.1345 11.5643 52.0751 11.7596 52.0754C11.9697 52.0751 12.174 52.144 12.3409 52.2715L19.0185 57.3778L26.4933 58.3528C26.6297 58.3706 26.7616 58.4022 26.8887 58.4461L28.2001 57.3969L23.2472 56.7091C22.025 56.5913 20.8699 56.0956 19.9424 55.2908L14.3957 50.4936C14.2478 50.3661 14.1425 50.1962 14.094 50.007C14.0455 49.8179 14.0561 49.6183 14.1243 49.4353C14.1925 49.2523 14.3152 49.0946 14.4757 48.9833C14.6362 48.8721 14.827 48.8126 15.0223 48.813C15.2323 48.8127 15.4367 48.8816 15.6036 49.009L22.2812 54.1154L29.756 55.0903C31.0429 55.2582 31.9341 56.6581 32.0459 57.9308V57.931L32.0458 57.931L28.7268 61.25L26.0703 74.1437L30.75 78.8862L32.1551 77.8324L32.5177 77.9775L33.3106 76.3013L34.7287 76.9721L33.977 78.5612L34.3301 78.7024V82.5144L50.9678 99.3755V87.5989H53.3604V100.599H52.175L74.2442 122.964H80.3311V128.402H3.33512V122.964H9.38478L28.8344 88.4631L22.2162 82.2195C21.701 81.9706 21.2424 81.6167 20.8705 81.1796C20.4491 80.6844 20.1509 80.0965 20.0003 79.4639C19.8497 78.8313 19.8509 78.1721 20.0039 77.5401L23.4912 60.4586L19.9845 59.9716C18.901 59.8671 17.8702 59.4657 17.0041 58.8152C16.465 59.2259 15.8843 59.5859 15.2696 59.8892ZM14.5059 122.964H65.4056L33.6001 92.959L14.5059 122.964ZM57.3847 101.54L62.8222 106.978L70.3243 74.2604C70.3924 74.2585 70.4606 74.2561 70.5287 74.2531C70.9639 74.235 71.3751 74.0488 71.6757 73.7337C71.9764 73.4185 72.143 72.999 72.1406 72.5635C72.1406 72.1149 71.9624 71.6848 71.6453 71.3676C71.3281 71.0505 70.898 70.8723 70.4494 70.8723H62.2458C62.0238 70.8723 61.8108 70.9605 61.6537 71.1176C61.4967 71.2746 61.4085 71.4876 61.4085 71.7097C61.4085 71.9898 61.474 72.266 61.5997 72.5163C61.7254 72.7665 61.908 72.9839 62.1327 73.1511C62.3574 73.3183 62.6181 73.4307 62.8939 73.4792C63.1698 73.5277 63.4531 73.5111 63.7214 73.4306L64.6606 73.1488C65.171 73.3738 65.6938 73.5655 66.2257 73.7232L57.3847 101.54Z" fill="#000F3E"/>
    <path d="M10.5154 61L10.516 61.3H10.5154L10.5154 61ZM15.2696 59.8892L15.4023 60.1583L15.2696 59.8892ZM4.80994 59.3632L4.96957 59.1092L4.80994 59.3632ZM2.63224 44L2.41007 43.7984L2.60629 43.5822L2.82776 43.7725L2.63224 44ZM3.49844 44.7443L3.69396 44.5168L3.92773 44.7176L3.72061 44.9459L3.49844 44.7443ZM1.18936 51.5437L1.48822 51.5175V51.5175L1.18936 51.5437ZM7.98785 59.538L8.06683 59.2486L7.98785 59.538ZM15.2859 58.6052L15.1362 58.3453L15.2859 58.6052ZM16.1167 58.0663L16.3129 57.8394L16.5989 58.0867L16.293 58.309L16.1167 58.0663ZM11.133 53.7561L11.329 53.529L11.3292 53.5292L11.133 53.7561ZM10.8616 52.6978L10.5805 52.593V52.593L10.8616 52.6978ZM11.213 52.2458L11.0421 51.9992L11.0421 51.9992L11.213 52.2458ZM11.7596 52.0754L11.76 52.3754L11.759 52.3754L11.7596 52.0754ZM12.3409 52.2715L12.523 52.033L12.5232 52.0332L12.3409 52.2715ZM19.0185 57.3778L18.9797 57.6753L18.9001 57.6649L18.8363 57.6161L19.0185 57.3778ZM26.4933 58.3528L26.5321 58.0553L26.5321 58.0553L26.4933 58.3528ZM26.8887 58.4461L27.0761 58.6803L26.9471 58.7836L26.7908 58.7296L26.8887 58.4461ZM28.2001 57.3969L28.2414 57.0998L28.9319 57.1957L28.3875 57.6312L28.2001 57.3969ZM23.2472 56.7091L23.276 56.4103L23.2885 56.412L23.2472 56.7091ZM19.9424 55.2908L20.1387 55.0639L20.139 55.0642L19.9424 55.2908ZM14.3957 50.4936L14.5917 50.2665L14.5919 50.2667L14.3957 50.4936ZM14.1243 49.4353L13.8432 49.3305V49.3305L14.1243 49.4353ZM15.0223 48.813L15.0227 49.113L15.0217 49.113L15.0223 48.813ZM15.6036 49.009L15.7857 48.7706L15.7859 48.7707L15.6036 49.009ZM22.2812 54.1154L22.2424 54.4128L22.1628 54.4025L22.099 54.3537L22.2812 54.1154ZM29.756 55.0903L29.7948 54.7928L29.7948 54.7928L29.756 55.0903ZM32.0459 57.9308L32.3447 57.9046L32.3459 57.9177V57.9308H32.0459ZM32.0459 57.931H32.3459V58.2743L32.0057 58.2283L32.0459 57.931ZM32.0458 57.931L31.8336 57.7189L31.9387 57.6138L32.0859 57.6337L32.0458 57.931ZM28.7268 61.25L28.4329 61.1894L28.4511 61.1014L28.5146 61.0378L28.7268 61.25ZM26.0703 74.1437L25.8567 74.3544L25.7441 74.2403L25.7764 74.0832L26.0703 74.1437ZM30.75 78.8862L30.93 79.1262L30.7204 79.2834L30.5364 79.0969L30.75 78.8862ZM32.1551 77.8324L31.9751 77.5924L32.1099 77.4912L32.2665 77.5539L32.1551 77.8324ZM32.5177 77.9775L32.7889 78.1058L32.6683 78.3608L32.4063 78.256L32.5177 77.9775ZM33.3106 76.3013L33.0394 76.173L33.1677 75.9018L33.4389 76.0301L33.3106 76.3013ZM34.7287 76.9721L34.8569 76.7009L35.1281 76.8292L34.9999 77.1004L34.7287 76.9721ZM33.977 78.5612L33.8656 78.8397L33.5694 78.7212L33.7058 78.4329L33.977 78.5612ZM34.3301 78.7024L34.4415 78.4239L34.6301 78.4993V78.7024H34.3301ZM34.3301 82.5144L34.1165 82.7251L34.0301 82.6375V82.5144H34.3301ZM50.9678 99.3755H51.2678V100.107L50.7543 99.5862L50.9678 99.3755ZM50.9678 87.5989H50.6678V87.2989H50.9678V87.5989ZM53.3604 87.5989V87.2989H53.6604V87.5989H53.3604ZM53.3604 100.599H53.6604V100.899H53.3604V100.599ZM52.175 100.599L51.9615 100.81L51.4576 100.299H52.175V100.599ZM74.2442 122.964V123.264H74.1187L74.0306 123.175L74.2442 122.964ZM80.3311 122.964V122.664H80.6311V122.964H80.3311ZM80.3311 128.402H80.6311V128.702H80.3311V128.402ZM3.33512 128.402V128.702H3.03512V128.402H3.33512ZM3.33512 122.964H3.03512V122.664H3.33512V122.964ZM9.38478 122.964L9.64612 123.112L9.56004 123.264H9.38478V122.964ZM28.8344 88.4631L29.0403 88.2449L29.211 88.406L29.0957 88.6105L28.8344 88.4631ZM22.2162 82.2195L22.3467 81.9494L22.3884 81.9695L22.4221 82.0013L22.2162 82.2195ZM20.8705 81.1796L20.642 81.3741V81.374L20.8705 81.1796ZM20.0003 79.4639L19.7085 79.5334L20.0003 79.4639ZM20.0039 77.5401L20.2981 77.6001L20.2955 77.6107L20.0039 77.5401ZM23.4912 60.4586L23.5324 60.1614L23.8491 60.2054L23.7851 60.5186L23.4912 60.4586ZM19.9845 59.9716L20.0134 59.6727L20.0258 59.6744L19.9845 59.9716ZM17.0041 58.8152L16.8223 58.5766L17.0028 58.4391L17.1842 58.5754L17.0041 58.8152ZM65.4056 122.964L65.6115 122.746L66.1608 123.264H65.4056V122.964ZM14.5059 122.964V123.264H13.9594L14.2528 122.803L14.5059 122.964ZM33.6001 92.959L33.347 92.798L33.5419 92.4917L33.806 92.7408L33.6001 92.959ZM62.8222 106.978L63.1147 107.045L62.9935 107.573L62.6101 107.19L62.8222 106.978ZM57.3847 101.54L57.1726 101.752L57.0435 101.623L57.0988 101.449L57.3847 101.54ZM70.3243 74.2604L70.0319 74.1933L70.0838 73.9669L70.316 73.9605L70.3243 74.2604ZM70.5287 74.2531L70.5158 73.9534L70.5162 73.9534L70.5287 74.2531ZM71.6757 73.7337L71.8928 73.9407L71.8928 73.9407L71.6757 73.7337ZM72.1406 72.5635L71.8406 72.5651V72.5635H72.1406ZM71.6453 71.3676L71.4331 71.5798L71.6453 71.3676ZM61.6537 71.1176L61.8659 71.3297V71.3297L61.6537 71.1176ZM61.4085 71.7097L61.1085 71.7097V71.7097H61.4085ZM61.5997 72.5163L61.3316 72.6509L61.5997 72.5163ZM63.7214 73.4306L63.8076 73.7179H63.8076L63.7214 73.4306ZM64.6606 73.1488L64.5744 72.8615L64.6804 72.8297L64.7817 72.8743L64.6606 73.1488ZM66.2257 73.7232L66.311 73.4356L66.6043 73.5226L66.5116 73.8141L66.2257 73.7232ZM10.5148 60.7C12.1215 60.6967 13.7046 60.3267 15.1369 59.6202L15.4023 60.1583C13.8874 60.9056 12.2138 61.2965 10.516 61.3L10.5148 60.7ZM4.96957 59.1092C6.62159 60.1473 8.54728 60.7 10.5154 60.7L10.5154 61.3C8.43528 61.3 6.3988 60.7159 4.65032 59.6172L4.96957 59.1092ZM1.20237 54.8505C2.00994 56.5921 3.31761 58.0711 4.96957 59.1092L4.65032 59.6172C2.90178 58.5184 1.51514 56.9513 0.658043 55.103L1.20237 54.8505ZM0.414093 49.2902C0.1213 51.1785 0.394836 53.1091 1.20237 54.8505L0.658043 55.103C-0.199097 53.2545 -0.489845 51.2042 -0.178818 49.1983L0.414093 49.2902ZM2.85441 44.2016C1.55383 45.6349 0.706894 47.4019 0.414093 49.2902L-0.178818 49.1983C0.132202 47.1924 1.03156 45.3176 2.41007 43.7984L2.85441 44.2016ZM3.30293 44.9718L2.43672 44.2275L2.82776 43.7725L3.69396 44.5168L3.30293 44.9718ZM1.34396 47.8174C1.75418 46.6095 2.41168 45.4956 3.27628 44.5427L3.72061 44.9459C2.91071 45.8385 2.29562 46.881 1.91209 48.0104L1.34396 47.8174ZM0.890503 51.5698C0.779427 50.3019 0.933739 49.0254 1.34396 47.8174L1.91209 48.0104C1.52857 49.1397 1.38442 50.3327 1.48822 51.5175L0.890503 51.5698ZM1.98988 55.1929C1.37567 54.0702 1.00157 52.8377 0.890503 51.5698L1.48822 51.5175C1.592 52.7022 1.9416 53.8546 2.51625 54.9049L1.98988 55.1929ZM4.46291 58.1011C3.44551 57.3047 2.60408 56.3154 1.98988 55.1929L2.51625 54.9049C3.09091 55.9552 3.8788 56.8819 4.83275 57.6286L4.46291 58.1011ZM7.90888 59.8274C6.65259 59.4846 5.48029 58.8975 4.46291 58.1011L4.83275 57.6286C5.78671 58.3754 6.88686 58.9266 8.06683 59.2486L7.90888 59.8274ZM11.7731 60.0964C10.4797 60.2617 9.16515 60.1702 7.90888 59.8274L8.06683 59.2486C9.24681 59.5706 10.4818 59.6565 11.6971 59.5012L11.7731 60.0964ZM15.4357 58.8651C14.3126 59.5123 13.0666 59.931 11.7731 60.0964L11.6971 59.5012C12.9123 59.3459 14.0822 58.9525 15.1362 58.3453L15.4357 58.8651ZM16.293 58.309C16.0181 58.5087 15.732 58.6944 15.4357 58.8651L15.1362 58.3453C15.4142 58.1851 15.6826 58.0109 15.9403 57.8236L16.293 58.309ZM11.3292 53.5292L16.3129 57.8394L15.9204 58.2932L10.9367 53.983L11.3292 53.5292ZM11.1219 53.195C11.1552 53.3248 11.2275 53.4414 11.329 53.529L10.937 53.9832C10.7427 53.8156 10.6045 53.5925 10.5407 53.344L11.1219 53.195ZM11.1427 52.8026C11.0959 52.9282 11.0886 53.0651 11.1219 53.195L10.5407 53.344C10.477 53.0955 10.4909 52.8334 10.5805 52.593L11.1427 52.8026ZM11.3839 52.4923C11.2737 52.5687 11.1895 52.677 11.1427 52.8026L10.5805 52.593C10.6702 52.3526 10.8312 52.1454 11.0421 51.9992L11.3839 52.4923ZM11.759 52.3754C11.625 52.3752 11.4941 52.416 11.3839 52.4923L11.0421 51.9992C11.253 51.8531 11.5036 51.775 11.7601 51.7754L11.759 52.3754ZM12.1589 52.5099C12.0443 52.4225 11.9042 52.3752 11.76 52.3754L11.7591 51.7754C12.0351 51.775 12.3036 51.8656 12.523 52.033L12.1589 52.5099ZM18.8363 57.6161L12.1587 52.5098L12.5232 52.0332L19.2008 57.1395L18.8363 57.6161ZM26.4545 58.6502L18.9797 57.6753L19.0573 57.0803L26.5321 58.0553L26.4545 58.6502ZM26.7908 58.7296C26.6823 58.6922 26.5701 58.6653 26.4545 58.6502L26.5321 58.0553C26.6892 58.0758 26.841 58.1122 26.9866 58.1625L26.7908 58.7296ZM28.3875 57.6312L27.0761 58.6803L26.7013 58.2118L28.0127 57.1627L28.3875 57.6312ZM23.2885 56.412L28.2414 57.0998L28.1588 57.6941L23.206 57.0063L23.2885 56.412ZM20.139 55.0642C21.0194 55.8281 22.1159 56.2987 23.276 56.4105L23.2184 57.0078C21.9341 56.884 20.7203 56.363 19.7458 55.5174L20.139 55.0642ZM14.5919 50.2667L20.1387 55.0639L19.7462 55.5177L14.1994 50.7206L14.5919 50.2667ZM14.3846 49.9325C14.4179 50.0624 14.4902 50.1789 14.5917 50.2665L14.1997 50.7208C14.0054 50.5532 13.8671 50.3301 13.8034 50.0816L14.3846 49.9325ZM14.4054 49.5401C14.3586 49.6657 14.3513 49.8027 14.3846 49.9325L13.8034 50.0816C13.7397 49.833 13.7536 49.5709 13.8432 49.3305L14.4054 49.5401ZM14.6466 49.2299C14.5364 49.3063 14.4522 49.4145 14.4054 49.5401L13.8432 49.3305C13.9328 49.0901 14.0939 48.8829 14.3048 48.7368L14.6466 49.2299ZM15.0217 49.113C14.8877 49.1127 14.7568 49.1535 14.6466 49.2299L14.3048 48.7368C14.5157 48.5906 14.7663 48.5125 15.0228 48.513L15.0217 49.113ZM15.4216 49.2475C15.307 49.16 15.1669 49.1128 15.0227 49.113L15.0218 48.513C15.2978 48.5126 15.5663 48.6031 15.7857 48.7706L15.4216 49.2475ZM22.099 54.3537L15.4214 49.2474L15.7859 48.7707L22.4634 53.8771L22.099 54.3537ZM29.7172 55.3878L22.2424 54.4128L22.32 53.8179L29.7948 54.7928L29.7172 55.3878ZM31.747 57.9571C31.696 57.376 31.4654 56.7612 31.1016 56.2763C30.738 55.7916 30.2594 55.4585 29.7172 55.3878L29.7948 54.7928C30.5395 54.89 31.1499 55.3408 31.5816 55.9162C32.0131 56.4914 32.284 57.2129 32.3447 57.9046L31.747 57.9571ZM31.7459 57.931V57.9308H32.3459V57.931H31.7459ZM32.0859 57.6337L32.0861 57.6337L32.0057 58.2283L32.0056 58.2283L32.0859 57.6337ZM28.5146 61.0378L31.8336 57.7189L32.2579 58.1431L28.9389 61.4621L28.5146 61.0378ZM25.7764 74.0832L28.4329 61.1894L29.0206 61.3105L26.3641 74.2042L25.7764 74.0832ZM30.5364 79.0969L25.8567 74.3544L26.2838 73.933L30.9635 78.6755L30.5364 79.0969ZM32.3351 78.0724L30.93 79.1262L30.57 78.6462L31.9751 77.5924L32.3351 78.0724ZM32.4063 78.256L32.0436 78.1109L32.2665 77.5539L32.6292 77.6989L32.4063 78.256ZM32.2465 77.8492L33.0394 76.173L33.5818 76.4296L32.7889 78.1058L32.2465 77.8492ZM33.4389 76.0301L34.8569 76.7009L34.6004 77.2433L33.1823 76.5725L33.4389 76.0301ZM34.9999 77.1004L34.2482 78.6894L33.7058 78.4329L34.4575 76.8438L34.9999 77.1004ZM34.2187 78.9809L33.8656 78.8397L34.0884 78.2826L34.4415 78.4239L34.2187 78.9809ZM34.0301 82.5144V78.7024H34.6301V82.5144H34.0301ZM50.7543 99.5862L34.1165 82.7251L34.5436 82.3037L51.1814 99.1647L50.7543 99.5862ZM51.2678 87.5989V99.3755H50.6678V87.5989H51.2678ZM53.3604 87.8989H50.9678V87.2989H53.3604V87.8989ZM53.0604 100.599V87.5989H53.6604V100.599H53.0604ZM52.175 100.299H53.3604V100.899H52.175V100.299ZM74.0306 123.175L51.9615 100.81L52.3886 100.388L74.4577 122.754L74.0306 123.175ZM80.3311 123.264H74.2442V122.664H80.3311V123.264ZM80.0311 128.402V122.964H80.6311V128.402H80.0311ZM3.33512 128.102H80.3311V128.702H3.33512V128.102ZM3.63512 122.964V128.402H3.03512V122.964H3.63512ZM9.38478 123.264H3.33512V122.664H9.38478V123.264ZM29.0957 88.6105L9.64612 123.112L9.12344 122.817L28.5731 88.3158L29.0957 88.6105ZM22.4221 82.0013L29.0403 88.2449L28.6285 88.6813L22.0103 82.4378L22.4221 82.0013ZM21.099 80.9852C21.4438 81.3905 21.869 81.7186 22.3467 81.9494L22.0857 82.4897C21.5329 82.2226 21.041 81.8429 20.642 81.3741L21.099 80.9852ZM20.2921 79.3944C20.4318 79.9809 20.7083 80.526 21.099 80.9852L20.642 81.374C20.1899 80.8428 19.87 80.212 19.7085 79.5334L20.2921 79.3944ZM20.2955 77.6107C20.1536 78.1967 20.1525 78.8079 20.2921 79.3944L19.7085 79.5334C19.5469 78.8548 19.5482 78.1475 19.7124 77.4695L20.2955 77.6107ZM23.7851 60.5186L20.2979 77.6001L19.71 77.4801L23.1972 60.3986L23.7851 60.5186ZM20.0258 59.6744L23.5324 60.1614L23.4499 60.7557L19.9433 60.2687L20.0258 59.6744ZM17.1842 58.5754C18.0064 59.1928 18.9848 59.5738 20.0133 59.673L19.9558 60.2702C18.8172 60.1605 17.7341 59.7386 16.8239 59.0551L17.1842 58.5754ZM15.1369 59.6202C15.7343 59.3254 16.2986 58.9756 16.8223 58.5766L17.1859 59.0539C16.6314 59.4763 16.0343 59.8465 15.4023 60.1583L15.1369 59.6202ZM65.4056 123.264H14.5059V122.664H65.4056V123.264ZM33.806 92.7408L65.6115 122.746L65.1997 123.182L33.3942 93.1773L33.806 92.7408ZM14.2528 122.803L33.347 92.798L33.8532 93.1201L14.759 123.125L14.2528 122.803ZM62.6101 107.19L57.1726 101.752L57.5968 101.328L63.0344 106.766L62.6101 107.19ZM70.6167 74.3274L63.1147 107.045L62.5298 106.911L70.0319 74.1933L70.6167 74.3274ZM70.5417 74.5529C70.472 74.5559 70.4023 74.5583 70.3326 74.5603L70.316 73.9605C70.3826 73.9587 70.4492 73.9563 70.5158 73.9534L70.5417 74.5529ZM71.8928 73.9407C71.5385 74.3121 71.054 74.5315 70.5412 74.5529L70.5162 73.9534C70.8738 73.9385 71.2116 73.7855 71.4586 73.5266L71.8928 73.9407ZM72.4406 72.5618C72.4434 73.075 72.2471 73.5694 71.8928 73.9407L71.4586 73.5266C71.7057 73.2677 71.8426 72.923 71.8406 72.5651L72.4406 72.5618ZM71.8574 71.1555C72.2308 71.5289 72.4406 72.0354 72.4406 72.5635H71.8406C71.8406 72.1945 71.694 71.8407 71.4331 71.5798L71.8574 71.1555ZM70.4494 70.5723C70.9775 70.5723 71.484 70.7821 71.8574 71.1555L71.4331 71.5798C71.1722 71.3189 70.8184 71.1723 70.4494 71.1723V70.5723ZM62.2458 70.5723H70.4494V71.1723H62.2458V70.5723ZM61.4416 70.9054C61.6549 70.6922 61.9442 70.5723 62.2458 70.5723V71.1723C62.1033 71.1723 61.9666 71.2289 61.8659 71.3297L61.4416 70.9054ZM61.1085 71.7097C61.1085 71.408 61.2283 71.1187 61.4416 70.9054L61.8659 71.3297C61.7651 71.4305 61.7085 71.5672 61.7085 71.7097H61.1085ZM61.3316 72.6509C61.1849 72.3589 61.1085 72.0365 61.1085 71.7097L61.7085 71.7097C61.7085 71.943 61.763 72.1731 61.8678 72.3816L61.3316 72.6509ZM61.9536 73.3918C61.6913 73.1967 61.4784 72.943 61.3316 72.6509L61.8678 72.3816C61.9725 72.5901 62.1246 72.7712 62.3117 72.9105L61.9536 73.3918ZM62.842 73.7747C62.52 73.718 62.2158 73.5869 61.9536 73.3918L62.3117 72.9105C62.4989 73.0497 62.7161 73.1433 62.9459 73.1837L62.842 73.7747ZM63.8076 73.7179C63.4946 73.8119 63.1639 73.8313 62.842 73.7747L62.9459 73.1837C63.1757 73.2241 63.4117 73.2103 63.6352 73.1432L63.8076 73.7179ZM64.7468 73.4362L63.8076 73.7179L63.6352 73.1432L64.5744 72.8615L64.7468 73.4362ZM66.1404 74.0109C65.5964 73.8495 65.0616 73.6535 64.5396 73.4233L64.7817 72.8743C65.2804 73.0942 65.7912 73.2815 66.311 73.4356L66.1404 74.0109ZM57.0988 101.449L65.9398 73.6324L66.5116 73.8141L57.6706 101.631L57.0988 101.449Z" fill="#000F3E" mask="url(#path-10-inside-1_921_68)"/>
    <mask id="path-12-inside-2_921_68" fill="white">
        <path d="M7.89601 56.7119L13.0599 56.3431C13.1289 56.3381 13.1957 56.3168 13.2549 56.2809C13.314 56.2449 13.3637 56.1954 13.3998 56.1363C13.436 56.0773 13.4575 56.0105 13.4627 55.9415C13.4678 55.8725 13.4564 55.8032 13.4294 55.7395L5.92855 38.0291C5.90032 37.9625 5.85588 37.9039 5.79929 37.8587C5.7427 37.8136 5.67575 37.7833 5.60448 37.7705L0.511113 36.861C0.434995 36.8474 0.356635 36.8544 0.284092 36.8811C0.211549 36.9079 0.147439 36.9535 0.0983839 37.0133C0.0493288 37.073 0.0170918 37.1448 0.00499153 37.2212C-0.00710773 37.2975 0.0013752 37.3758 0.0295515 37.4478L7.45993 56.4365C7.49374 56.5229 7.5543 56.5963 7.63276 56.6458C7.71122 56.6954 7.80345 56.7185 7.89601 56.7119Z"/>
    </mask>
    <path d="M7.89601 56.7119L13.0599 56.3431C13.1289 56.3381 13.1957 56.3168 13.2549 56.2809C13.314 56.2449 13.3637 56.1954 13.3998 56.1363C13.436 56.0773 13.4575 56.0105 13.4627 55.9415C13.4678 55.8725 13.4564 55.8032 13.4294 55.7395L5.92855 38.0291C5.90032 37.9625 5.85588 37.9039 5.79929 37.8587C5.7427 37.8136 5.67575 37.7833 5.60448 37.7705L0.511113 36.861C0.434995 36.8474 0.356635 36.8544 0.284092 36.8811C0.211549 36.9079 0.147439 36.9535 0.0983839 37.0133C0.0493288 37.073 0.0170918 37.1448 0.00499153 37.2212C-0.00710773 37.2975 0.0013752 37.3758 0.0295515 37.4478L7.45993 56.4365C7.49374 56.5229 7.5543 56.5963 7.63276 56.6458C7.71122 56.6954 7.80345 56.7185 7.89601 56.7119Z" fill="#000F3E"/>
    <path d="M7.89601 56.7119L7.91738 57.0112H7.91738L7.89601 56.7119ZM13.0599 56.3431L13.0812 56.6423H13.0812L13.0599 56.3431ZM13.4294 55.7395L13.7057 55.6225L13.7057 55.6225L13.4294 55.7395ZM5.92855 38.0291L5.65231 38.1461L5.65231 38.1461L5.92855 38.0291ZM5.60448 37.7705L5.65721 37.4752L5.65722 37.4752L5.60448 37.7705ZM0.511113 36.861L0.458376 37.1564L0.458375 37.1564L0.511113 36.861ZM0.0295515 37.4478L0.308924 37.3384V37.3384L0.0295515 37.4478ZM7.45993 56.4365L7.7393 56.3272L7.7393 56.3272L7.45993 56.4365ZM7.87463 56.4127L13.0385 56.0438L13.0812 56.6423L7.91738 57.0112L7.87463 56.4127ZM13.0385 56.0438C13.0599 56.0423 13.0806 56.0357 13.099 56.0245L13.4107 56.5372C13.3108 56.5979 13.1979 56.634 13.0812 56.6423L13.0385 56.0438ZM13.099 56.0245C13.1174 56.0134 13.1328 55.998 13.144 55.9797L13.6557 56.293C13.5946 56.3927 13.5106 56.4764 13.4107 56.5372L13.099 56.0245ZM13.144 55.9797C13.1552 55.9614 13.1619 55.9406 13.1635 55.9192L13.7618 55.9638C13.7531 56.0804 13.7168 56.1933 13.6557 56.293L13.144 55.9797ZM13.1635 55.9192C13.1651 55.8978 13.1616 55.8763 13.1532 55.8565L13.7057 55.6225C13.7513 55.7302 13.7705 55.8472 13.7618 55.9638L13.1635 55.9192ZM13.1532 55.8565L5.65231 38.1461L6.2048 37.9121L13.7057 55.6225L13.1532 55.8565ZM5.65231 38.1461C5.64356 38.1255 5.62977 38.1073 5.61218 38.0933L5.9864 37.6242C6.082 37.7005 6.15708 37.7995 6.2048 37.9121L5.65231 38.1461ZM5.61218 38.0933C5.5946 38.0792 5.57383 38.0698 5.55173 38.0659L5.65722 37.4752C5.77766 37.4967 5.8908 37.548 5.9864 37.6242L5.61218 38.0933ZM5.55174 38.0659L0.458376 37.1564L0.56385 36.5657L5.65721 37.4752L5.55174 38.0659ZM0.458375 37.1564C0.43474 37.1521 0.410426 37.1543 0.387922 37.1626L0.180262 36.5997C0.302845 36.5544 0.43525 36.5427 0.563851 36.5657L0.458375 37.1564ZM0.387922 37.1626C0.365402 37.1709 0.345501 37.1851 0.33028 37.2036L-0.133512 36.823C-0.0506239 36.722 0.0576944 36.6449 0.180262 36.5997L0.387922 37.1626ZM0.33028 37.2036C0.315052 37.2222 0.30505 37.2444 0.301296 37.2681L-0.291312 37.1742C-0.270866 37.0452 -0.216394 36.9239 -0.133512 36.823L0.33028 37.2036ZM0.301296 37.2681C0.297544 37.2918 0.300171 37.3161 0.308924 37.3384L-0.249821 37.5571C-0.297421 37.4354 -0.31176 37.3033 -0.291312 37.1742L0.301296 37.2681ZM0.308924 37.3384L7.7393 56.3272L7.18055 56.5458L-0.249822 37.5571L0.308924 37.3384ZM7.7393 56.3272C7.7498 56.354 7.7686 56.3768 7.79294 56.3922L7.47258 56.8995C7.34001 56.8158 7.23768 56.6918 7.18055 56.5458L7.7393 56.3272ZM7.79294 56.3922C7.81729 56.4075 7.84591 56.4147 7.87463 56.4127L7.91738 57.0112C7.76099 57.0223 7.60514 56.9832 7.47258 56.8995L7.79294 56.3922Z" fill="#000F3E" mask="url(#path-12-inside-2_921_68)"/>
    <path d="M44.9195 108.065C44.9195 113.388 49.2344 117.703 54.5571 117.703C59.8798 117.703 64.1947 113.388 64.1947 108.065C64.1947 102.743 59.8798 98.4277 54.5571 98.4277C49.2344 98.4277 44.9195 102.743 44.9195 108.065Z" fill="#6288FF" stroke="#000F3E" stroke-width="0.3"/>
    <path d="M67.6554 111.063C67.6427 111.05 67.6255 111.043 67.6075 111.043L62.1702 111.043C62.1523 111.043 62.1351 111.05 62.1225 111.063C62.1098 111.075 62.1026 111.093 62.1026 111.11V112.85C62.1026 112.868 62.1098 112.885 62.1225 112.898C62.1351 112.911 62.1522 112.918 62.1701 112.918C62.1702 112.918 62.1702 112.918 62.1703 112.918H67.6075C67.6076 112.918 67.6076 112.918 67.6077 112.918C67.6256 112.918 67.6427 112.911 67.6554 112.898C67.668 112.885 67.6752 112.868 67.6752 112.85L67.6752 111.11C67.6752 111.093 67.668 111.075 67.6554 111.063Z" fill="#FF6577" stroke="#000F3E" stroke-width="0.3"/>
    <path d="M55.1476 86.8112C55.1349 86.7985 55.1177 86.7914 55.0997 86.7914L49.6624 86.7914C49.6445 86.7914 49.6273 86.7985 49.6147 86.8112C49.602 86.8239 49.5948 86.8411 49.5948 86.859V88.5987C49.5948 88.6167 49.602 88.6339 49.6147 88.6466C49.6273 88.6592 49.6444 88.6663 49.6623 88.6664C49.6624 88.6664 49.6624 88.6664 49.6625 88.6664H55.0997C55.0998 88.6664 55.0998 88.6664 55.0999 88.6664C55.1178 88.6663 55.1349 88.6592 55.1476 88.6466C55.1602 88.6339 55.1674 88.6167 55.1674 88.5987L55.1674 86.859C55.1674 86.841 55.1602 86.8239 55.1476 86.8112Z" fill="#FF6577" stroke="#000F3E" stroke-width="0.3"/>
    <path d="M31.8627 75.4711L32.8039 74.0077M31.8627 75.4711L31.989 75.5521M31.8627 75.4711C31.8502 75.4906 31.841 75.5118 31.8353 75.5338M31.8627 75.4711L31.9889 75.5523L31.989 75.5521M32.8039 74.0077L33.1044 73.9423L36.9462 76.4132M32.8039 74.0077C32.8193 73.9836 32.8393 73.9628 32.8628 73.9466M32.8039 74.0077L32.8628 73.9466M31.989 75.5521L32.93 74.0888L32.9302 74.0885C32.9349 74.0812 32.9411 74.0748 32.9482 74.0698C32.9555 74.0648 32.9636 74.0613 32.9721 74.0595L32.9729 74.0593C32.9777 74.0583 32.9827 74.0577 32.9876 74.0577L32.9874 73.9077L32.9873 74.0577C32.9999 74.0577 33.0123 74.0614 33.0229 74.0682L33.0233 74.0685L36.8649 76.5392L36.9462 76.4132M31.989 75.5521C31.9793 75.5672 31.976 75.5856 31.9798 75.6031L31.9524 75.6091M36.9462 76.4132L36.8651 76.5393L36.8649 76.5392C36.88 76.5489 36.8906 76.5642 36.8944 76.5817C36.8982 76.5992 36.8949 76.6175 36.8852 76.6326L36.8852 76.6326L37.0114 76.7137M36.9462 76.4132C36.9947 76.4444 37.0287 76.4936 37.0409 76.5499C37.0532 76.6063 37.0425 76.6652 37.0114 76.7137M31.8353 75.5338L31.928 75.7717L31.928 75.7717M31.8353 75.5338L31.9524 75.6091M31.8353 75.5338L31.9279 75.7718L31.9279 75.7717H31.928M31.9524 75.6091L31.9798 75.6031C31.9833 75.6196 31.9929 75.6341 32.0065 75.6439M31.9524 75.6091L32.0065 75.6439M32.0065 75.6439L32.009 75.6455L35.8507 78.1162L35.7697 78.2425M32.0065 75.6439C32.0073 75.6445 32.0082 75.645 32.009 75.6456C32.0091 75.6457 32.0092 75.6457 32.0093 75.6458L31.928 75.7717M35.7697 78.2425L35.8508 78.1163L35.8508 78.1163C35.8659 78.1259 35.8841 78.1292 35.9016 78.1254C35.9191 78.1216 35.9344 78.111 35.9441 78.0959M35.7697 78.2425C35.8182 78.2736 35.8771 78.2842 35.9335 78.272C35.9898 78.2598 36.039 78.2257 36.0702 78.1772M35.7697 78.2425L32.0779 75.8682V75.7718V75.7717H31.928M35.9441 78.0959L36.8852 76.6327L37.0114 76.7137M35.9441 78.0959L36.0702 78.1772M35.9441 78.0959L35.9441 78.096L36.0702 78.1772M37.0114 76.7137L36.0702 78.1772M32.8628 73.9466C32.8863 73.9303 32.9127 73.9188 32.9407 73.9128L32.8628 73.9466Z" fill="#FF6577" stroke="#000F3E" stroke-width="0.3"/>
    <path d="M12.3623 54.9947L8.22975 55.4297L1.48717 38.4645L5.83723 39.117L12.3623 54.9947Z" fill="#C3D0F9"/>
    <path d="M21 102.402H23.3912V102.01H21V102.402ZM24.1883 102.402H26.5795V102.01H24.1883V102.402ZM27.3765 102.402H29.7676V102.01H27.3765L27.3765 102.402ZM30.5648 102.402H32.956V102.01H30.5648V102.402ZM33.753 102.402H36.1442V102.01H33.753V102.402ZM36.9413 102.402L39.1566 102.4L39.3581 102.375L39.3032 101.986L39.1154 102.01H36.9413V102.402ZM40.1482 102.276L42.5186 101.979L42.4638 101.59L40.0933 101.887L40.1482 102.276ZM43.3087 101.88L45.6791 101.583L45.6242 101.194L43.2539 101.491L43.3087 101.88ZM46.4691 101.484L48.8395 101.187L48.7846 100.798L46.4143 101.095L46.4691 101.484ZM49.6296 101.088L52 100.791L51.9452 100.402L49.5748 100.699L49.6296 101.088Z" fill="#000F3E"/>
    <path d="M52.9681 115.402L53 115.027L50.6403 114.86L50.6084 115.234L52.9681 115.402ZM49.8219 115.179L49.8538 114.804L47.4941 114.636L47.4622 115.011L49.8219 115.179ZM46.6756 114.955L46.7075 114.581L44.3477 114.413L44.316 114.787L46.6756 114.955ZM43.5295 114.732L43.5612 114.357L41.2016 114.189L41.1699 114.564L43.5295 114.732ZM40.3833 114.508L40.4151 114.134L38.0553 113.966L38.0235 114.341L40.3833 114.508ZM37.237 114.285L37.2687 113.91L34.9091 113.743L34.8774 114.117L37.237 114.285ZM34.0909 114.061L34.1226 113.687L31.7628 113.519L31.7311 113.894L34.0909 114.061ZM30.9445 113.838L30.9763 113.463L28.6167 113.296L28.5849 113.67L30.9445 113.838ZM27.7984 113.615L27.8301 113.24L25.4703 113.072L25.4386 113.447L27.7984 113.615ZM24.6521 113.391L24.6838 113.016L22.3242 112.849L22.2925 113.223L24.6521 113.391ZM21.5059 113.168L21.5376 112.793L19.1778 112.625L19.1461 113L21.5059 113.168ZM18.3596 112.944L18.3913 112.57L16.0317 112.402L16 112.777L18.3596 112.944Z" fill="#000F3E"/>
    <path d="M19.6458 58.7077C19.86 59.0289 20.16 59.2837 20.5116 59.4431C20.8562 59.5993 21.2371 59.6579 21.6127 59.6125C21.9883 59.567 22.3442 59.4193 22.6416 59.1855L27.9575 55.0054L25.0375 53.2746L20.3965 55.7366C20.0554 55.9175 19.7719 56.1904 19.578 56.5243C19.3842 56.8582 19.2877 57.2398 19.2997 57.6257C19.3117 58.0116 19.4316 58.3864 19.6458 58.7077Z" fill="#F7C9C9" stroke="#000F3E" stroke-width="0.3"/>
    <path d="M53.2683 59.6234C55.2372 57.4187 56.9597 54.3846 58.5971 51.0399L50.7541 47.2243C45.3398 50.1718 40.2432 53.2141 36.1191 56.5637L36.1189 56.564C35.3182 57.2112 34.7 58.0558 34.325 59.0146C33.95 59.9734 33.8313 61.0134 33.9804 62.0321C34.0998 62.8376 34.3844 63.6098 34.8164 64.3001C35.2485 64.9905 35.8187 65.5841 36.4911 66.0436L36.4912 66.0434L36.4976 66.0483L54.5204 79.8268L58.7546 77.9449L46.2865 63.4662L46.0726 63.2178L46.4005 63.2184C49.0416 63.2231 51.2743 61.8562 53.2683 59.6234Z" fill="#C3D0F9" stroke="#000F3E" stroke-width="0.3"/>
    <path d="M59.4566 82.0901L59.4564 82.0903C56.9506 84.629 53.6452 86.4508 49.9387 87.9243L59.4566 82.0901ZM59.4566 82.0901C59.8855 81.6573 60.146 81.0858 60.1915 80.4782C60.237 79.8706 60.0644 79.2667 59.7047 78.7748L57.9504 76.3826M59.4566 82.0901L57.9504 76.3826M52.3735 78.2508L50.9667 83.2612L50.9564 83.298L50.9297 83.3254L48.521 85.7982C48.2921 86.0331 48.16 86.3457 48.151 86.6736C48.142 87.0015 48.2567 87.3209 48.4723 87.5681L48.4724 87.5681C48.65 87.7718 48.8863 87.9155 49.1489 87.9793C49.4115 88.043 49.6873 88.0239 49.9385 87.9244L52.3735 78.2508ZM52.3735 78.2508C53.8719 78.9687 55.1546 79.2601 56.1319 78.9548C57.0882 78.656 57.7008 77.8066 57.9504 76.3826M52.3735 78.2508L57.9504 76.3826" fill="#FDFEF9" stroke="#000F3E" stroke-width="0.3"/>
    <path d="M65.2843 76.9804L65.28 76.9449L65.2922 76.9113C65.8423 75.3946 66.395 73.9042 66.9363 72.4443C68.6992 67.6899 70.3423 63.2587 71.3883 59.294C72.7417 54.1639 73.0811 49.8622 71.4243 46.6773L52.1748 52.1066L63.1245 105.86L68.829 106.335L65.2843 76.9804Z" fill="#C3D0F9" stroke="#000F3E" stroke-width="0.3"/>
    <mask id="path-25-inside-3_921_68" fill="white">
        <path fill-rule="evenodd" clip-rule="evenodd" d="M25.7386 9.86289C25.7386 13.827 28.9521 17.0405 32.9162 17.0405C33.9983 17.0405 35.0245 16.801 35.9447 16.3722L41.5067 21.9342L46.0742 18.6716L39.6782 12.2756C39.9472 11.5216 40.0938 10.7093 40.0938 9.86289C40.0938 5.89882 36.8802 2.6853 32.9162 2.6853C28.9521 2.6853 25.7386 5.89882 25.7386 9.86289Z"/>
    </mask>
    <path fill-rule="evenodd" clip-rule="evenodd" d="M25.7386 9.86289C25.7386 13.827 28.9521 17.0405 32.9162 17.0405C33.9983 17.0405 35.0245 16.801 35.9447 16.3722L41.5067 21.9342L46.0742 18.6716L39.6782 12.2756C39.9472 11.5216 40.0938 10.7093 40.0938 9.86289C40.0938 5.89882 36.8802 2.6853 32.9162 2.6853C28.9521 2.6853 25.7386 5.89882 25.7386 9.86289Z" fill="#F7C9C9"/>
    <path d="M35.9447 16.3722L35.8179 16.1002L36.0083 16.0115L36.1568 16.16L35.9447 16.3722ZM41.5067 21.9342L41.681 22.1783L41.4742 22.326L41.2945 22.1463L41.5067 21.9342ZM46.0742 18.6716L46.2864 18.4595L46.5368 18.7099L46.2486 18.9157L46.0742 18.6716ZM39.6782 12.2756L39.466 12.4877L39.3318 12.3535L39.3956 12.1748L39.6782 12.2756ZM32.9162 17.3405C28.7864 17.3405 25.4386 13.9926 25.4386 9.86289H26.0386C26.0386 13.6613 29.1178 16.7405 32.9162 16.7405V17.3405ZM36.0714 16.6441C35.1124 17.091 34.043 17.3405 32.9162 17.3405V16.7405C33.9536 16.7405 34.9366 16.511 35.8179 16.1002L36.0714 16.6441ZM41.2945 22.1463L35.7325 16.5843L36.1568 16.16L41.7188 21.722L41.2945 22.1463ZM46.2486 18.9157L41.681 22.1783L41.3323 21.69L45.8998 18.4275L46.2486 18.9157ZM39.8903 12.0634L46.2864 18.4595L45.8621 18.8838L39.466 12.4877L39.8903 12.0634ZM40.3938 9.86289C40.3938 10.7442 40.2412 11.5905 39.9607 12.3764L39.3956 12.1748C39.6533 11.4526 39.7937 10.6745 39.7937 9.86289H40.3938ZM32.9162 2.3853C37.0459 2.3853 40.3938 5.73313 40.3938 9.86289H39.7937C39.7937 6.0645 36.7145 2.9853 32.9162 2.9853V2.3853ZM25.4386 9.86289C25.4386 5.73313 28.7864 2.3853 32.9162 2.3853V2.9853C29.1178 2.9853 26.0386 6.0645 26.0386 9.86289H25.4386Z" fill="#000F3E" mask="url(#path-25-inside-3_921_68)"/>
    <path d="M68.0506 110.013L68.0508 110.013C68.6022 109.754 69.043 109.307 69.2941 108.751C69.5453 108.196 69.5903 107.57 69.4213 106.985C69.4212 106.985 69.4212 106.985 69.4212 106.984L68.5941 104.136C67.8711 105.388 67.0043 105.975 66.0035 105.928C64.9807 105.879 63.8759 105.166 62.7146 103.977L59.6743 108.201L59.652 108.232L59.6176 108.248L56.5067 109.745C56.2111 109.887 55.9798 110.135 55.8589 110.44C55.7379 110.745 55.7361 111.084 55.8539 111.391L55.8539 111.391C55.9508 111.643 56.1236 111.859 56.3484 112.009C56.5731 112.159 56.8388 112.236 57.1089 112.228C61.096 112.116 64.8258 111.538 68.0506 110.013Z" fill="#FDFEF9" stroke="#000F3E" stroke-width="0.3"/>
    <mask id="path-28-inside-4_921_68" fill="white">
        <path fill-rule="evenodd" clip-rule="evenodd" d="M52.3825 53.2545C59.9561 54.5545 66.1073 51.5373 71.7402 46.947C63.1774 28.0993 52.4645 15.6076 41.3986 13.5603C41.3237 13.7816 41.253 13.9912 41.186 14.1899C39.9892 17.7383 39.9684 17.7999 38.1361 18.9979C37.5867 20.6217 37.426 22.2889 37.6131 24.004L34.4474 37.6335L24.5958 53.3003L28.5868 56.5286L40.8187 41.1869L42.7086 35.0746C43.5588 36.2203 44.5024 37.3861 45.5312 38.5731C47.1743 40.469 48.4304 43.8017 49.6328 46.9921C50.5328 49.3801 51.4028 51.6883 52.3825 53.2545Z"/>
    </mask>
    <path fill-rule="evenodd" clip-rule="evenodd" d="M52.3825 53.2545C59.9561 54.5545 66.1073 51.5373 71.7402 46.947C63.1774 28.0993 52.4645 15.6076 41.3986 13.5603C41.3237 13.7816 41.253 13.9912 41.186 14.1899C39.9892 17.7383 39.9684 17.7999 38.1361 18.9979C37.5867 20.6217 37.426 22.2889 37.6131 24.004L34.4474 37.6335L24.5958 53.3003L28.5868 56.5286L40.8187 41.1869L42.7086 35.0746C43.5588 36.2203 44.5024 37.3861 45.5312 38.5731C47.1743 40.469 48.4304 43.8017 49.6328 46.9921C50.5328 49.3801 51.4028 51.6883 52.3825 53.2545Z" fill="#6481F7"/>
    <path d="M71.7402 46.947L72.0134 46.8229L72.109 47.0334L71.9297 47.1795L71.7402 46.947ZM52.3825 53.2545L52.3317 53.5502L52.1994 53.5275L52.1281 53.4136L52.3825 53.2545ZM41.3986 13.5603L41.1144 13.4641L41.1977 13.218L41.4532 13.2653L41.3986 13.5603ZM41.186 14.1899L41.4703 14.2858V14.2858L41.186 14.1899ZM38.1361 18.9979L37.8519 18.9017L37.8851 18.8035L37.9719 18.7468L38.1361 18.9979ZM37.6131 24.004L37.9114 23.9715L37.9169 24.0222L37.9054 24.0719L37.6131 24.004ZM34.4474 37.6335L34.7397 37.7013L34.7282 37.7505L34.7014 37.7932L34.4474 37.6335ZM24.5958 53.3003L24.4071 53.5336L24.2001 53.3661L24.3418 53.1406L24.5958 53.3003ZM28.5868 56.5286L28.8214 56.7157L28.633 56.9519L28.3981 56.7619L28.5868 56.5286ZM40.8187 41.1869L41.1054 41.2756L41.0886 41.3297L41.0533 41.374L40.8187 41.1869ZM42.7086 35.0746L42.422 34.986L42.5968 34.4206L42.9495 34.8959L42.7086 35.0746ZM45.5312 38.5731L45.7579 38.3766L45.5312 38.5731ZM49.6328 46.9921L49.3521 47.0979L49.6328 46.9921ZM71.9297 47.1795C66.2647 51.796 60.0271 54.8711 52.3317 53.5502L52.4332 52.9589C59.8851 54.238 65.9499 51.2785 71.5507 46.7144L71.9297 47.1795ZM41.4532 13.2653C47.0758 14.3055 52.5756 17.9916 57.7316 23.7534C62.8898 29.5177 67.7238 37.3812 72.0134 46.8229L71.4671 47.071C67.1938 37.6651 62.3899 29.8588 57.2845 24.1535C52.1769 18.4458 46.7872 14.8623 41.344 13.8553L41.4532 13.2653ZM40.9017 14.094C40.9687 13.8954 41.0395 13.6856 41.1144 13.4641L41.6828 13.6565C41.6079 13.8776 41.5373 14.0871 41.4703 14.2858L40.9017 14.094ZM37.9719 18.7468C38.8959 18.1427 39.302 17.8602 39.6456 17.3153C40.0053 16.7449 40.297 15.887 40.9017 14.094L41.4703 14.2858C40.8782 16.0412 40.5611 16.9883 40.1531 17.6353C39.7291 18.3078 39.2086 18.6551 38.3002 19.249L37.9719 18.7468ZM37.3149 24.0366C37.1233 22.2808 37.2876 20.5695 37.8519 18.9017L38.4202 19.094C37.8857 20.6739 37.7286 22.297 37.9114 23.9715L37.3149 24.0366ZM34.1552 37.5656L37.3209 23.9362L37.9054 24.0719L34.7397 37.7013L34.1552 37.5656ZM24.3418 53.1406L34.1935 37.4738L34.7014 37.7932L24.8497 53.46L24.3418 53.1406ZM28.3981 56.7619L24.4071 53.5336L24.7845 53.0671L28.7755 56.2954L28.3981 56.7619ZM41.0533 41.374L28.8214 56.7157L28.3522 56.3416L40.5842 40.9999L41.0533 41.374ZM42.9952 35.1633L41.1054 41.2756L40.5321 41.0983L42.422 34.986L42.9952 35.1633ZM45.3045 38.7696C44.2716 37.5778 43.323 36.4061 42.4677 35.2534L42.9495 34.8959C43.7945 36.0345 44.7333 37.1944 45.7579 38.3766L45.3045 38.7696ZM49.3521 47.0979C48.7501 45.5007 48.139 43.8797 47.4743 42.4216C46.8084 40.9611 46.0977 39.6849 45.3045 38.7696L45.7579 38.3766C46.6077 39.3572 47.3466 40.6954 48.0202 42.1727C48.6949 43.6526 49.3131 45.2932 49.9135 46.8863L49.3521 47.0979ZM52.1281 53.4136C51.129 51.8162 50.248 49.475 49.3521 47.0979L49.9135 46.8863C50.8176 49.2851 51.6766 51.5603 52.6368 53.0954L52.1281 53.4136Z" fill="#000F3E" mask="url(#path-28-inside-4_921_68)"/>
    <path d="M27.2353 7.78119C26.9543 8.118 26.5939 8.37958 26.1866 8.54234C25.7792 8.7051 25.3378 8.76393 24.902 8.71352C24.038 8.57883 23.2691 7.84182 23.2138 6.96915C23.166 6.21556 23.609 5.52439 24.0738 4.92932C25.0994 3.61709 26.3174 2.46733 27.6864 1.51895C28.3393 1.06699 29.0596 0.650928 29.8521 0.602201C30.2443 0.57809 30.6373 0.645687 31.0298 0.628818C31.7515 0.597806 32.4279 0.285498 33.1319 0.123739C33.8549 -0.0373072 34.604 -0.041197 35.3285 0.112332C36.0531 0.265861 36.7362 0.573225 37.3317 1.01363C37.7288 1.31705 38.0879 1.66712 38.4014 2.05632C39.2684 3.1167 39.8498 4.38115 40.0905 5.72953C40.4689 7.86689 41.5 10 40.0001 12C38.7949 11.8875 38.8522 11.0918 37.7073 10.699C36.8578 10.4106 35.9355 10.4188 35.0913 10.7223C34.8738 10.8338 34.6286 10.8797 34.3855 10.8543C34.1847 10.7835 34.0092 10.6551 33.8808 10.4853L31.6915 8.10315C31.2459 7.61835 30.7398 7.10185 30.0848 7.03473C29.6937 7.02121 29.3048 7.09835 28.9485 7.26011C28.0707 7.59203 27.2217 7.99548 26.41 8.46639" fill="#000F3E"/>
</svg>
