<svg width="124" height="94" viewBox="0 0 124 94" fill="none" xmlns="http://www.w3.org/2000/svg">
    <g clip-path="url(#clip0_1_2335)">
        <path d="M0 85.2012C0 85.3044 0.0833302 85.3874 0.1871 85.3874H123.813C123.917 85.3874 124 85.3044 124 85.2012C124 85.0979 123.917 85.015 123.813 85.015H0.1871C0.0833302 85.015 0 85.0979 0 85.2012Z" fill="#3F3D56"/>
        <path d="M67.9313 32.526L69.208 24.5925L60.5966 21.1021L59.3215 33.1597L67.9313 32.526Z" fill="#F7C9C9"/>
        <path d="M65.7555 27.1426C70.6052 27.1426 74.5366 23.2306 74.5366 18.4049C74.5366 13.5791 70.6052 9.66711 65.7555 9.66711C60.9058 9.66711 56.9744 13.5791 56.9744 18.4049C56.9744 23.2306 60.9058 27.1426 65.7555 27.1426Z" fill="#F7C9C9"/>
        <path d="M65.0558 6.65858C65.3105 6.80564 65.6501 6.58348 65.7319 6.30187C65.8136 6.02026 65.7177 5.72144 65.625 5.44453C65.4677 4.97987 65.3089 4.51365 65.1517 4.04899C64.8153 3.05866 64.4584 2.03391 63.732 1.27982C62.6329 0.142428 60.8877 -0.147005 59.317 0.062638C57.2998 0.331732 55.3078 1.41906 54.3707 3.21667C53.432 5.01429 53.8314 7.52375 55.5279 8.6455C53.1113 11.4006 52.2686 14.4733 52.4022 18.1279C52.5358 21.7826 56.5373 25.1463 59.1488 27.7215C59.7321 27.3695 60.262 25.722 59.9412 25.1228C59.6205 24.5236 60.0796 23.8306 59.6834 23.2799C59.2872 22.7291 58.9538 23.6068 59.3563 23.0577C59.6095 22.7119 58.6205 21.9156 58.9979 21.7091C60.8186 20.7078 61.4239 18.4487 62.5685 16.7199C63.9474 14.6344 66.3089 13.2217 68.8072 12.987C70.183 12.8571 71.6373 13.0918 72.7646 13.8866C73.892 14.6813 74.6231 16.1019 74.3621 17.4536C75.0397 16.7684 75.3762 15.7655 75.2488 14.8143C75.1215 13.8631 74.5334 12.9807 73.6986 12.4973C74.2048 10.8295 73.7709 8.91146 72.5948 7.62075C71.4188 6.33003 66.6454 6.55063 64.9285 6.89013" fill="#2F2E41"/>
        <path d="M64.7884 13.0354C62.5134 13.2795 60.8703 15.2413 59.4836 17.0515C58.6849 18.095 57.8469 19.248 57.8673 20.5607C57.8877 21.8874 58.7792 23.0247 59.2053 24.2826C59.9018 26.3384 59.2226 28.7821 57.5654 30.1902C59.2037 30.4999 60.9741 29.2781 61.2571 27.6432C61.5857 25.7407 60.1361 23.904 60.3075 21.9797C60.4584 20.2853 61.8011 18.9805 62.941 17.7133C64.0809 16.446 65.1532 14.7642 64.6281 13.1449" fill="#2F2E41"/>
        <path d="M65.2239 93.0613C65.2239 93.0613 46.1994 94.9387 44.7844 92.7484C43.3694 90.5581 64.0903 88.3678 64.0903 88.3678L65.2239 93.0613Z" fill="#F7C9C9"/>
        <path d="M53.094 57.9633L52.7009 60.0394C53.7716 61.6117 53.8738 63.2732 53.2512 65.0035L74.9485 65.16C74.7158 62.821 74.4595 60.3147 75.3526 58.0164L53.094 57.9633Z" fill="#F7C9C9"/>
        <path d="M88.6333 73.4001L80.7641 67.1359C79.7186 66.3036 79.0409 65.066 78.9073 63.7409L77.6951 51.8084L84.9196 49.4116L86.6617 61.2267L91.0027 71.044L88.6349 73.4001H88.6333Z" fill="#F7C9C9"/>
        <path d="M58.5183 31.7578L69.0525 31.2885L80.2156 36.5796L75.656 58.1979L52.5437 59.9188L49.3992 35.982L58.5183 31.7578Z" fill="#6481F7"/>
        <path d="M75.3526 63.1793C76.9358 65.2554 77.5993 70.254 78.2723 75.226C78.2723 75.226 49.0281 75.0695 48.8709 75.0695C48.7136 75.0695 53.3408 64.5874 53.3408 64.5874L75.3526 63.1793Z" fill="#2F2E41"/>
        <path d="M76.3085 73.8993L78.2738 75.226C78.2738 75.226 106.103 73.3486 103.745 82.1098C101.386 90.8711 93.9965 92.2791 93.9965 92.2791L64.1234 94.0001L63.809 89.1501C63.809 89.1501 35.0365 95.5646 32.3636 82.4227C29.6908 69.2809 48.8724 75.0696 48.8724 75.0696L76.3085 73.8993Z" fill="#2F2E41"/>
        <path d="M64.5652 84.3001C64.5652 84.3001 65.224 80.8582 69.9408 82.2662C74.6576 83.6743 77.3304 85.5517 77.3304 85.5517L66.0101 88.3678L64.5652 84.3001Z" fill="#F7C9C9"/>
        <path d="M76.3635 36.2167C76.3635 36.2167 81.7092 34.3393 83.7532 40.4408C85.7971 46.5424 85.3254 51.5488 85.3254 51.5488L77.4641 54.052L76.3635 36.2167Z" fill="#6481F7"/>
        <path d="M39.7061 74.3529L37.9907 71.346L41.6966 62.167L43.4386 50.3503L50.6632 52.7472L49.4353 64.8251C49.3095 66.0595 48.679 67.211 47.7058 67.9854L39.7061 74.3545V74.3529Z" fill="#F7C9C9"/>
        <path d="M51.9933 36.2167C51.9933 36.2167 46.6476 34.3393 44.6037 40.4408C42.5597 46.5424 43.0314 51.5488 43.0314 51.5488L50.8927 54.052L51.9933 36.2167Z" fill="#6481F7"/>
        <path d="M90.907 74.7817C92.991 74.7817 94.6804 72.2951 94.6804 69.2277C94.6804 66.1603 92.991 63.6737 90.907 63.6737C88.823 63.6737 87.1335 66.1603 87.1335 69.2277C87.1335 72.2951 88.823 74.7817 90.907 74.7817Z" fill="#F7C9C9"/>
        <path d="M37.9216 75.7204C40.0056 75.7204 41.6951 73.2338 41.6951 70.1664C41.6951 67.099 40.0056 64.6124 37.9216 64.6124C35.8376 64.6124 34.1482 67.099 34.1482 70.1664C34.1482 73.2338 35.8376 75.7204 37.9216 75.7204Z" fill="#F7C9C9"/>
        <path d="M52.3313 79.4501L66.01 83.3613L68.6829 88.0548L63.5714 89.15" fill="#2F2E41"/>
    </g>
    <defs>
        <clipPath id="clip0_1_2335">
            <rect width="124" height="94" fill="white"/>
        </clipPath>
    </defs>
</svg>
